<svg width="554" height="557" viewBox="0 0 554 557" fill="none" xmlns="http://www.w3.org/2000/svg">
<g clip-path="url(#clip0_214_2939)">
<path d="M251.043 544.179C249.113 542.518 244.801 537.265 248.124 531.158C249.345 528.922 251.935 527.811 254.28 526.822C256.625 525.832 259.093 524.977 261.023 523.328C264.687 520.213 265.689 515.046 268.12 510.893C270.905 506.129 276.108 502.55 281.605 502.807C287.896 503.088 293.148 508.23 295.53 514.093C297.912 519.957 297.998 526.467 298.047 532.795C298.071 536.3 297.924 540.246 295.347 542.603C292.977 544.778 289.411 544.814 286.198 544.717C274.728 544.362 263.258 544.008 251.788 543.654" fill="#F5F5F5"/>
<path d="M316.846 449.562H226.357L242.652 546.756C243.36 551.007 246.438 554.269 250.371 555.405C250.481 555.441 250.579 555.466 250.689 555.49C250.958 555.563 251.214 555.649 251.495 555.698C252.094 555.82 252.704 555.881 253.34 555.905C253.34 555.93 253.34 555.967 253.352 556.003L253.792 555.93H294.126C294.883 555.93 295.628 555.857 296.337 555.71C301.1 554.977 304.911 551.154 305.486 546.207L313.34 479.244L313.694 476.581H313.657L316.772 450.062L316.833 449.562H316.846ZM299.781 511.553H290.498L291.438 483.348H302.2L299.793 511.553H299.781ZM303.091 483.348H311.984L308.674 511.553H300.685L303.091 483.348ZM276.56 542.823L275.999 518.32H289.374L288.556 542.823H276.56ZM262.11 518.32H275.107L275.669 542.823H264.016L262.11 518.32ZM263.112 542.823H252.216C251.178 536.203 249.834 527.603 248.38 518.32H261.206L263.112 542.823ZM261.585 511.553L259.398 483.348H274.301L274.948 511.553H261.585ZM275.852 511.553L275.205 483.348H290.547L289.606 511.553H275.852ZM275.046 476.581L274.447 450.453H291.634L290.766 476.581H275.046ZM274.142 476.581H258.861L256.833 450.453H273.531L274.13 476.581H274.142ZM257.969 476.581H241.809C241.235 472.978 240.697 469.557 240.209 466.492C238.523 455.926 237.888 451.956 237.533 450.465H255.941L257.969 476.593V476.581ZM258.494 483.348L260.681 511.553H247.318C246.866 508.694 246.414 505.799 245.962 502.892C244.911 496.235 243.861 489.578 242.884 483.336H258.507L258.494 483.348ZM246.414 511.553H237.68L232.953 483.348H241.967C243.348 492.07 244.875 501.769 246.414 511.553ZM247.476 518.32C248.808 526.797 250.115 535.164 251.312 542.823H242.92L238.816 518.32H247.476ZM289.459 542.823L290.278 518.32H299.207L297.118 542.823H289.459ZM291.658 476.581L292.525 450.453H304.997L302.762 476.581H291.646H291.658ZM236.666 450.453C237.02 452.347 238.682 462.619 240.893 476.581H231.805L227.419 450.453H236.666ZM304.997 542.811H298.01L300.099 518.308H307.868L304.997 542.811ZM312.766 476.569H303.666L305.901 450.441H315.844L312.778 476.569H312.766Z" fill="#E0E0E0"/>
<path d="M395.571 86.3724H348.421V179.842H395.571V86.3724Z" fill="#F5F5F5"/>
<path d="M448.34 86.3724H397.391V179.842H448.34V86.3724Z" fill="#F5F5F5"/>
<path d="M448.34 186.377H397.391V276.695H448.34V186.377Z" fill="#F5F5F5"/>
<path d="M454.863 84.76H508.524V1.84447H510.331V84.76H554V0H454.863V84.76Z" fill="#F5F5F5"/>
<path d="M554 86.3724H510.331V179.842H554V86.3724Z" fill="#F5F5F5"/>
<path d="M554 186.377H510.331V276.695H554V186.377Z" fill="#F5F5F5"/>
<path d="M395.571 186.377H348.421V276.695H395.571V186.377Z" fill="#F5F5F5"/>
<path d="M508.524 186.377H454.863V276.695H508.524V186.377Z" fill="#F5F5F5"/>
<path d="M395.571 278.307H348.421V359.696H395.571V278.307Z" fill="#F5F5F5"/>
<path d="M554 278.307H510.331V359.696H554V278.307Z" fill="#F5F5F5"/>
<path d="M395.571 84.76V1.84447H397.391V84.76H448.34V0H348.421V84.76H395.571Z" fill="#F5F5F5"/>
<path d="M508.524 278.307H454.863V359.696H508.524V278.307Z" fill="#F5F5F5"/>
<path d="M448.34 278.307H397.391V359.696H448.34V278.307Z" fill="#F5F5F5"/>
<path d="M508.524 86.3724H454.863V179.842H508.524V86.3724Z" fill="#F5F5F5"/>
<path d="M18.2495 229.129C15.6966 229.813 13.0703 228.299 12.3863 225.746L1.58823 185.509C1.03855 183.457 2.36999 181.332 4.55648 180.746L8.34313 179.732C9.88223 179.316 11.0671 178.095 11.3602 176.617L11.7267 174.748C12.0199 173.258 13.2047 172.049 14.7438 171.633L32.6999 166.82C34.1046 166.442 35.5826 166.784 36.5965 167.724L37.8546 168.885C38.8685 169.825 40.3465 170.167 41.7512 169.789L64.6422 163.645C66.8286 163.058 69.0396 164.243 69.5892 166.283L80.6316 207.423C81.3157 209.976 79.801 212.602 77.2481 213.286L18.2617 229.105L18.2495 229.129Z" fill="#E0E0E0"/>
<path d="M39.4791 170.387L24.9066 174.259L22.9522 172.171C21.6818 170.815 19.6908 170.29 17.8097 170.79L3.57918 174.614C1.05067 175.298 -0.488418 177.765 0.146763 180.135L0.586504 181.796L12.3007 225.477C13.0214 228.177 15.9408 229.728 18.8235 228.958L76.6372 213.445C79.52 212.676 81.2667 209.866 80.5338 207.167L69.467 165.904C68.9784 164.06 67.0851 162.973 65.2406 163.461L39.4669 170.375L39.4791 170.387Z" fill="#EBEBEB"/>
<path d="M213.543 165.159C210.428 164.414 208.523 161.275 209.268 158.172L221.092 109.214C221.69 106.723 224.341 105.22 226.992 105.868L231.597 106.979C233.478 107.431 235.432 106.82 236.605 105.416L238.083 103.644C239.256 102.24 241.21 101.629 243.091 102.081L264.944 107.358C266.642 107.773 268.022 108.995 268.559 110.57L269.219 112.525C269.757 114.113 271.125 115.334 272.835 115.737L300.685 122.468C303.348 123.115 305.009 125.656 304.411 128.136L292.318 178.205C291.573 181.32 288.433 183.225 285.331 182.48L213.555 165.147L213.543 165.159Z" fill="#E0E0E0"/>
<path d="M270.074 115.09L252.362 110.766L251.495 107.419C250.933 105.245 249.125 103.535 246.841 102.973L229.52 98.7951C226.442 98.05 223.376 99.7845 222.68 102.679L222.191 104.695L209.353 157.855C208.559 161.141 210.758 164.475 214.264 165.33L284.622 182.321C288.128 183.164 291.609 181.198 292.403 177.912L304.533 127.696C305.07 125.46 303.702 123.201 301.455 122.663L270.086 115.09H270.074Z" fill="#EBEBEB"/>
<path d="M77.1134 100.591C73.5466 100.982 70.3341 98.4042 69.9432 94.8374L63.7624 38.6361C63.4448 35.7778 65.6679 33.1882 68.7217 32.8462L74.0108 32.2599C76.1728 32.0278 77.9929 30.6353 78.7014 28.7053L79.5808 26.2745C80.2771 24.3445 82.1093 22.952 84.2714 22.7199L109.361 19.9593C111.315 19.7395 113.233 20.509 114.406 21.9748L115.847 23.7949C117.02 25.2607 118.925 26.0302 120.892 25.8103L152.871 22.2924C155.925 21.9626 158.649 24.0025 158.966 26.8608L165.281 84.3325C165.672 87.8993 163.095 91.1118 159.528 91.5027L77.1256 100.554L77.1134 100.591Z" fill="#E0E0E0"/>
<path d="M117.728 26.1768L97.3782 28.3633L95.1917 25.1629C93.7748 23.0864 91.2096 21.9626 88.5834 22.2558L68.6973 24.4423C65.155 24.8331 62.5898 27.838 62.9441 31.1483L63.2006 33.4692L69.9066 94.4832C70.3219 98.2454 73.9131 100.945 77.9319 100.505L158.698 91.6249C162.716 91.1851 165.648 87.7771 165.233 84.0027L158.893 26.36C158.612 23.7826 156.291 21.9382 153.726 22.2191L117.728 26.1768Z" fill="#F5F5F5"/>
<path d="M121.32 62.2966C123.909 60.8552 125.534 57.8381 125.192 54.5279C124.728 50.1915 121.075 47.0278 117.008 47.4554C112.952 47.8829 110.021 51.7428 110.485 56.0792C110.839 59.4139 113.099 62.0401 115.969 62.8829C104.842 65.8267 106.71 78.0662 106.71 78.0662L133.474 75.2445C133.474 75.2445 132.716 62.7486 121.32 62.2844V62.2966Z" fill="#E0E0E0"/>
<path d="M24.1492 91.9669C25.2852 91.4538 26.47 91.0996 27.6671 90.9042L28.742 87.6672L34.3487 88.2291L34.764 91.6126C35.9 92.0402 36.9994 92.6143 38.001 93.3472L41.0548 91.8203L44.6215 96.181L42.5206 98.8684C43.0336 100.004 43.3878 101.189 43.5833 102.386L46.8202 103.461L46.2584 109.068L42.8748 109.483C42.4473 110.619 41.8732 111.719 41.1403 112.72L42.6671 115.774L38.3064 119.341L35.6191 117.24C34.4831 117.753 33.2982 118.107 32.1011 118.302L31.0262 121.539L25.4195 120.978L25.0042 117.594C23.8682 117.166 22.7689 116.592 21.7672 115.859L18.7135 117.386L15.1467 113.026L17.2477 110.338C16.7347 109.202 16.3804 108.017 16.185 106.82L12.948 105.745L13.5099 100.139L16.8934 99.7234C17.321 98.5874 17.8951 97.4881 18.628 96.4864L17.1011 93.4327L21.4619 89.8659L24.1492 91.9669ZM26.2502 99.7845C23.6606 101.898 23.2819 105.709 25.3951 108.298C27.5083 110.888 31.3194 111.267 33.909 109.153C36.4986 107.04 36.8772 103.229 34.764 100.64C32.6508 98.0499 28.8397 97.6713 26.2502 99.7845Z" fill="#E0E0E0"/>
<path d="M52.5981 320.168C52.5981 320.168 53.1478 320.278 54.0639 319.936C54.5036 319.753 55.0289 319.411 55.432 318.812C55.6274 318.519 55.7862 318.165 55.8595 317.774C55.9328 317.383 55.9694 316.919 56.0305 316.454C56.5069 312.668 57.1787 307.257 58.0093 300.587C58.217 298.914 58.4491 297.155 58.6812 295.335C58.8033 294.419 58.9133 293.49 59.0354 292.537C59.0965 292.061 59.1576 291.585 59.2186 291.096C59.2675 290.607 59.3774 290.131 59.3286 289.691C59.2431 288.787 58.6812 287.92 57.8383 287.505C57.423 287.273 56.9711 287.212 56.4336 287.151C55.9206 287.09 55.3953 287.016 54.8701 286.955C52.7691 286.686 50.6193 286.406 48.4083 286.125C39.5525 284.964 29.8293 283.694 19.6175 282.362C18.4693 282.191 17.2723 282.863 16.7959 283.901C16.6737 284.158 16.6004 284.439 16.5516 284.72L16.4294 285.66C16.3439 286.283 16.2584 286.906 16.1851 287.529C15.8553 290.021 15.5377 292.464 15.2201 294.871C14.585 299.683 13.962 304.325 13.3757 308.747C13.2291 309.846 13.0825 310.933 12.9481 312.008C12.8504 312.998 13.3512 313.987 14.1452 314.524C14.5483 314.805 14.988 314.952 15.4889 315.001C16.0019 315.074 16.5149 315.135 17.028 315.209C18.0418 315.343 19.0434 315.477 20.0329 315.612C23.9661 316.137 27.6306 316.638 30.9775 317.09C37.6347 318.006 43.0337 318.751 46.8082 319.276C48.6404 319.545 50.0818 319.753 51.1079 319.899C51.572 319.972 51.9385 320.033 52.2194 320.082C52.4759 320.131 52.5981 320.156 52.5981 320.168C52.5981 320.168 52.4637 320.168 52.2072 320.156C51.9141 320.131 51.5476 320.082 51.0834 320.033C50.0574 319.911 48.6038 319.74 46.7715 319.52C42.9849 319.044 37.5736 318.372 30.9164 317.542C27.5695 317.114 23.905 316.65 19.9718 316.137C18.9824 316.015 17.9929 315.88 16.9669 315.746C16.4539 315.685 15.9408 315.612 15.4278 315.551C14.8903 315.502 14.3162 315.318 13.8398 314.989C12.8748 314.353 12.2763 313.156 12.3862 311.972C12.5206 310.884 12.6672 309.797 12.8016 308.686C13.3757 304.264 13.9864 299.61 14.6094 294.797C14.927 292.391 15.2446 289.936 15.5744 287.456C15.6599 286.833 15.7332 286.21 15.8187 285.587L15.9408 284.647C15.9897 284.305 16.0874 283.963 16.234 283.645C16.8203 282.362 18.2983 281.544 19.7153 281.752C29.927 283.107 39.638 284.39 48.4938 285.563C50.7048 285.856 52.8546 286.149 54.9556 286.43C55.4808 286.503 55.9939 286.564 56.5191 286.638C57.0077 286.699 57.6185 286.772 58.0949 287.053C59.0965 287.566 59.7683 288.592 59.8538 289.667C59.9149 290.217 59.7927 290.717 59.7439 291.194C59.6828 291.682 59.6095 292.159 59.5484 292.635C59.4263 293.588 59.2919 294.516 59.1698 295.432C58.9255 297.252 58.6812 299.011 58.4613 300.685C57.5452 307.342 56.8001 312.741 56.2748 316.516C56.2015 316.992 56.1649 317.419 56.0672 317.847C55.9694 318.274 55.7984 318.641 55.5786 318.946C55.1388 319.557 54.5769 319.899 54.1005 320.082C53.6242 320.253 53.2333 320.266 52.9768 320.253C52.7202 320.241 52.5981 320.192 52.5981 320.192V320.168Z" fill="#E0E0E0"/>
<path d="M53.4532 315.27C53.4532 315.27 53.3066 315.123 53.0867 314.805C52.8302 314.427 52.5249 313.963 52.1462 313.401C51.2911 312.082 50.1551 310.323 48.7871 308.197C48.0786 307.086 47.309 305.876 46.4906 304.581C46.283 304.264 46.0753 303.934 45.8677 303.604C45.6967 303.348 45.3913 303.189 45.0737 303.213C44.7439 303.213 44.524 303.433 44.182 303.739C43.8644 304.007 43.5346 304.288 43.2048 304.569C42.5452 305.131 41.8734 305.705 41.1893 306.292C41.0183 306.426 40.8717 306.597 40.5908 306.744C40.3343 306.878 40.0411 306.939 39.7479 306.902C39.4548 306.878 39.1738 306.756 38.954 306.56C38.8318 306.475 38.7463 306.353 38.6608 306.23L38.4654 305.937C37.4271 304.362 36.3644 302.737 35.265 301.064C34.7154 300.233 34.1779 299.402 33.6404 298.584C33.3717 298.181 33.1152 297.778 32.8465 297.375C32.651 297.057 32.2846 296.898 31.9425 296.959C31.7715 296.984 31.6127 297.069 31.4906 297.191L31.002 297.68C30.6722 298.01 30.3546 298.327 30.0248 298.645C29.3774 299.28 28.7544 299.903 28.1315 300.514C25.6762 302.92 23.4653 305.107 21.572 306.963C19.7397 308.735 18.2373 310.188 17.1135 311.275C16.6249 311.727 16.2096 312.106 15.8798 312.424C15.5866 312.68 15.4401 312.814 15.4156 312.79C15.4034 312.778 15.5256 312.619 15.7821 312.326C16.0997 311.984 16.4783 311.581 16.9303 311.092C18.0174 309.968 19.471 308.466 21.2422 306.646C23.0989 304.765 25.2854 302.542 27.7039 300.099C28.3147 299.488 28.9377 298.853 29.5728 298.217C29.8904 297.9 30.2202 297.57 30.5378 297.24L31.0264 296.739C31.2341 296.532 31.515 296.385 31.8082 296.336C32.3945 296.214 33.0419 296.52 33.3473 297.02C33.616 297.423 33.8725 297.827 34.1413 298.23C34.6787 299.048 35.2162 299.866 35.7659 300.697C36.853 302.371 37.9279 303.995 38.954 305.571C39.3571 306.414 40.151 306.487 40.7618 305.791C41.458 305.204 42.1299 304.643 42.8017 304.081C43.1315 303.8 43.4613 303.531 43.7789 303.262C43.9621 303.116 44.0598 303.006 44.2919 302.847C44.5118 302.713 44.7561 302.627 45.0126 302.615C45.5257 302.59 46.0143 302.847 46.283 303.262C46.4906 303.604 46.6983 303.934 46.906 304.264C47.6999 305.571 48.445 306.792 49.1413 307.916C50.4483 310.09 51.5232 311.886 52.3294 313.23C52.6592 313.816 52.9402 314.292 53.1723 314.696C53.3555 315.038 53.4532 315.221 53.4288 315.233L53.4532 315.27Z" fill="#E0E0E0"/>
<path d="M44.9026 295.09C44.9026 295.09 44.8782 294.761 44.7805 294.211C44.6828 293.673 44.414 292.879 43.6933 292.208C43.0093 291.536 41.8244 291.072 40.5907 291.365C39.3692 291.621 38.2088 292.733 38.0378 294.186C37.8301 295.628 38.673 297.008 39.7845 297.57C40.8961 298.169 42.1665 298.034 42.9971 297.57C43.8521 297.106 44.3285 296.41 44.5606 295.909C44.7927 295.408 44.8538 295.078 44.9026 295.09C44.9393 295.09 44.9637 295.42 44.7927 295.994C44.6217 296.556 44.1697 297.375 43.2292 297.949C42.313 298.535 40.8472 298.767 39.5158 298.083C38.1966 297.448 37.1705 295.823 37.4148 294.101C37.6225 292.366 39.0394 291.059 40.4808 290.791C41.9466 290.485 43.3025 291.084 44.0354 291.878C44.7927 292.684 45.0248 293.588 45.0492 294.174C45.0736 294.773 44.9515 295.09 44.9271 295.078L44.9026 295.09Z" fill="#E0E0E0"/>
<path d="M242.774 78.6525C242.774 78.6525 243.226 78.9823 244.203 79.0434C244.691 79.0556 245.302 78.9579 245.901 78.5792C246.194 78.396 246.487 78.1395 246.719 77.8097C246.951 77.4799 247.171 77.0768 247.415 76.6859C249.406 73.4245 252.24 68.7705 255.734 63.0295C256.613 61.5881 257.542 60.0857 258.494 58.5099C258.971 57.7282 259.472 56.922 259.972 56.1036C260.217 55.7005 260.473 55.2852 260.73 54.8699C260.974 54.4423 261.279 54.0515 261.402 53.6239C261.695 52.7689 261.536 51.7428 260.937 51.0221C260.644 50.6435 260.266 50.3992 259.801 50.1304C259.362 49.8617 258.91 49.5808 258.458 49.312C256.662 48.2005 254.805 47.0645 252.9 45.8918C245.302 41.2135 236.947 36.0587 228.189 30.6597C227.212 30.0367 225.844 30.1467 224.989 30.904C224.769 31.0872 224.585 31.3071 224.439 31.5514L223.938 32.3576L222.949 33.9577C221.629 36.0954 220.335 38.1964 219.052 40.2607C216.499 44.3894 214.032 48.3715 211.674 52.1703C211.088 53.1109 210.514 54.0515 209.952 54.9676C209.451 55.8226 209.5 56.9342 210.013 57.7526C210.269 58.1679 210.611 58.4855 211.039 58.742C211.479 59.0108 211.918 59.2917 212.358 59.5604C213.225 60.0979 214.081 60.6353 214.923 61.1606C218.295 63.2616 221.422 65.2038 224.292 66.9994C229.984 70.5662 234.602 73.4611 237.839 75.4888C239.402 76.4904 240.636 77.2722 241.503 77.8219C241.894 78.0784 242.212 78.2861 242.444 78.4448C242.651 78.5914 242.761 78.6647 242.749 78.6769C242.749 78.6769 242.627 78.6281 242.407 78.5059C242.163 78.3593 241.833 78.1761 241.43 77.944C240.538 77.4066 239.292 76.6615 237.704 75.7087C234.443 73.7176 229.789 70.8838 224.048 67.4025C221.165 65.6435 218.014 63.7013 214.63 61.637C213.787 61.1239 212.92 60.5865 212.053 60.049C211.613 59.7803 211.173 59.5116 210.734 59.2428C210.269 58.9741 209.805 58.571 209.512 58.0824C208.901 57.1052 208.828 55.7738 209.427 54.7355C210.001 53.8072 210.575 52.8666 211.161 51.9016C213.506 48.1027 215.962 44.1084 218.502 39.9798C219.773 37.9154 221.08 35.8144 222.387 33.6768L223.376 32.0644L223.877 31.2582C224.06 30.9651 224.292 30.6963 224.561 30.4643C225.624 29.5359 227.297 29.3893 228.519 30.1589C237.277 35.5701 245.62 40.7371 253.205 45.4276C255.099 46.6003 256.943 47.7485 258.751 48.8601C259.203 49.141 259.643 49.4097 260.082 49.6907C260.51 49.9472 261.023 50.2648 261.353 50.7168C262.061 51.5962 262.244 52.8055 261.89 53.8316C261.719 54.3568 261.402 54.7721 261.157 55.1752C260.901 55.5905 260.644 55.9936 260.388 56.409C259.887 57.2274 259.386 58.0213 258.897 58.8031C257.92 60.3666 256.992 61.8691 256.1 63.2982C252.533 68.9904 249.638 73.6077 247.611 76.8447C247.354 77.2478 247.134 77.6142 246.878 77.9685C246.621 78.3105 246.304 78.5792 245.974 78.7746C245.327 79.1533 244.667 79.2388 244.166 79.2022C243.665 79.1533 243.287 79.0189 243.067 78.8968C242.835 78.7746 242.737 78.6891 242.737 78.6891L242.774 78.6525Z" fill="#E0E0E0"/>
<path d="M239.451 52.6589L241.711 57.1785C242.138 58.0458 241.491 59.0596 240.526 59.023L235.383 58.8642L230.375 58.7054C229.374 58.6687 228.8 57.5694 229.349 56.7265L232.171 52.4269L235.017 48.0783C235.554 47.2477 236.788 47.321 237.228 48.2005L239.451 52.6467V52.6589Z" fill="#E0E0E0"/>
<path d="M550.58 556.382C550.58 556.553 432.46 556.699 286.784 556.699C141.108 556.699 22.9519 556.553 22.9519 556.382C22.9519 556.211 141.047 556.064 286.784 556.064C432.521 556.064 550.58 556.211 550.58 556.382Z" fill="#263238"/>
<path d="M520.421 335.681C508.939 341.63 500.132 351.866 493.804 363.153C487.477 374.439 483.397 386.801 479.354 399.089L475.812 462.448C489.175 439.716 499.9 412.99 502.795 386.789C499.826 386.52 496.87 386.263 493.902 385.995C499.863 385.091 504.871 380.767 508.047 375.649C511.235 370.53 512.872 364.618 514.472 358.804C510.857 359.341 507.241 359.879 503.625 360.416C512.115 354.749 518.283 345.685 520.421 335.693V335.681Z" fill="#455A64"/>
<g opacity="0.3">
<path d="M520.421 335.681C508.939 341.63 500.132 351.866 493.804 363.153C487.477 374.439 483.397 386.801 479.354 399.089L475.812 462.448C489.175 439.716 499.9 412.99 502.795 386.789C499.826 386.52 496.87 386.263 493.902 385.995C499.863 385.091 504.871 380.767 508.047 375.649C511.235 370.53 512.872 364.618 514.472 358.804C510.857 359.341 507.241 359.879 503.625 360.416C512.115 354.749 518.283 345.685 520.421 335.693V335.681Z" fill="black"/>
</g>
<path d="M473.833 477.29C473.833 477.29 444.834 442.575 445.164 409.435H456.878C456.878 409.435 444.15 401.068 445.164 396.377C446.166 391.687 446.508 373.951 446.508 373.951L457.22 376.626C457.22 376.626 449.183 372.607 448.181 366.255C447.18 359.891 450.526 330.441 450.526 330.441C450.526 330.441 463.584 344.17 467.603 358.218C471.622 372.277 482.163 388.682 479.073 431.52C475.983 474.37 473.845 477.277 473.845 477.277L473.833 477.29Z" fill="#455A64"/>
<path d="M488.527 480.563C488.527 480.563 519.944 459.627 526.931 432.912L517.514 430.347C517.514 430.347 529.57 426.402 529.79 422.42C530.01 418.438 533.613 404.097 533.613 404.097L524.415 403.902C524.415 403.902 531.756 402.436 533.955 397.538C536.154 392.64 539.904 368.234 539.904 368.234C539.904 368.234 526.406 376.406 520.103 386.837C513.8 397.257 501.732 408.14 494.843 443.259C487.953 478.377 488.527 480.563 488.527 480.563Z" fill="#455A64"/>
<path d="M458.442 360.71C458.442 360.71 458.491 360.832 458.552 361.064C458.613 361.333 458.698 361.687 458.808 362.126C459.028 363.116 459.346 364.484 459.737 366.243C460.14 368.026 460.616 370.225 461.117 372.778C461.63 375.331 462.241 378.238 462.827 381.451C464.073 387.888 465.392 395.583 466.736 404.146C468.043 412.709 469.35 422.151 470.51 432.082C471.646 442.025 472.526 451.516 473.21 460.152C473.845 468.8 474.321 476.593 474.578 483.141C474.737 486.414 474.81 489.383 474.896 491.984C474.981 494.586 475.03 496.834 475.042 498.666C475.054 500.462 475.067 501.879 475.079 502.88C475.079 503.332 475.079 503.699 475.079 503.979C475.079 504.224 475.067 504.358 475.054 504.358C475.054 504.358 475.03 504.236 475.018 503.979C475.005 503.699 474.981 503.332 474.957 502.88C474.92 501.866 474.871 500.462 474.798 498.666C474.749 496.834 474.663 494.598 474.541 491.997C474.431 489.395 474.321 486.439 474.138 483.165C473.821 476.618 473.308 468.837 472.636 460.201C471.927 451.565 471.023 442.086 469.887 432.155C468.727 422.224 467.444 412.794 466.162 404.232C464.843 395.669 463.572 387.973 462.387 381.536C461.825 378.311 461.251 375.404 460.763 372.851C460.286 370.298 459.847 368.1 459.48 366.304C459.138 364.545 458.857 363.153 458.674 362.163C458.589 361.711 458.527 361.357 458.479 361.088C458.442 360.844 458.417 360.722 458.43 360.71H458.442Z" fill="#263238"/>
<path d="M469.802 498.544C469.802 498.544 443.259 468.434 435.026 450.221L441.243 447.558C436.736 448.303 432.119 446.361 428.613 443.417C425.107 440.474 422.554 436.601 420.026 432.79L428.222 431.41C420.771 429.321 414.199 424.228 410.315 417.534C419.989 419.122 428.735 424.435 435.942 431.08C441.781 436.455 446.728 442.697 451.467 449.073C453.788 452.188 455.816 455.498 457.501 458.992C461.96 468.214 469.802 487.477 469.79 498.532L469.802 498.544Z" fill="#455A64"/>
<path d="M527.347 385.763C527.347 385.763 527.322 385.872 527.225 386.068C527.115 386.3 526.98 386.593 526.822 386.947C526.431 387.754 525.893 388.877 525.209 390.294C523.792 393.189 521.777 397.391 519.346 402.619C514.472 413.051 508.047 427.623 501.695 444.016C495.356 460.421 490.311 475.518 486.903 486.524C485.193 492.021 483.849 496.492 482.957 499.582C482.505 501.085 482.151 502.282 481.895 503.137C481.773 503.515 481.675 503.821 481.601 504.053C481.528 504.26 481.492 504.358 481.479 504.358C481.479 504.358 481.479 504.248 481.54 504.028C481.602 503.784 481.675 503.479 481.773 503.088C482.005 502.221 482.322 501.023 482.713 499.497C483.531 496.382 484.814 491.899 486.475 486.378C489.786 475.335 494.769 460.189 501.109 443.772C507.461 427.367 513.959 412.807 518.943 402.412C521.435 397.208 523.499 393.03 524.989 390.172C525.722 388.78 526.284 387.68 526.699 386.874C526.883 386.532 527.041 386.251 527.164 386.031C527.273 385.836 527.335 385.75 527.335 385.75L527.347 385.763Z" fill="#263238"/>
<path d="M472.062 511.443C472.062 511.443 471.878 510.685 471.658 509.293C471.451 507.9 471.097 505.897 470.608 503.442C469.631 498.519 467.921 491.789 465.233 484.619C462.522 477.461 459.346 471.268 456.829 466.931C455.571 464.757 454.509 463.022 453.751 461.85C452.994 460.665 452.603 459.993 452.64 459.969C452.676 459.944 453.141 460.567 453.959 461.715C454.79 462.851 455.913 464.562 457.22 466.711C459.847 471.011 463.108 477.192 465.832 484.399C468.544 491.606 470.193 498.397 471.06 503.369C471.5 505.848 471.781 507.876 471.915 509.269C472.062 510.673 472.123 511.443 472.074 511.455L472.062 511.443Z" fill="#263238"/>
<path d="M507.07 504.358H448.987V516.207H507.07V504.358Z" fill="#D8E2FF"/>
<path d="M454.521 516.207L460.812 556.064H495.905L501.769 516.207H454.521Z" fill="#D8E2FF"/>
<path d="M503.515 516.207C503.515 516.378 492.522 516.524 478.975 516.524C465.429 516.524 454.435 516.378 454.435 516.207C454.435 516.036 465.417 515.889 478.975 515.889C492.534 515.889 503.515 516.036 503.515 516.207Z" fill="#263238"/>
<path d="M235.567 122.541H49.9229V556.382H235.567V122.541Z" fill="#455A64"/>
<g opacity="0.3">
<path d="M100.676 122.541H49.9229V556.382H100.676V122.541Z" fill="black"/>
</g>
<path d="M151.857 140.851L151.833 137.382L150.147 140.204H149.329L147.655 137.468V140.851H145.945V134.304H147.472L149.768 138.079L152.016 134.304H153.543L153.567 140.851H151.869H151.857Z" fill="white"/>
<path d="M158.38 138.506V140.851H156.523V138.469L154.019 134.292H155.974L157.525 136.894L159.076 134.292H160.872L158.368 138.494L158.38 138.506Z" fill="white"/>
<path d="M165.929 135.733V137.175H168.824V138.604H165.929V140.851H164.072V134.304H169.215V135.733H165.929Z" fill="white"/>
<path d="M170.082 134.304H171.939V140.851H170.082V134.304Z" fill="white"/>
<path d="M173.246 134.304H175.102V139.386H178.229V140.851H173.246V134.304Z" fill="white"/>
<path d="M184.215 139.422V140.851H178.95V134.304H184.092V135.733H180.794V136.833H183.702V138.213H180.794V139.41H184.215V139.422Z" fill="white"/>
<path d="M184.789 140.265L185.4 138.897C185.986 139.276 186.804 139.544 187.562 139.544C188.319 139.544 188.624 139.325 188.624 139.007C188.624 137.969 184.899 138.726 184.899 136.295C184.899 135.123 185.852 134.17 187.794 134.17C188.649 134.17 189.528 134.365 190.176 134.744L189.602 136.124C188.979 135.782 188.356 135.623 187.781 135.623C187 135.623 186.719 135.88 186.719 136.21C186.719 137.211 190.432 136.466 190.432 138.873C190.432 140.009 189.479 140.986 187.537 140.986C186.462 140.986 185.4 140.693 184.777 140.265H184.789Z" fill="white"/>
<path d="M228.885 238.059C228.885 238.059 228.861 237.509 228.861 236.483C228.861 235.432 228.848 233.905 228.836 231.914C228.824 227.908 228.8 222.045 228.775 214.557C228.738 199.581 228.702 178.095 228.641 152.004L228.897 152.26C195.111 152.272 153.152 152.297 107.798 152.321L108.115 152.004C108.115 182.81 108.091 212.053 108.091 238.071L107.798 237.778C143.539 237.839 173.783 237.887 195.098 237.924C205.762 237.961 214.203 237.985 219.98 237.997C222.863 238.01 225.074 238.022 226.601 238.034C227.346 238.034 227.908 238.046 228.311 238.046C228.702 238.046 228.897 238.059 228.897 238.059C228.897 238.059 228.714 238.059 228.335 238.071C227.944 238.071 227.383 238.071 226.662 238.083C225.159 238.083 222.961 238.107 220.102 238.12C214.337 238.132 205.921 238.168 195.282 238.193C173.917 238.23 143.612 238.278 107.785 238.339H107.492V238.046C107.492 212.028 107.468 182.798 107.468 151.979V151.662H107.785C153.14 151.686 195.098 151.711 228.885 151.723H229.142V151.979C229.08 178.144 229.044 199.679 229.007 214.691C228.983 222.155 228.958 227.993 228.946 231.988C228.934 233.954 228.922 235.469 228.922 236.507C228.922 237.521 228.897 238.034 228.897 238.034L228.885 238.059Z" fill="#263238"/>
<g opacity="0.3">
<path d="M194.121 204.895H144.821V213.238H194.121V204.895Z" fill="black"/>
</g>
<path d="M185.058 167.773H159.638C157.958 167.773 156.597 169.135 156.597 170.815V188.869C156.597 190.548 157.958 191.91 159.638 191.91H185.058C186.737 191.91 188.099 190.548 188.099 188.869V170.815C188.099 169.135 186.737 167.773 185.058 167.773Z" fill="white"/>
<path d="M186.059 188.331C186.059 188.331 185.62 187.94 184.923 187.146C184.154 186.255 183.177 185.119 182.004 183.763C181.393 183.03 180.721 182.248 180.013 181.405C179.842 181.198 179.659 180.978 179.475 180.77C179.341 180.623 179.133 180.55 178.938 180.587C178.73 180.611 178.62 180.77 178.388 181.027C178.181 181.259 177.985 181.479 177.777 181.711C177.362 182.175 176.935 182.651 176.495 183.14C176.336 183.347 175.933 183.775 175.469 183.738C175.249 183.738 175.017 183.677 174.821 183.555C174.724 183.494 174.638 183.421 174.565 183.335L174.394 183.14C173.502 182.114 172.586 181.051 171.646 179.964C171.181 179.414 170.717 178.877 170.253 178.351L169.569 177.558C169.422 177.362 169.19 177.301 168.983 177.374C168.873 177.399 168.787 177.472 168.726 177.558L168.421 177.948C168.213 178.217 168.018 178.474 167.81 178.73C167.407 179.243 167.016 179.744 166.637 180.245C165.123 182.175 163.742 183.934 162.545 185.461C161.422 186.853 160.481 188.026 159.748 188.942C159.076 189.76 158.685 190.188 158.649 190.163C158.612 190.139 158.942 189.65 159.553 188.795C160.249 187.843 161.141 186.633 162.191 185.192C163.352 183.653 164.695 181.869 166.173 179.903C166.552 179.402 166.943 178.901 167.334 178.376C167.529 178.119 167.737 177.851 167.932 177.594L168.238 177.191C168.384 177.008 168.58 176.873 168.799 176.8C169.239 176.641 169.777 176.812 170.058 177.167L170.742 177.961C171.206 178.486 171.67 179.036 172.134 179.573C173.075 180.66 173.991 181.723 174.87 182.761C175.237 183.286 175.676 183.274 176.055 182.761C176.495 182.285 176.922 181.808 177.35 181.356C177.558 181.124 177.765 180.904 177.973 180.672C178.144 180.477 178.437 180.123 178.84 180.074C179.231 180.001 179.634 180.147 179.878 180.44C180.062 180.66 180.245 180.892 180.416 181.1C181.1 181.955 181.747 182.761 182.346 183.506C183.445 184.911 184.374 186.096 185.106 187.024C185.742 187.867 186.084 188.343 186.047 188.368L186.059 188.331Z" fill="#263238"/>
<path d="M178.058 174.711C178.058 174.711 177.985 174.479 177.851 174.101C177.729 173.734 177.448 173.209 176.886 172.818C176.348 172.427 175.481 172.22 174.65 172.537C173.832 172.83 173.136 173.698 173.148 174.711C173.148 175.725 173.832 176.593 174.65 176.886C175.469 177.203 176.336 176.996 176.886 176.605C177.448 176.214 177.729 175.689 177.851 175.322C177.985 174.943 177.997 174.711 178.058 174.711C178.095 174.711 178.156 174.943 178.095 175.383C178.034 175.811 177.79 176.446 177.167 176.971C176.556 177.484 175.505 177.814 174.467 177.448C173.429 177.118 172.513 176.018 172.525 174.724C172.513 173.429 173.429 172.329 174.467 172C175.518 171.633 176.568 171.951 177.167 172.476C177.79 172.989 178.034 173.636 178.095 174.064C178.156 174.492 178.095 174.736 178.058 174.736V174.711Z" fill="#263238"/>
<g opacity="0.4">
<path d="M211.943 244.532H106.368V326.556H211.943V244.532Z" fill="black"/>
</g>
<path d="M168.225 247.647H148.168L146.983 245.632C146.189 244.276 144.748 243.445 143.184 243.445H128.38C126.022 243.445 124.092 245.29 123.982 247.647H118.718C116.434 247.647 114.589 249.492 114.589 251.776V262H172.366V251.776C172.366 249.492 170.522 247.647 168.237 247.647H168.225Z" fill="#E0E0E0"/>
<path d="M178.816 247.647H158.759L157.574 245.632C156.78 244.276 155.338 243.445 153.775 243.445H138.97C136.613 243.445 134.683 245.29 134.573 247.647H129.308C127.024 247.647 125.179 249.492 125.179 251.776V262H182.956V251.776C182.956 249.492 181.112 247.647 178.828 247.647H178.816Z" fill="#EBEBEB"/>
<path d="M192.582 247.647H172.525L171.34 245.632C170.546 244.276 169.105 243.445 167.541 243.445H152.737C150.379 243.445 148.449 245.29 148.339 247.647H143.074C140.79 247.647 138.946 249.492 138.946 251.776V262H196.723V251.776C196.723 249.492 194.878 247.647 192.594 247.647H192.582Z" fill="#F5F5F5"/>
<path d="M146.031 301.015V251.837C146.031 249.589 148.022 247.769 150.465 247.769H154.703C156.438 247.769 158.001 246.853 158.734 245.412L159.65 243.604C160.371 242.163 161.947 241.247 163.681 241.247H183.799C185.363 241.247 186.816 242.004 187.61 243.238L188.6 244.765C189.394 245.998 190.847 246.756 192.423 246.756H218.062C220.505 246.756 222.497 248.576 222.497 250.823V301.003H146.043L146.031 301.015Z" fill="#D8E2FF"/>
<g opacity="0.3">
<path d="M146.031 301.015V251.837C146.031 249.589 148.022 247.769 150.465 247.769H154.703C156.438 247.769 158.001 246.853 158.734 245.412L159.65 243.604C160.371 242.163 161.947 241.247 163.681 241.247H183.799C185.363 241.247 186.816 242.004 187.61 243.238L188.6 244.765C189.394 245.998 190.847 246.756 192.423 246.756H218.062C220.505 246.756 222.497 248.576 222.497 250.823V301.003H146.043L146.031 301.015Z" fill="#005CBB"/>
</g>
<path d="M162.105 260.949V222.081C162.105 218.881 164.695 216.279 167.908 216.279H229.789C232.989 216.279 235.591 218.869 235.591 222.081V259.862L162.118 260.937L162.105 260.949Z" fill="white"/>
<path d="M164.524 272.285V223.107C164.524 220.86 166.515 219.04 168.958 219.04H173.197C174.931 219.04 176.495 218.124 177.228 216.682L178.144 214.874C178.864 213.433 180.44 212.517 182.175 212.517H202.293C203.856 212.517 205.31 213.274 206.104 214.508L207.093 216.035C207.887 217.269 209.341 218.026 210.917 218.026H236.556C238.999 218.026 240.99 219.846 240.99 222.093V272.273H164.536L164.524 272.285Z" fill="#005CBB"/>
<path d="M164.524 272.285C164.524 272.285 164.658 272.285 164.903 272.273C165.171 272.273 165.526 272.273 165.99 272.261C166.967 272.261 168.372 272.236 170.18 272.224C173.844 272.212 179.17 272.175 185.9 272.151C199.361 272.114 218.441 272.065 240.978 272.004L240.685 272.297C240.685 264.064 240.672 255.331 240.66 246.218C240.66 241.662 240.66 237.008 240.66 232.269C240.66 229.899 240.66 227.517 240.66 225.111V223.303C240.66 222.704 240.697 222.069 240.611 221.544C240.44 220.444 239.695 219.467 238.706 218.918C238.254 218.661 237.741 218.49 237.228 218.417C236.727 218.331 236.153 218.368 235.591 218.368C234.467 218.368 233.343 218.368 232.232 218.368C229.996 218.368 227.786 218.368 225.587 218.368C221.189 218.368 216.853 218.368 212.59 218.368H210.99C210.44 218.368 209.866 218.295 209.329 218.111C208.266 217.769 207.301 217.024 206.739 216.071L205.896 214.752C205.64 214.337 205.31 213.983 204.919 213.69C204.15 213.103 203.185 212.81 202.207 212.822C198.103 212.822 194.097 212.822 190.176 212.822C188.221 212.822 186.279 212.822 184.373 212.822C183.433 212.834 182.431 212.786 181.564 212.859C180.684 212.969 179.854 213.348 179.206 213.934C177.912 215.045 177.777 217.293 176.092 218.417C175.322 218.979 174.382 219.284 173.453 219.333C172.561 219.333 171.682 219.333 170.803 219.333C169.947 219.345 169.031 219.284 168.25 219.382C167.456 219.492 166.686 219.834 166.088 220.347C165.477 220.86 165.049 221.544 164.854 222.289C164.683 223.022 164.768 223.865 164.744 224.659C164.744 227.883 164.732 230.974 164.719 233.918C164.671 245.73 164.622 255.294 164.597 261.939C164.573 265.249 164.561 267.814 164.548 269.598C164.548 270.465 164.536 271.125 164.524 271.601C164.524 272.053 164.5 272.297 164.5 272.297C164.5 272.297 164.487 272.09 164.475 271.65C164.475 271.186 164.463 270.526 164.451 269.683C164.438 267.924 164.426 265.359 164.402 262.085C164.377 255.428 164.329 245.839 164.28 233.991C164.28 231.023 164.267 227.908 164.255 224.659C164.28 223.852 164.17 223.034 164.365 222.155C164.573 221.299 165.074 220.518 165.745 219.944C166.417 219.357 167.272 218.979 168.164 218.844C169.08 218.722 169.911 218.795 170.79 218.783C171.658 218.783 172.525 218.783 173.404 218.783C174.235 218.747 175.066 218.466 175.75 217.965C177.24 217.024 177.301 214.935 178.803 213.519C179.536 212.847 180.477 212.431 181.466 212.297C182.48 212.212 183.372 212.273 184.349 212.248C186.255 212.248 188.184 212.248 190.151 212.248C194.072 212.248 198.079 212.248 202.183 212.248C203.258 212.236 204.369 212.566 205.261 213.238C205.701 213.567 206.092 213.995 206.385 214.459L207.228 215.778C207.741 216.633 208.547 217.256 209.487 217.562C209.964 217.72 210.452 217.782 210.953 217.782H212.553C216.816 217.782 221.153 217.782 225.55 217.782C227.749 217.782 229.972 217.782 232.195 217.782C233.307 217.782 234.431 217.782 235.554 217.782C236.104 217.782 236.678 217.757 237.289 217.843C237.887 217.928 238.461 218.124 238.987 218.417C240.123 219.04 241.002 220.176 241.21 221.495C241.308 222.167 241.259 222.753 241.271 223.352V225.159C241.271 227.566 241.271 229.948 241.271 232.317C241.271 237.045 241.271 241.699 241.271 246.267C241.271 255.379 241.259 264.125 241.247 272.346V272.639H240.953C218.331 272.578 199.202 272.529 185.68 272.493C178.987 272.456 173.673 272.432 170.021 272.419C168.237 272.407 166.857 272.395 165.892 272.383C165.44 272.383 165.098 272.37 164.842 272.37C164.609 272.37 164.487 272.37 164.5 272.358L164.524 272.285Z" fill="#263238"/>
<path d="M199.484 216.939C199.484 217.11 195.843 217.256 191.361 217.256C186.878 217.256 183.238 217.11 183.238 216.939C183.238 216.768 186.878 216.621 191.361 216.621C195.843 216.621 199.484 216.768 199.484 216.939Z" fill="white"/>
<path d="M188.319 292.953V243.775C188.319 241.528 190.566 239.708 193.327 239.708H198.115C200.07 239.708 201.841 238.791 202.659 237.35L203.685 235.542C204.504 234.101 206.275 233.185 208.229 233.185H230.962C232.733 233.185 234.369 233.942 235.273 235.176L236.385 236.703C237.289 237.936 238.926 238.694 240.697 238.694H269.683C272.456 238.694 274.691 240.514 274.691 242.761V292.941H188.282L188.319 292.953Z" fill="#005CBB"/>
<path d="M188.319 292.953C188.319 292.953 188.465 292.953 188.746 292.941C189.052 292.941 189.455 292.941 189.98 292.928C191.079 292.928 192.68 292.904 194.744 292.892C198.909 292.867 204.956 292.843 212.578 292.818C227.834 292.782 249.394 292.733 274.716 292.672L274.423 292.965C274.423 284.634 274.422 275.901 274.41 266.849C274.41 262.318 274.41 257.712 274.41 253.034C274.41 250.701 274.41 248.344 274.41 245.974C274.41 244.801 274.435 243.567 274.386 242.444C274.276 241.357 273.531 240.404 272.578 239.817C271.601 239.219 270.453 238.987 269.268 239.036C268.058 239.036 266.861 239.036 265.664 239.036C263.27 239.036 260.888 239.036 258.531 239.036C253.804 239.036 249.15 239.036 244.569 239.036C243.421 239.036 242.285 239.036 241.149 239.036C240.001 239.085 238.767 238.865 237.741 238.266C237.216 237.973 236.751 237.594 236.36 237.142C235.994 236.666 235.689 236.238 235.359 235.774C234.773 234.846 233.954 234.199 232.965 233.844C231.988 233.453 230.937 233.49 229.825 233.502C228.738 233.502 227.651 233.502 226.576 233.502C224.426 233.502 222.289 233.502 220.188 233.502C215.986 233.502 211.894 233.502 207.912 233.502C206.959 233.551 206.031 233.844 205.261 234.345C204.87 234.602 204.528 234.907 204.247 235.261C203.978 235.603 203.759 236.055 203.514 236.471C203.27 236.898 203.05 237.301 202.781 237.729C202.5 238.156 202.146 238.523 201.743 238.828C200.937 239.439 199.984 239.793 199.031 239.927C197.089 240.05 195.306 239.952 193.486 239.988C191.763 239.952 190.004 240.673 189.101 242.065C188.636 242.761 188.539 243.531 188.575 244.398C188.575 245.241 188.575 246.084 188.575 246.914C188.575 248.576 188.575 250.2 188.575 251.776C188.526 264.455 188.478 274.728 188.453 281.849C188.429 285.404 188.417 288.165 188.404 290.07C188.404 290.998 188.392 291.707 188.38 292.22C188.38 292.708 188.355 292.965 188.355 292.965C188.355 292.965 188.343 292.733 188.331 292.257C188.331 291.756 188.319 291.059 188.307 290.143C188.294 288.25 188.27 285.502 188.258 281.984C188.233 274.838 188.184 264.541 188.136 251.813C188.136 250.212 188.136 248.588 188.136 246.914C188.136 246.084 188.136 245.241 188.136 244.386C188.087 243.567 188.209 242.541 188.734 241.784C189.748 240.208 191.678 239.427 193.522 239.463C195.306 239.439 197.199 239.512 198.995 239.39C199.874 239.268 200.741 238.938 201.462 238.388C202.207 237.863 202.598 237.032 203.087 236.177C203.331 235.762 203.539 235.322 203.869 234.907C204.186 234.492 204.577 234.15 205.017 233.869C205.884 233.295 206.91 232.989 207.948 232.928C211.943 232.928 216.047 232.916 220.249 232.904C222.35 232.904 224.475 232.904 226.637 232.904C227.712 232.904 228.799 232.904 229.887 232.904C230.949 232.904 232.146 232.843 233.233 233.282C234.321 233.649 235.322 234.467 235.921 235.42C236.251 235.86 236.58 236.336 236.898 236.752C237.228 237.142 237.643 237.484 238.107 237.741C239.036 238.266 240.098 238.462 241.222 238.425C242.358 238.425 243.494 238.425 244.642 238.425C249.223 238.425 253.877 238.425 258.604 238.425C260.962 238.425 263.343 238.425 265.738 238.425C266.935 238.425 268.132 238.425 269.341 238.425C270.563 238.376 271.894 238.62 272.981 239.304C274.056 239.964 274.948 241.076 275.094 242.395C275.143 243.653 275.107 244.801 275.119 245.998C275.119 248.368 275.119 250.725 275.119 253.059C275.119 257.737 275.119 262.342 275.119 266.874C275.119 275.925 275.107 284.671 275.107 292.989V293.283H274.813C249.406 293.222 227.786 293.173 212.48 293.136C204.882 293.099 198.86 293.075 194.707 293.063C192.667 293.051 191.092 293.038 190.005 293.026C189.491 293.026 189.101 293.014 188.807 293.014C188.539 293.014 188.404 293.014 188.417 293.002L188.319 292.953Z" fill="#263238"/>
<path d="M229.996 238.278C229.996 238.449 225.196 238.596 219.272 238.596C213.347 238.596 208.547 238.449 208.547 238.278C208.547 238.107 213.347 237.961 219.272 237.961C225.196 237.961 229.996 238.107 229.996 238.278Z" fill="white"/>
<path d="M183.201 260.925H106.368V327.155H183.201V260.925Z" fill="#455A64"/>
<g opacity="0.3">
<path d="M183.201 260.925H106.368V327.155H183.201V260.925Z" fill="black"/>
</g>
<path d="M304.313 243.445H183.201V329.512H304.313V243.445Z" fill="#455A64"/>
<path d="M304.301 329.512C304.301 329.512 304.276 328.963 304.276 327.937C304.276 326.886 304.264 325.359 304.252 323.368C304.24 319.362 304.215 313.498 304.191 306.011C304.154 291.035 304.117 269.549 304.056 243.458L304.313 243.714C270.526 243.726 228.567 243.751 183.213 243.775L183.531 243.458C183.531 274.264 183.506 303.507 183.506 329.525L183.213 329.231C218.954 329.293 249.199 329.341 270.514 329.378C281.178 329.415 289.618 329.439 295.396 329.451C298.279 329.464 300.49 329.476 302.016 329.488C302.761 329.488 303.323 329.5 303.726 329.5C304.117 329.5 304.313 329.512 304.313 329.512C304.313 329.512 304.13 329.512 303.751 329.525C303.36 329.525 302.798 329.525 302.077 329.537C300.575 329.537 298.376 329.561 295.518 329.573C289.752 329.586 281.336 329.622 270.697 329.647C249.333 329.683 219.028 329.732 183.201 329.793H182.908V329.5C182.908 303.482 182.883 274.252 182.883 243.433V243.116H183.201C228.555 243.14 270.514 243.164 304.301 243.177H304.557V243.433C304.496 269.598 304.459 291.133 304.423 306.145C304.398 313.608 304.374 319.447 304.362 323.442C304.349 325.408 304.337 326.923 304.337 327.961C304.337 328.975 304.313 329.488 304.313 329.488L304.301 329.512Z" fill="#263238"/>
<g opacity="0.3">
<path d="M278.38 300.147H222.191V308.49H278.38V300.147Z" fill="black"/>
</g>
<path d="M261.169 267.863H235.75C234.07 267.863 232.708 269.225 232.708 270.905V288.959C232.708 290.638 234.07 292 235.75 292H261.169C262.849 292 264.211 290.638 264.211 288.959V270.905C264.211 269.225 262.849 267.863 261.169 267.863Z" fill="white"/>
<path d="M239.39 275.009H245.839V277.171H245.546C245.449 276.401 245.155 275.876 244.679 275.607C244.41 275.461 244.007 275.375 243.482 275.363V281.007C243.482 281.397 243.555 281.666 243.69 281.788C243.824 281.923 244.117 281.984 244.545 281.984V282.252H240.734V281.984C241.149 281.984 241.43 281.923 241.564 281.788C241.699 281.654 241.772 281.397 241.772 281.007V275.363C241.247 275.375 240.843 275.461 240.575 275.607C240.062 275.888 239.769 276.414 239.707 277.171H239.402V275.009H239.39Z" fill="#263238"/>
<path d="M257.81 275.583C257.81 275.754 255.551 275.901 252.753 275.901C249.956 275.901 247.696 275.754 247.696 275.583C247.696 275.412 249.956 275.265 252.753 275.265C255.551 275.265 257.81 275.412 257.81 275.583Z" fill="#263238"/>
<path d="M258.006 280.09C258.006 280.261 255.746 280.408 252.949 280.408C250.151 280.408 247.892 280.261 247.892 280.09C247.892 279.919 250.151 279.773 252.949 279.773C255.746 279.773 258.006 279.919 258.006 280.09Z" fill="#263238"/>
<path d="M259.361 284.61C259.361 284.781 255.147 284.928 249.944 284.928C244.74 284.928 240.526 284.781 240.526 284.61C240.526 284.439 244.74 284.292 249.944 284.292C255.147 284.292 259.361 284.439 259.361 284.61Z" fill="#263238"/>
<path d="M228.885 425.364C228.885 425.364 228.861 424.814 228.861 423.788C228.861 422.737 228.848 421.21 228.836 419.219C228.824 415.213 228.8 409.35 228.775 401.862C228.738 386.886 228.702 365.4 228.641 339.309L228.897 339.565C195.111 339.577 153.152 339.602 107.798 339.626L108.115 339.309C108.115 370.115 108.091 399.358 108.091 425.376L107.798 425.083C143.539 425.144 173.783 425.193 195.098 425.229C205.762 425.266 214.203 425.29 219.98 425.302C222.863 425.315 225.074 425.327 226.601 425.339C227.346 425.339 227.908 425.351 228.311 425.351C228.702 425.351 228.897 425.364 228.897 425.364C228.897 425.364 228.714 425.364 228.335 425.376C227.944 425.376 227.383 425.376 226.662 425.388C225.159 425.388 222.961 425.412 220.102 425.425C214.337 425.437 205.921 425.473 195.282 425.498C173.917 425.535 143.612 425.583 107.785 425.645H107.492V425.351C107.492 399.333 107.468 370.103 107.468 339.284V338.967H107.785C153.14 338.991 195.098 339.016 228.885 339.028H229.142V339.284C229.08 365.449 229.044 386.984 229.007 401.996C228.983 409.46 228.958 415.298 228.946 419.293C228.934 421.259 228.922 422.774 228.922 423.812C228.922 424.826 228.897 425.339 228.897 425.339L228.885 425.364Z" fill="#263238"/>
<g opacity="0.3">
<path d="M196.051 392.212H144.821V400.555H196.051V392.212Z" fill="black"/>
</g>
<path d="M184.032 359.781H158.612C156.932 359.781 155.571 361.143 155.571 362.823V380.876C155.571 382.556 156.932 383.918 158.612 383.918H184.032C185.711 383.918 187.073 382.556 187.073 380.876V362.823C187.073 361.143 185.711 359.781 184.032 359.781Z" fill="white"/>
<path d="M169.129 375.453C168.653 376.369 167.529 376.723 166.625 376.247C165.709 375.771 165.355 374.647 165.831 373.743C166.308 372.827 167.431 372.473 168.335 372.949C169.251 373.425 169.606 374.549 169.129 375.453Z" fill="#263238"/>
<path d="M169.178 374.781C169.007 374.818 168.579 372.888 168.567 370.481C168.555 368.087 168.616 366.17 168.775 366.157C168.958 366.145 169.202 368.087 169.215 370.469C169.227 372.839 169.361 374.757 169.19 374.781H169.178Z" fill="#263238"/>
<path d="M174.699 367.245C174.76 367.379 173.38 368.087 171.511 367.916C170.583 367.831 169.777 367.501 169.288 367.11C168.787 366.731 168.653 366.328 168.714 366.292C168.799 366.231 169.044 366.487 169.532 366.719C170.021 366.964 170.742 367.183 171.572 367.269C173.258 367.44 174.638 367.049 174.699 367.245Z" fill="#263238"/>
<path d="M175.053 376.54C174.577 377.456 173.453 377.81 172.549 377.334C171.633 376.858 171.279 375.734 171.755 374.83C172.232 373.914 173.356 373.56 174.26 374.036C175.176 374.512 175.53 375.636 175.053 376.54Z" fill="#263238"/>
<path d="M175.102 375.868C174.931 375.905 174.504 373.975 174.492 371.569C174.479 369.174 174.54 367.257 174.699 367.244C174.882 367.232 175.127 369.174 175.139 371.556C175.163 373.926 175.285 375.844 175.114 375.868H175.102Z" fill="#263238"/>
<path d="M174.76 368.515C174.846 368.661 173.576 369.419 171.817 369.321C170.058 369.236 168.873 368.332 168.97 368.21C169.056 368.039 170.265 368.613 171.853 368.686C173.441 368.784 174.687 368.356 174.76 368.527V368.515Z" fill="#263238"/>
<path d="M228.885 519.041C228.885 519.041 228.861 518.491 228.861 517.465C228.861 516.414 228.848 514.887 228.836 512.896C228.824 508.89 228.8 503.027 228.775 495.539C228.738 480.563 228.702 459.077 228.641 432.986L228.897 433.242C195.111 433.254 153.152 433.279 107.798 433.303L108.115 432.986C108.115 463.792 108.091 493.035 108.091 519.053L107.798 518.76C143.539 518.821 173.783 518.87 195.098 518.906C205.762 518.943 214.203 518.967 219.98 518.979C222.863 518.992 225.074 519.004 226.601 519.016C227.346 519.016 227.908 519.028 228.311 519.028C228.702 519.028 228.897 519.041 228.897 519.041C228.897 519.041 228.714 519.041 228.335 519.053C227.944 519.053 227.383 519.053 226.662 519.065C225.159 519.065 222.961 519.089 220.102 519.102C214.337 519.114 205.921 519.15 195.282 519.175C173.917 519.212 143.612 519.26 107.785 519.322H107.492V519.028C107.492 493.01 107.468 463.78 107.468 432.961V432.644H107.785C153.14 432.668 195.098 432.693 228.885 432.705H229.142V432.961C229.08 459.126 229.044 480.661 229.007 495.673C228.983 503.137 228.958 508.975 228.946 512.97C228.934 514.936 228.922 516.451 228.922 517.489C228.922 518.503 228.897 519.016 228.897 519.016L228.885 519.041Z" fill="#263238"/>
<g opacity="0.3">
<path d="M196.051 485.877H144.821V494.22H196.051V485.877Z" fill="black"/>
</g>
<path d="M184.032 453.141H158.612C156.932 453.141 155.571 454.502 155.571 456.182V474.236C155.571 475.916 156.932 477.277 158.612 477.277H184.032C185.711 477.277 187.073 475.916 187.073 474.236V456.182C187.073 454.502 185.711 453.141 184.032 453.141Z" fill="white"/>
<path d="M173.014 462.558L175.505 464C175.982 464.281 175.994 464.965 175.518 465.246L173.026 466.772L170.595 468.263C170.106 468.556 169.483 468.214 169.483 467.64V464.708V461.752C169.483 461.19 170.094 460.836 170.571 461.117L173.014 462.534V462.558Z" fill="#263238"/>
<path d="M406.748 108.677C406.748 110.925 404.928 112.732 402.692 112.732C400.457 112.732 398.637 110.912 398.637 108.677C398.637 106.442 400.457 104.622 402.692 104.622C404.928 104.622 406.748 106.442 406.748 108.677Z" fill="white"/>
<path d="M406.748 108.677C406.748 108.677 406.687 108.311 406.504 107.712C406.32 107.126 405.905 106.271 405.013 105.623C404.146 104.976 402.754 104.622 401.41 105.135C400.079 105.599 398.942 107.016 398.955 108.665C398.942 110.314 400.079 111.731 401.41 112.207C402.754 112.72 404.146 112.366 405.013 111.719C405.905 111.071 406.32 110.216 406.504 109.63C406.687 109.031 406.699 108.665 406.748 108.665C406.772 108.665 406.858 109.031 406.748 109.691C406.626 110.338 406.247 111.303 405.294 112.073C404.366 112.842 402.79 113.307 401.214 112.757C399.663 112.256 398.307 110.607 398.32 108.665C398.307 106.735 399.663 105.086 401.214 104.573C402.778 104.011 404.366 104.487 405.294 105.257C406.247 106.026 406.638 106.991 406.76 107.639C406.882 108.298 406.797 108.665 406.76 108.665L406.748 108.677Z" fill="#263238"/>
<path d="M441.915 114.259C460.447 114.259 475.47 99.2363 475.47 80.7046C475.47 62.1729 460.447 47.15 441.915 47.15C423.383 47.15 408.36 62.1729 408.36 80.7046C408.36 99.2363 423.383 114.259 441.915 114.259Z" fill="white"/>
<path d="M475.47 80.7046C475.47 80.7046 475.433 80.5214 475.409 80.1672C475.384 79.7763 475.347 79.251 475.299 78.5792C475.274 78.225 475.25 77.8341 475.225 77.4066C475.176 76.9791 475.091 76.5149 475.005 76.0019C474.847 74.988 474.688 73.8154 474.297 72.545C473.698 69.9554 472.489 66.9017 470.571 63.6647C468.641 60.4399 465.856 57.0686 462.082 54.2103C458.308 51.3764 453.556 48.97 448.059 48.005C442.599 47.0645 436.443 47.2355 430.579 49.4708C429.089 49.9472 427.685 50.6923 426.243 51.3764C425.547 51.755 424.863 52.207 424.167 52.6101C423.458 53.001 422.811 53.5018 422.163 53.9904C420.807 54.9187 419.635 56.0792 418.389 57.2029C417.265 58.4367 416.092 59.6582 415.127 61.0629C413.149 63.8113 411.426 66.865 410.376 70.2242C409.289 73.5589 408.715 77.1012 408.666 80.7169C408.715 84.3203 409.301 87.8748 410.376 91.2095C411.426 94.5687 413.149 97.6224 415.127 100.371C416.092 101.776 417.265 102.985 418.389 104.231C419.623 105.355 420.807 106.515 422.163 107.443C422.811 107.944 423.458 108.433 424.167 108.824C424.863 109.239 425.535 109.679 426.243 110.057C427.685 110.754 429.089 111.486 430.579 111.963C436.443 114.186 442.599 114.357 448.059 113.429C453.556 112.451 458.308 110.045 462.082 107.223C465.869 104.365 468.641 100.994 470.571 97.769C472.489 94.532 473.698 91.4783 474.297 88.8887C474.688 87.6183 474.834 86.4457 475.005 85.4319C475.079 84.931 475.176 84.4669 475.225 84.0271C475.25 83.5996 475.274 83.2087 475.299 82.8545C475.347 82.1827 475.384 81.6452 475.409 81.2665C475.433 80.9123 475.457 80.7291 475.47 80.7291C475.482 80.7291 475.482 80.9123 475.47 81.2787C475.47 81.6696 475.445 82.1949 475.421 82.8789C475.409 83.2331 475.396 83.624 475.372 84.0638C475.335 84.4913 475.25 84.9677 475.189 85.4685C475.042 86.4823 474.908 87.6672 474.541 88.962C473.979 91.576 472.782 94.6786 470.877 97.9645C468.959 101.238 466.162 104.671 462.351 107.59C458.552 110.485 453.727 112.952 448.157 113.966C442.623 114.943 436.357 114.785 430.384 112.537C428.869 112.048 427.428 111.303 425.962 110.607C425.241 110.216 424.557 109.776 423.849 109.349C423.128 108.946 422.469 108.445 421.809 107.944C420.429 107.004 419.219 105.819 417.961 104.683C416.813 103.425 415.616 102.191 414.639 100.762C412.623 97.9645 410.852 94.8496 409.79 91.4294C408.678 88.0336 408.092 84.418 408.043 80.7413C408.092 77.0646 408.69 73.4489 409.79 70.0531C410.852 66.6329 412.623 63.5181 414.639 60.7209C415.628 59.2917 416.825 58.058 417.961 56.7998C419.219 55.6638 420.429 54.479 421.809 53.5384C422.469 53.0376 423.128 52.5368 423.849 52.1337C424.557 51.7184 425.241 51.2664 425.962 50.8756C427.428 50.1671 428.857 49.422 430.384 48.9456C436.357 46.698 442.623 46.5392 448.157 47.5164C453.727 48.5303 458.552 50.9977 462.351 53.8805C466.174 56.7998 468.959 60.2323 470.877 63.5059C472.782 66.7917 473.979 69.8943 474.541 72.5084C474.92 73.8032 475.054 74.9758 475.189 76.0019C475.262 76.5149 475.335 76.9791 475.372 77.4188C475.384 77.8463 475.409 78.2372 475.421 78.6037C475.445 79.2877 475.457 79.8129 475.47 80.2038C475.47 80.5581 475.47 80.7535 475.47 80.7535V80.7046Z" fill="#263238"/>
<path d="M440.107 87.6428C434.513 87.6428 429.956 83.0866 429.956 77.4921C429.956 71.8976 434.513 67.3414 440.107 67.3414C445.702 67.3414 450.258 71.8976 450.258 77.4921C450.258 83.0866 445.702 87.6428 440.107 87.6428ZM440.107 68.5507C435.184 68.5507 431.178 72.5572 431.178 77.4799C431.178 82.4025 435.184 86.409 440.107 86.409C445.03 86.409 449.036 82.4025 449.036 77.4799C449.036 72.5572 445.03 68.5507 440.107 68.5507Z" fill="#263238"/>
<path d="M445.891 85.1029L444.902 85.8206L450.722 93.837L451.711 93.1194L445.891 85.1029Z" fill="#263238"/>
<path d="M435.258 73.7421C434.232 75.0735 433.816 76.8569 434.158 78.5059C434.5 80.1549 435.588 81.633 437.053 82.4392" fill="white"/>
<path d="M437.053 82.4392C437.017 82.5124 436.443 82.3414 435.71 81.7307C434.989 81.1322 434.146 80.0206 433.841 78.567C433.548 77.1134 433.877 75.7575 434.305 74.9269C434.733 74.0719 435.197 73.6932 435.258 73.7421C435.343 73.8031 435.013 74.2673 434.72 75.0979C434.427 75.9163 434.195 77.1378 434.464 78.4326C434.733 79.7274 435.429 80.7657 436.015 81.4009C436.614 82.0483 437.09 82.3537 437.041 82.4392H437.053Z" fill="#263238"/>
<path d="M405.319 191.251C403.487 158.539 388.878 143.319 384.59 117.753C382.44 104.915 382.99 91.7714 373.89 82.4758C370.616 79.1289 364.509 75.6843 359.855 75.0979C357.314 74.7804 353.356 74.8781 351.048 75.9652C346.736 75.33 344.806 75.1224 341.776 75.9652C338.185 76.9668 333.201 79.7274 330.844 82.6102C324.358 90.5255 323.014 101.421 322.916 111.645C322.758 128.172 325.14 144.711 329.745 160.579C330.184 162.093 330.722 163.706 332.017 164.597C333.421 165.55 335.278 165.367 336.951 165.098C343.242 164.097 349.435 162.484 355.421 160.285C356.263 159.98 357.131 159.638 357.766 158.991C359.415 157.305 358.719 154.52 357.961 152.285L374.537 138.103C373.438 147.961 370.262 157.488 368.857 167.309C367.184 179.048 368.075 191.141 371.471 202.501C377.884 201.157 384.553 201.01 391.015 202.061C392.579 202.317 395.095 214.606 396.487 213.836C398.869 212.505 405.49 193.926 405.331 191.202L405.319 191.251Z" fill="#263238"/>
<path d="M346.491 83.0133L351.194 82.488L369.15 89.7315C371.752 89.8781 373.804 91.9791 373.89 94.5809L373.731 153.103C373.755 157.073 372.961 160.505 370.567 163.669L368.039 167.004C362.285 174.601 350.461 173.979 345.905 165.611C345.587 165.025 345.368 164.512 345.27 164.097C345.172 163.571 345.026 163.229 345.001 162.79C344.183 158.294 344.439 153.995 344.439 153.995C344.122 148.828 344.012 146.702 344.012 146.751C344.012 146.751 333.006 145.481 330.038 131.36C328.56 124.337 328.328 112.708 328.45 103.192C328.56 94.6298 335.913 82.9889 346.491 83.0011V83.0133Z" fill="#D8E2FF"/>
<path d="M331.858 114.32C331.87 115.285 332.701 116.067 333.714 116.079C334.716 116.079 335.522 115.31 335.51 114.345C335.498 113.38 334.667 112.598 333.666 112.586C332.652 112.586 331.846 113.368 331.87 114.333L331.858 114.32Z" fill="#263238"/>
<path d="M350.131 113.172C350.144 114.137 350.974 114.919 351.988 114.931C352.99 114.931 353.796 114.162 353.784 113.197C353.772 112.232 352.941 111.45 351.939 111.438C350.925 111.438 350.119 112.207 350.144 113.184L350.131 113.172Z" fill="#263238"/>
<path d="M331.186 109.068C331.418 109.3 332.762 108.201 334.716 108.103C336.683 107.981 338.173 108.921 338.368 108.665C338.466 108.555 338.21 108.14 337.562 107.712C336.927 107.285 335.84 106.894 334.618 106.967C333.397 107.04 332.383 107.541 331.821 108.03C331.235 108.518 331.052 108.97 331.174 109.068H331.186Z" fill="#263238"/>
<path d="M349.826 108.054C350.07 108.274 351.377 107.138 353.332 106.991C355.286 106.808 356.813 107.712 356.996 107.456C357.094 107.346 356.825 106.93 356.166 106.527C355.518 106.124 354.431 105.758 353.21 105.868C351.988 105.978 350.999 106.503 350.437 107.004C349.875 107.517 349.704 107.956 349.814 108.054H349.826Z" fill="#263238"/>
<path d="M344.256 123.372C344.256 123.262 343.022 123.115 341.031 122.956C340.53 122.932 340.042 122.859 339.944 122.517C339.81 122.162 339.993 121.613 340.201 121.014C340.616 119.78 341.043 118.473 341.495 117.118C343.279 111.572 344.549 107.028 344.329 106.955C344.109 106.881 342.473 111.315 340.689 116.861C340.262 118.229 339.846 119.524 339.456 120.77C339.297 121.344 339.004 122.016 339.297 122.749C339.456 123.115 339.834 123.372 340.164 123.445C340.494 123.531 340.775 123.518 341.019 123.518C343.01 123.518 344.256 123.469 344.256 123.359V123.372Z" fill="#263238"/>
<path d="M344.061 146.69C344.061 146.69 353.662 146.825 362.872 140.644C362.872 140.644 358.572 150.733 344.256 150.123L344.061 146.69Z" fill="#D7E3FF"/>
<path d="M345.319 128.062C345.978 127.097 347.188 126.523 348.421 126.584C349.276 126.633 350.156 127 350.718 127.671C351.267 128.343 351.426 129.32 350.986 130.004C350.498 130.774 349.399 131.006 348.446 130.786C347.493 130.566 346.662 129.992 345.856 129.418C345.636 129.259 345.416 129.088 345.27 128.868C345.123 128.636 345.087 128.343 345.233 128.136" fill="#D7E3FF"/>
<path d="M350.107 124.447C349.789 124.447 349.887 126.572 348.14 128.184C346.394 129.797 344.109 129.675 344.109 129.968C344.085 130.102 344.635 130.359 345.6 130.334C346.54 130.322 347.896 129.943 348.971 128.966C350.034 127.977 350.449 126.719 350.486 125.839C350.522 124.947 350.254 124.422 350.107 124.447Z" fill="#263238"/>
<path d="M349.814 100.92C350.107 101.397 351.744 100.737 353.796 100.517C355.848 100.249 357.619 100.517 357.766 99.9922C357.827 99.7356 357.424 99.3203 356.654 98.9783C355.885 98.6363 354.749 98.4042 353.515 98.5508C352.281 98.6974 351.243 99.1737 350.596 99.6868C349.948 100.2 349.679 100.701 349.814 100.92Z" fill="#263238"/>
<path d="M330.758 101.617C331.125 102.044 332.456 101.519 334.081 101.409C335.706 101.25 337.098 101.556 337.391 101.079C337.513 100.847 337.281 100.407 336.658 100.017C336.048 99.6257 335.034 99.3325 333.922 99.4181C332.811 99.5158 331.858 99.9677 331.32 100.444C330.771 100.933 330.6 101.397 330.771 101.605L330.758 101.617Z" fill="#263238"/>
<path d="M371.105 118.571C371.056 117.509 372.155 114.956 373.193 114.736C375.966 114.162 381.023 114.137 381.414 121.234C381.964 130.933 372.106 129.491 372.082 129.21C372.057 128.991 371.276 122.236 371.105 118.583V118.571Z" fill="#D8E2FF"/>
<path d="M374.842 125.363C374.842 125.363 375.013 125.473 375.307 125.583C375.588 125.693 376.076 125.754 376.577 125.534C377.579 125.094 378.348 123.421 378.299 121.674C378.275 120.794 378.043 119.964 377.689 119.28C377.347 118.583 376.87 118.119 376.345 118.058C375.82 117.973 375.478 118.302 375.368 118.583C375.258 118.864 375.331 119.048 375.27 119.072C375.246 119.096 375.05 118.925 375.111 118.522C375.136 118.327 375.246 118.095 375.453 117.887C375.673 117.68 376.015 117.57 376.369 117.582C377.127 117.582 377.835 118.241 378.226 118.987C378.654 119.732 378.934 120.66 378.971 121.662C379.02 123.616 378.128 125.509 376.748 125.986C376.076 126.206 375.49 126.035 375.184 125.815C374.867 125.595 374.806 125.375 374.842 125.363Z" fill="#D7E3FF"/>
<path d="M376.272 104.023C376.943 100.163 375.49 94.7275 374.488 90.953C373.621 87.7038 371.264 85.1753 368.674 83.3309C364.362 80.2649 359.183 78.6892 354.04 78.909L352.098 79.5564C349.228 79.3243 346.162 79.9229 344.586 82.2437L344.525 82.3048V79.6419C339.309 80.2893 334.741 83.7462 331.711 88.0459C328.682 92.3456 326.996 97.4392 325.628 102.508C332.041 96.7674 338.991 90.4278 344.342 83.6607C349.948 91.0263 358.242 95.7047 365.828 101.189C367.171 104.365 367.526 108.03 367.501 112.329C367.465 121.857 369.517 130.469 370.262 139.984C370.689 145.456 370.653 150.159 376.259 149.671C376.992 132.118 373.242 121.283 376.259 104.023H376.272Z" fill="#263238"/>
<path d="M382.636 103.29C382.636 103.363 381.634 103.62 379.948 103.779C378.263 103.938 375.905 103.95 373.352 103.522C370.799 103.095 368.564 102.337 367.013 101.69C365.449 101.043 364.545 100.542 364.57 100.469C364.655 100.249 368.454 102.032 373.462 102.899C378.482 103.754 382.623 103.083 382.648 103.302L382.636 103.29Z" fill="#455A64"/>
<path d="M381.158 98.0744C381.158 98.0744 380.596 98.0744 379.606 97.9767C378.617 97.879 377.176 97.6713 375.417 97.3415C371.899 96.6941 367.098 95.436 362.029 93.3961C356.96 91.3317 352.636 88.8887 349.667 86.8977C348.177 85.9082 347.004 85.0654 346.223 84.4424C345.441 83.8195 345.013 83.4652 345.038 83.4286C345.062 83.392 345.539 83.6851 346.357 84.2348C347.175 84.7967 348.385 85.5784 349.899 86.519C352.917 88.3879 357.241 90.7576 362.261 92.7975C367.281 94.8252 372.033 96.1444 375.502 96.9018C377.237 97.2804 378.654 97.5614 379.631 97.7324C380.608 97.9156 381.145 98.0255 381.145 98.0744H381.158Z" fill="#455A64"/>
<path d="M328.389 99.2104C328.511 99.3326 327.509 100.505 326.153 101.824C324.798 103.144 323.6 104.096 323.478 103.974C323.356 103.852 324.358 102.679 325.714 101.36C327.07 100.041 328.267 99.0883 328.389 99.2104Z" fill="#455A64"/>
<path d="M344.17 163.62C345.245 161.727 344.427 153.983 344.427 153.983L341.923 158.514C336.597 160.579 329.293 163.522 327.24 164.964C324.174 167.114 320.021 176.177 320.021 176.177L294.431 208.645L246.414 200.241L241.894 224.317L258.103 227.676L286.577 231.377C294.577 233.099 302.358 233.747 308.637 228.482L309.064 227.651C306.805 260.021 309.919 295.701 310.982 328.132C311.068 330.673 311.178 333.299 312.338 335.559C313.963 338.759 320.021 340.433 323.588 339.968C327.155 339.504 326.019 337.22 326.776 333.702C327.192 331.784 325.396 329.121 325.152 327.179C321.658 299.011 318.177 270.844 314.683 242.676C314.573 240.941 314.451 239.329 314.329 237.9C313.095 223.01 312.924 218.979 313.572 212.163C314.586 201.609 336.841 176.397 344.158 163.608L344.17 163.62Z" fill="#005CBB"/>
<path d="M317.358 184.667C317.358 184.667 317.139 185.204 316.626 186.132C316.113 187.049 315.416 188.392 314.598 190.078C312.973 193.437 311.056 198.262 309.749 203.808C308.454 209.365 308.026 214.532 308.002 218.27C307.977 220.139 308.002 221.654 308.063 222.704C308.112 223.755 308.112 224.329 308.063 224.341C308.014 224.341 307.929 223.767 307.806 222.729C307.672 221.69 307.574 220.164 307.538 218.282C307.452 214.52 307.819 209.292 309.126 203.673C310.445 198.067 312.448 193.217 314.195 189.882C315.062 188.209 315.832 186.89 316.406 186.01C316.98 185.131 317.31 184.654 317.346 184.679L317.358 184.667Z" fill="#263238"/>
<g opacity="0.3">
<path d="M313.963 190.273C310.213 195.685 306.756 201.499 305.107 207.9C303.458 214.288 304.496 217.928 304.349 224.659L308.197 225.526C307.342 213.482 307.745 205.518 313.95 190.286L313.963 190.273Z" fill="black"/>
</g>
<path d="M312.558 207.9C312.558 207.9 312.558 207.68 312.607 207.264C312.68 206.861 312.717 206.238 312.9 205.469C313.254 203.93 313.853 201.719 314.854 199.08C316.784 193.779 320.033 186.694 323.967 179.048C325.09 176.873 326.202 174.773 327.301 172.769L327.387 172.61H327.57C328.963 172.586 330.306 172.549 331.613 172.525L331.345 172.94C331.003 172.183 330.441 171.572 329.769 171.157L329.488 170.986L329.696 170.729C333.018 166.759 336.121 163.693 338.368 161.629C339.492 160.603 340.408 159.809 341.043 159.284C341.678 158.759 342.033 158.502 342.057 158.527C342.082 158.551 341.764 158.856 341.165 159.418C340.506 160.041 339.651 160.86 338.6 161.873C336.414 163.999 333.397 167.114 330.135 171.096L330.062 170.668C330.832 171.12 331.479 171.829 331.882 172.696L332.065 173.099H331.613C330.306 173.148 328.963 173.185 327.57 173.209L327.839 173.05C326.752 175.041 325.652 177.154 324.529 179.316C320.608 186.939 317.297 193.975 315.27 199.215C314.219 201.817 313.56 203.991 313.132 205.505C312.753 207.02 312.607 207.887 312.546 207.875L312.558 207.9Z" fill="#263238"/>
<path d="M361.235 498.703L376.98 524.049C376.98 524.049 356.495 548.576 358.951 553.536L409.203 524.769L386.288 484.264L361.235 498.703Z" fill="#D7E3FF"/>
<path d="M391.272 512.97C392.395 512.677 393.69 513.385 394.032 514.497C394.374 515.608 393.666 516.94 392.542 517.245C391.418 517.55 389.842 516.756 389.623 515.608C389.415 514.46 390.331 512.958 391.491 512.921" fill="#E0E0E0"/>
<g opacity="0.6">
<path d="M409.203 524.769L406.736 520.775L359.476 549.859C359.476 549.859 357.79 552.119 358.951 553.548L409.203 524.782V524.769Z" fill="white"/>
</g>
<path d="M376.015 524.256C376.162 524.501 377.456 523.902 379.118 524C380.779 524.049 382.013 524.757 382.184 524.537C382.379 524.354 381.182 523.108 379.166 523.023C377.151 522.925 375.844 524.061 376.027 524.256H376.015Z" fill="#263238"/>
<path d="M371.996 529.46C372.082 529.729 373.377 529.533 374.806 530.095C376.247 530.608 377.102 531.61 377.347 531.463C377.603 531.365 376.943 529.839 375.16 529.167C373.377 528.483 371.874 529.216 372.009 529.448L371.996 529.46Z" fill="#263238"/>
<path d="M372.619 537.473C372.876 537.4 372.509 535.971 371.117 534.993C369.724 534.004 368.259 534.138 368.271 534.395C368.246 534.676 369.407 534.969 370.543 535.8C371.703 536.594 372.363 537.595 372.619 537.473Z" fill="#263238"/>
<path d="M373.071 518.088C373.303 518.259 374.232 517.269 375.673 516.573C377.102 515.84 378.446 515.694 378.458 515.413C378.495 515.156 376.919 514.851 375.233 515.694C373.548 516.524 372.839 517.966 373.071 518.088Z" fill="#263238"/>
<path d="M363.422 509.11L365.12 538.902C365.12 538.902 335.4 550.641 335.181 556.174L393.068 554.953L392.322 508.414L363.409 509.098L363.422 509.11Z" fill="#D7E3FF"/>
<path d="M382.965 536.019C384.089 536.3 384.895 537.546 384.651 538.682C384.419 539.818 383.161 540.649 382.025 540.38C380.889 540.124 379.887 538.658 380.254 537.546C380.62 536.447 382.147 535.555 383.185 536.081" fill="#E0E0E0"/>
<g opacity="0.6">
<path d="M393.067 554.965L392.811 550.274L337.403 553.194C337.403 553.194 334.85 554.366 335.18 556.174L393.067 554.953V554.965Z" fill="white"/>
</g>
<path d="M364.167 538.633C364.179 538.914 365.596 539.012 367.013 539.892C368.442 540.734 369.187 541.944 369.443 541.822C369.7 541.761 369.248 540.075 367.526 539.049C365.816 537.998 364.105 538.377 364.179 538.633H364.167Z" fill="#263238"/>
<path d="M358.145 541.272C358.083 541.553 359.317 542.005 360.307 543.177C361.32 544.326 361.601 545.608 361.882 545.596C362.151 545.633 362.31 543.971 361.052 542.542C359.818 541.089 358.145 541.015 358.145 541.284V541.272Z" fill="#263238"/>
<path d="M354.859 548.613C355.115 548.662 355.482 547.245 354.724 545.718C353.979 544.179 352.636 543.593 352.513 543.837C352.355 544.069 353.234 544.888 353.833 546.158C354.468 547.416 354.565 548.601 354.859 548.625V548.613Z" fill="#263238"/>
<path d="M364.533 531.805C364.655 532.062 365.95 531.646 367.55 531.72C369.15 531.756 370.408 532.269 370.543 532.025C370.702 531.818 369.468 530.791 367.575 530.73C365.693 530.657 364.386 531.585 364.521 531.805H364.533Z" fill="#263238"/>
<path d="M320.241 286.515C320.241 286.515 317.578 413.32 319.973 422.102C322.367 430.885 371.373 520.641 371.373 520.641L400.946 506.117L361.724 411.353L370.384 289.508L320.229 286.528L320.241 286.515Z" fill="#263238"/>
<path d="M385.103 279.431C385.103 279.431 402.106 307.195 399.101 323.845C397.868 330.673 388.56 345.795 388.56 345.795V427.098L395.73 535.616H361.259L346.467 439.924C346.467 439.924 341.276 431.141 339.285 423.568C337.293 415.982 330.807 326.397 330.807 326.397L320.498 289.96L385.103 279.443V279.431Z" fill="#263238"/>
<path d="M392.359 478.303C392.359 478.303 392.31 479.122 392.359 480.588C392.408 482.053 392.505 484.179 392.652 486.805C392.945 492.045 393.47 499.289 394.069 507.277C394.68 515.266 395.193 522.497 395.535 527.738C395.706 530.266 395.84 532.355 395.95 533.943C396.048 535.409 396.133 536.215 396.182 536.215C396.231 536.215 396.243 535.396 396.231 533.931C396.219 532.465 396.158 530.339 396.048 527.713C395.84 522.461 395.4 515.217 394.79 507.229C394.154 499.301 393.58 492.131 393.165 486.781C392.945 484.264 392.774 482.176 392.64 480.588C392.505 479.122 392.408 478.316 392.359 478.316V478.303Z" fill="#455A64"/>
<path d="M381.426 293.625C381.426 293.625 381.145 294.04 380.51 294.675C379.875 295.31 378.886 296.165 377.554 297.069C374.916 298.889 370.689 300.783 365.73 301.076C360.771 301.369 356.349 299.976 353.515 298.474C352.086 297.729 350.999 296.996 350.29 296.446C349.582 295.897 349.228 295.542 349.252 295.518C349.325 295.42 350.84 296.715 353.711 298.071C356.544 299.439 360.856 300.722 365.681 300.428C370.506 300.147 374.635 298.364 377.298 296.678C379.985 294.993 381.341 293.527 381.426 293.625Z" fill="#455A64"/>
<path d="M331.1 319.142C331.1 319.142 331.137 319.288 331.162 319.594C331.186 319.924 331.223 320.363 331.272 320.913C331.357 322.11 331.479 323.808 331.638 325.97C331.943 330.404 332.383 336.756 332.921 344.586C334.02 360.294 335.412 382.025 337.501 405.966C337.794 409.228 338.112 412.44 338.491 415.592C338.698 417.167 338.857 418.731 339.199 420.221C339.529 421.711 340.14 423.165 340.64 424.594C342.766 430.323 345.038 435.722 347.212 440.779V440.816L347.237 440.852C349.533 455.596 351.475 468.055 352.843 476.887C353.552 481.247 354.126 484.704 354.517 487.111C354.724 488.259 354.883 489.163 354.993 489.81C355.127 490.409 355.201 490.726 355.189 490.738C355.189 490.738 355.066 490.445 354.895 489.834C354.761 489.224 354.553 488.332 354.321 487.147C353.857 484.79 353.234 481.333 352.489 476.948C350.987 468.177 348.959 455.718 346.65 440.95L346.675 441.023C344.476 435.966 342.192 430.567 340.042 424.814C339.529 423.36 338.93 421.943 338.576 420.392C338.21 418.829 338.051 417.265 337.843 415.677C337.464 412.513 337.135 409.289 336.854 406.027C334.753 382.074 333.446 360.343 332.456 344.622C332.004 336.78 331.638 330.428 331.381 325.994C331.272 323.82 331.186 322.122 331.137 320.925C331.113 320.376 331.1 319.936 331.088 319.606C331.088 319.313 331.088 319.154 331.088 319.154L331.1 319.142Z" fill="#455A64"/>
<path d="M344.561 159.418C344.561 159.418 344.195 164.988 348.715 164.988C355.066 164.988 368.393 152.724 368.393 152.724L342.705 213.946V288.03L320.986 290.327C320.986 290.327 318.446 289.96 317.92 286.296C316.907 279.125 317.053 266.055 316.223 260.668C313.633 243.934 308.552 234.822 309.272 221.568C310.335 201.865 338.063 167.883 338.063 167.883L344.561 159.443V159.418Z" fill="white"/>
<path d="M371.361 145.053C371.361 145.053 366.634 154.056 360.636 162.423C355.103 170.131 319.96 223.95 319.96 223.95L333.995 333.128L335.547 342.375C335.986 344.964 338.491 346.674 341.068 346.137L403.12 335.229C406.455 334.643 408.519 331.271 407.53 328.034L379.826 250.188L397.721 181.088C397.721 181.088 397.062 171.022 386.166 160.823C384.089 158.881 375.526 151.772 374.122 149.854L371.361 145.066V145.053Z" fill="#005CBB"/>
<g opacity="0.3">
<path d="M324.37 258.262C324.37 258.262 352.929 280.909 366.842 281.129C380.754 281.349 387.974 269.561 387.974 269.561L360.001 270.331L323.332 250.188L324.37 258.274V258.262Z" fill="black"/>
</g>
<path d="M303.165 236.825C303.165 236.825 328.938 253.853 333.69 257.077C338.442 260.302 360.942 273.36 363.873 274.3C366.805 275.241 384.993 275.375 388.352 269.182C391.711 262.989 393.947 249.809 393.947 249.809L398.332 188.062C398.735 182.358 397.245 176.641 393.898 171.914C391.235 168.152 387.717 164.756 383.906 165.318C375.783 166.527 358.315 186.169 359.158 196.259C360.001 206.348 360.026 234.443 360.026 234.443L314.012 219.211L303.177 236.8L303.165 236.825Z" fill="#005CBB"/>
<path d="M393.886 171.89C393.886 171.89 394.203 172.268 394.716 173.075C395.242 173.881 395.962 175.102 396.671 176.825C397.367 178.535 398.063 180.746 398.356 183.421C398.723 186.108 398.356 189.198 398.149 192.619C397.196 206.373 395.84 225.966 394.215 249.382V249.406C393.751 252.032 393.189 254.695 392.518 257.395C391.846 260.094 391.088 262.818 390.062 265.53C389.513 266.874 389.036 268.242 388.108 269.488C387.192 270.709 385.934 271.625 384.578 272.285C381.89 273.677 378.898 274.41 375.868 274.862C372.827 275.29 369.7 275.473 366.548 275.107C364.985 274.948 363.36 274.606 361.919 273.848C360.49 273.128 359.109 272.358 357.705 271.576C352.11 268.462 346.479 265.176 340.775 261.78C333.959 257.822 327.619 253.352 321.316 249.223C315.038 245.045 308.918 240.99 302.994 237.057L302.749 236.898L302.896 236.654C306.658 230.461 310.274 224.5 313.743 218.771L313.865 218.576L314.085 218.649C331.907 224.695 347.554 229.997 360.074 234.247L359.806 234.431C360.746 222.961 361.491 213.824 362.004 207.533C362.273 204.418 362.481 202.012 362.615 200.363C362.688 199.569 362.75 198.946 362.786 198.518C362.823 198.103 362.859 197.895 362.859 197.895C362.859 197.895 362.86 198.115 362.835 198.531C362.811 198.97 362.774 199.581 362.713 200.387C362.591 202.036 362.42 204.455 362.2 207.57C361.723 213.861 361.039 222.997 360.184 234.467L360.16 234.736L359.903 234.651C347.359 230.449 331.699 225.184 313.865 219.198L314.207 219.076C310.75 224.805 307.135 230.766 303.397 236.971L303.299 236.556C309.223 240.489 315.355 244.545 321.634 248.71C327.961 252.839 334.264 257.285 341.068 261.243C346.76 264.626 352.403 267.912 357.973 271.027C359.366 271.796 360.758 272.578 362.163 273.287C363.531 273.995 365.046 274.325 366.585 274.484C369.651 274.838 372.754 274.655 375.746 274.252C378.727 273.812 381.683 273.091 384.26 271.748C385.567 271.112 386.752 270.233 387.583 269.121C388.426 268.022 388.926 266.617 389.464 265.31C390.49 262.647 391.247 259.936 391.919 257.248C392.591 254.573 393.153 251.91 393.617 249.296V249.321C395.327 225.905 396.768 206.324 397.782 192.57C398.014 189.137 398.405 186.071 398.063 183.421C397.794 180.77 397.135 178.571 396.463 176.861C395.791 175.151 395.095 173.905 394.594 173.099C394.362 172.684 394.142 172.391 394.02 172.183C393.886 171.975 393.825 171.878 393.837 171.865L393.886 171.89Z" fill="#263238"/>
<path d="M327.79 211.845C327.79 211.845 327.961 211.601 328.352 211.198C328.78 210.733 329.329 210.147 330.013 209.402C331.516 207.777 333.592 205.53 336.145 202.769C338.771 199.96 341.874 196.65 345.319 192.973C348.824 189.333 352.587 185.241 357.008 181.344L356.972 181.808C356.85 181.674 356.728 181.54 356.593 181.393C355.543 180.233 354.517 179.084 353.503 177.961L352.99 177.399L353.747 177.435C355.714 177.533 357.644 177.643 359.488 177.741L359.207 177.9C363.824 169.85 367.855 162.851 370.763 157.781C372.192 155.338 373.352 153.372 374.183 151.943C374.574 151.307 374.879 150.794 375.123 150.391C375.343 150.037 375.465 149.866 375.478 149.878C375.49 149.878 375.404 150.086 375.221 150.452C375.001 150.868 374.72 151.393 374.366 152.053C373.572 153.506 372.46 155.509 371.105 157.989C368.246 163.083 364.289 170.119 359.745 178.217L359.647 178.388H359.451C357.595 178.29 355.677 178.193 353.71 178.095L353.967 177.57C354.981 178.693 356.019 179.842 357.07 181.002C357.192 181.149 357.326 181.283 357.448 181.417L357.668 181.662L357.412 181.882C353.051 185.705 349.264 189.809 345.734 193.425C342.253 197.065 339.126 200.351 336.475 203.124C333.837 205.884 331.699 208.107 330.197 209.622C329.439 210.379 328.853 210.966 328.438 211.344C328.034 211.735 327.802 211.918 327.79 211.906V211.845Z" fill="#263238"/>
<g opacity="0.3">
<path d="M325.726 215.265L360.673 182.321L357.693 179.06H360.673L361.443 174.565L359.476 178.022L353.735 177.729L357.131 180.843L328.096 211.54L325.726 215.265Z" fill="black"/>
</g>
<path d="M347.786 301.112C347.786 301.112 347.969 301.051 348.372 300.966C348.824 300.868 349.423 300.734 350.144 300.575C351.78 300.233 354.065 299.757 356.886 299.158C362.774 297.961 370.958 296.3 380.437 294.37L380.645 294.333L380.754 294.516C382.782 297.827 384.981 301.393 387.241 305.082L387.485 305.473L387.033 305.559C386.789 305.608 386.532 305.656 386.263 305.705C372.534 308.283 360.233 310.591 351.915 312.155L351.744 312.191L351.683 312.033C350.449 308.637 349.46 305.913 348.751 303.959C348.434 303.079 348.189 302.371 348.006 301.833C347.835 301.357 347.762 301.112 347.774 301.125C347.786 301.125 347.908 301.393 348.104 301.882C348.324 302.419 348.605 303.128 348.971 304.02C349.716 305.913 350.767 308.576 352.074 311.874L351.842 311.74C360.148 310.127 372.436 307.745 386.141 305.082C386.41 305.033 386.667 304.985 386.911 304.936L386.703 305.412C384.443 301.723 382.257 298.144 380.229 294.834L380.547 294.968C371.141 296.764 363.018 298.303 357.167 299.415C354.284 299.94 351.976 300.367 350.315 300.685C349.545 300.819 348.934 300.929 348.458 301.015C348.03 301.088 347.798 301.125 347.786 301.112Z" fill="#263238"/>
<g opacity="0.3">
<path d="M348.177 302.138L350.657 314.964L386.227 308.551L385.225 305.583L351.89 311.947L348.177 302.138Z" fill="black"/>
</g>
<path d="M368.979 245.241C368.808 245.339 367.318 242.395 364.667 239.402C362.029 236.385 359.305 234.541 359.427 234.382C359.5 234.247 362.444 235.884 365.144 238.975C367.868 242.053 369.126 245.18 368.979 245.229V245.241Z" fill="#263238"/>
<path d="M240.905 205.493C240.905 205.493 231.988 200.143 228.433 196.735C228.433 196.735 223.23 195.098 220.86 198.372C220.86 198.372 215.363 199.899 214.618 200.913C213.873 201.939 209.268 209.06 209.268 209.06C209.268 209.06 211.735 217.549 211.943 217.977C212.395 218.905 213.384 219.883 214.227 218.869C214.508 218.527 214.63 218.087 214.63 217.647V217.085L215.962 216.145C215.962 216.145 216.56 219.443 218.344 218.93C220.127 218.417 224.133 215.449 224.133 215.449C224.133 215.449 229.777 218.661 232.745 218.991C235.713 219.321 242.493 221.19 242.493 221.19L245.522 205.029L240.905 205.505V205.493Z" fill="#D8E2FF"/>
<path d="M214.374 217.794C214.374 217.794 214.154 218.026 213.665 217.928C213.189 217.855 212.554 217.305 212.395 216.462C212.138 214.838 212.199 212.676 212.419 210.257C212.664 207.851 213.067 205.713 213.397 204.174C213.726 202.635 213.983 201.694 214.068 201.707C214.276 201.743 213.58 205.579 213.055 210.318C212.822 212.676 212.713 214.874 212.835 216.365C212.932 217.098 213.372 217.537 213.739 217.684C214.117 217.83 214.362 217.745 214.374 217.794Z" fill="#D7E3FF"/>
<path d="M224.83 203.869C224.94 203.979 223.266 205.371 220.616 205.823L220.872 205.579C220.848 205.677 220.823 205.786 220.799 205.896C220.164 208.547 219.504 210.648 219.333 210.611C219.162 210.575 219.541 208.388 220.176 205.75C220.2 205.64 220.225 205.53 220.249 205.432L220.298 205.225L220.506 205.188C222.998 204.797 224.732 203.698 224.83 203.856V203.869Z" fill="#D7E3FF"/>
<path d="M232.061 204.98C230.864 203.661 228.787 203.246 227.163 203.979L226.222 205.163C223.877 207.118 221.532 209.072 219.186 211.039C217.965 212.065 216.695 213.14 216.035 214.581C215.375 216.035 215.51 217.977 216.768 218.954C218.197 220.054 220.347 219.431 221.752 218.295C223.156 217.159 224.17 215.583 225.636 214.508C227.908 212.835 231.206 212.383 232.599 209.94C233.478 208.388 233.246 206.287 232.049 204.98H232.061Z" fill="#D8E2FF"/>
<path d="M226.638 202.769C226.699 202.757 226.809 203.844 226.015 205.322C225.624 206.055 225.025 206.849 224.244 207.594C223.462 208.352 222.497 209.048 221.495 209.732C219.455 211.076 217.733 212.419 216.841 213.726C215.913 214.997 215.754 215.998 215.644 215.974C215.583 215.974 215.583 214.899 216.463 213.482C216.89 212.786 217.537 212.028 218.344 211.308C219.15 210.587 220.127 209.915 221.129 209.219C222.13 208.535 223.083 207.863 223.84 207.167C224.61 206.47 225.209 205.75 225.624 205.102C226.467 203.771 226.528 202.757 226.638 202.769Z" fill="#D7E3FF"/>
<path d="M262.024 230.986C262.024 230.986 262.269 222.228 264.492 219.638C266.715 217.049 279.663 213.714 279.663 213.714L312.204 221.263L304.643 233.502L302.358 231.352C302.358 231.352 292.122 234.431 287.065 233.331C282.008 232.22 278.185 230.62 278.185 230.62L272.884 230.986C272.884 230.986 269.06 234.931 267.827 234.931C266.593 234.931 265.237 233.82 265.848 232.586L264.736 230.742C264.736 230.742 262.513 232.098 262.024 230.986Z" fill="#D8E2FF"/>
<path d="M279.113 224.891C279.15 224.964 278.283 225.392 276.792 225.672C275.314 226.002 273.201 226.063 271.112 226.784C268.999 227.517 267.765 229.251 267.032 230.522C266.3 231.804 265.896 232.659 265.799 232.611C265.725 232.574 265.982 231.682 266.629 230.302C266.971 229.618 267.423 228.812 268.107 228.054C268.779 227.273 269.756 226.601 270.88 226.186C273.14 225.404 275.253 225.44 276.719 225.221C278.197 225.062 279.076 224.781 279.113 224.879V224.891Z" fill="#D7E3FF"/>
<path d="M276.524 218.392C276.524 218.49 275.485 218.661 273.885 219.223C273.079 219.504 272.138 219.87 271.112 220.335C270.111 220.811 268.963 221.361 268.034 222.167C267.619 222.521 267.314 223.144 266.996 223.645C266.678 224.17 266.397 224.683 266.153 225.184C265.652 226.186 265.323 227.138 265.103 227.944C264.675 229.581 264.748 230.656 264.626 230.656C264.565 230.668 264.321 229.581 264.663 227.847C264.834 226.992 265.139 225.978 265.628 224.94C265.872 224.414 266.141 223.877 266.459 223.339C266.801 222.814 267.045 222.228 267.607 221.703C268.669 220.799 269.83 220.273 270.88 219.809C271.931 219.357 272.92 219.027 273.751 218.795C275.424 218.331 276.524 218.319 276.524 218.392Z" fill="#D7E3FF"/>
</g>
<defs>
<clipPath id="clip0_214_2939">
<rect width="554" height="556.699" fill="white"/>
</clipPath>
</defs>
</svg>
