<svg xmlns="http://www.w3.org/2000/svg" xmlns:xlink="http://www.w3.org/1999/xlink" width="50" zoomAndPan="magnify" viewBox="0 0 37.5 37.499999" height="50" preserveAspectRatio="xMidYMid meet" version="1.0"><defs><clipPath id="be1d7ca46c"><path d="M 1.261719 28 L 5 28 L 5 32 L 1.261719 32 Z M 1.261719 28 " clip-rule="nonzero"/></clipPath><clipPath id="5a5fdb911e"><path d="M 33 28 L 36.511719 28 L 36.511719 32 L 33 32 Z M 33 28 " clip-rule="nonzero"/></clipPath><clipPath id="f1f83ad2bb"><path d="M 30 35 L 31 35 L 31 36.808594 L 30 36.808594 Z M 30 35 " clip-rule="nonzero"/></clipPath><clipPath id="93ea05baaf"><path d="M 3 33 L 6 33 L 6 36.808594 L 3 36.808594 Z M 3 33 " clip-rule="nonzero"/></clipPath><clipPath id="60606b758b"><path d="M 6 33 L 9 33 L 9 36.808594 L 6 36.808594 Z M 6 33 " clip-rule="nonzero"/></clipPath><clipPath id="3ce8f91a2e"><path d="M 9 33 L 13 33 L 13 36.808594 L 9 36.808594 Z M 9 33 " clip-rule="nonzero"/></clipPath><clipPath id="12b7bb3012"><path d="M 12 33 L 16 33 L 16 36.808594 L 12 36.808594 Z M 12 33 " clip-rule="nonzero"/></clipPath><clipPath id="780e18ac3f"><path d="M 15 33 L 19 33 L 19 36.808594 L 15 36.808594 Z M 15 33 " clip-rule="nonzero"/></clipPath><clipPath id="9051514f6f"><path d="M 18 33 L 22 33 L 22 36.808594 L 18 36.808594 Z M 18 33 " clip-rule="nonzero"/></clipPath><clipPath id="630f8101fd"><path d="M 21 33 L 24 33 L 24 36.808594 L 21 36.808594 Z M 21 33 " clip-rule="nonzero"/></clipPath><clipPath id="d10e5eeb25"><path d="M 23 33 L 27 33 L 27 36.808594 L 23 36.808594 Z M 23 33 " clip-rule="nonzero"/></clipPath><clipPath id="96da0c9c3b"><path d="M 27 33 L 31 33 L 31 36.808594 L 27 36.808594 Z M 27 33 " clip-rule="nonzero"/></clipPath><clipPath id="8e95c68a32"><path d="M 30 33 L 34 33 L 34 36.808594 L 30 36.808594 Z M 30 33 " clip-rule="nonzero"/></clipPath><clipPath id="44fb188222"><path d="M 33 35 L 35 35 L 35 36.808594 L 33 36.808594 Z M 33 35 " clip-rule="nonzero"/></clipPath><clipPath id="869cbdfa0e"><path d="M 8 0.808594 L 30 0.808594 L 30 26 L 8 26 Z M 8 0.808594 " clip-rule="nonzero"/></clipPath></defs><g clip-path="url(#be1d7ca46c)"><path fill="#36b1c4" d="M 4.238281 31.265625 L 3.054688 28.242188 L 2.417969 28.242188 L 1.265625 31.265625 L 1.90625 31.265625 L 2.144531 30.582031 L 3.328125 30.582031 L 3.582031 31.265625 Z M 2.320312 30.0625 L 2.722656 28.957031 L 3.136719 30.0625 Z M 2.320312 30.0625 " fill-opacity="1" fill-rule="nonzero"/></g><path fill="#36b1c4" d="M 6.492188 30.761719 L 5.023438 30.761719 L 5.023438 28.273438 L 4.398438 28.273438 L 4.398438 31.265625 L 6.492188 31.265625 Z M 6.492188 30.761719 " fill-opacity="1" fill-rule="nonzero"/><path fill="#36b1c4" d="M 8.25 30.648438 C 8.136719 30.746094 7.992188 30.808594 7.835938 30.808594 C 7.609375 30.808594 7.433594 30.730469 7.308594 30.566406 C 7.179688 30.402344 7.097656 30.125 7.097656 29.753906 C 7.097656 29.378906 7.164062 29.136719 7.308594 28.972656 C 7.449219 28.808594 7.625 28.726562 7.851562 28.726562 C 8.011719 28.726562 8.136719 28.777344 8.25 28.859375 C 8.363281 28.957031 8.441406 29.070312 8.472656 29.234375 L 9.0625 29.085938 C 9 28.84375 8.886719 28.664062 8.761719 28.535156 C 8.535156 28.320312 8.234375 28.207031 7.882812 28.207031 C 7.464844 28.207031 7.132812 28.355469 6.875 28.628906 C 6.621094 28.90625 6.492188 29.296875 6.492188 29.800781 C 6.492188 30.273438 6.621094 30.648438 6.875 30.921875 C 7.132812 31.199219 7.449219 31.332031 7.851562 31.332031 C 8.167969 31.332031 8.425781 31.25 8.632812 31.085938 C 8.839844 30.921875 8.984375 30.679688 9.082031 30.355469 L 8.488281 30.160156 C 8.457031 30.371094 8.378906 30.535156 8.25 30.648438 Z M 8.25 30.648438 " fill-opacity="1" fill-rule="nonzero"/><path fill="#36b1c4" d="M 9.976562 30.582031 L 11.15625 30.582031 L 11.414062 31.265625 L 12.066406 31.265625 L 10.886719 28.242188 L 10.246094 28.242188 L 9.097656 31.265625 L 9.734375 31.265625 Z M 10.535156 28.957031 L 10.949219 30.0625 L 10.132812 30.0625 Z M 10.535156 28.957031 " fill-opacity="1" fill-rule="nonzero"/><path fill="#36b1c4" d="M 14.367188 30.761719 L 12.867188 30.761719 L 12.867188 28.273438 L 12.277344 28.273438 L 12.277344 31.265625 L 14.367188 31.265625 Z M 14.367188 30.761719 " fill-opacity="1" fill-rule="nonzero"/><path fill="#36b1c4" d="M 16.269531 28.304688 C 16.140625 28.273438 15.949219 28.242188 15.710938 28.242188 L 14.625 28.242188 L 14.625 31.265625 L 15.757812 31.265625 C 15.984375 31.265625 16.160156 31.25 16.285156 31.199219 C 16.460938 31.152344 16.605469 31.070312 16.703125 30.957031 C 16.84375 30.824219 16.941406 30.648438 17.019531 30.417969 C 17.085938 30.242188 17.117188 30.027344 17.117188 29.769531 C 17.117188 29.492188 17.085938 29.25 17.019531 29.054688 C 16.957031 28.859375 16.863281 28.695312 16.734375 28.566406 C 16.589844 28.453125 16.445312 28.355469 16.269531 28.304688 Z M 16.398438 30.304688 C 16.351562 30.4375 16.300781 30.535156 16.238281 30.597656 C 16.175781 30.664062 16.09375 30.695312 16 30.730469 C 15.917969 30.746094 15.808594 30.761719 15.632812 30.761719 L 15.199219 30.761719 L 15.199219 28.761719 L 15.472656 28.761719 C 15.710938 28.761719 15.871094 28.777344 15.964844 28.792969 C 16.078125 28.824219 16.175781 28.875 16.238281 28.941406 C 16.316406 29.003906 16.367188 29.101562 16.414062 29.234375 C 16.445312 29.363281 16.476562 29.542969 16.476562 29.769531 C 16.460938 29.996094 16.445312 30.175781 16.398438 30.304688 Z M 16.398438 30.304688 " fill-opacity="1" fill-rule="nonzero"/><path fill="#36b1c4" d="M 17.804688 27.363281 L 17.5 27.980469 L 17.882812 27.980469 L 18.410156 27.363281 Z M 17.804688 27.363281 " fill-opacity="1" fill-rule="nonzero"/><path fill="#36b1c4" d="M 17.964844 28.257812 L 17.355469 28.257812 L 17.355469 31.28125 L 17.964844 31.28125 Z M 17.964844 28.257812 " fill-opacity="1" fill-rule="nonzero"/><path fill="#36b1c4" d="M 19.402344 28.257812 L 18.25 31.28125 L 18.890625 31.28125 L 19.128906 30.597656 L 20.3125 30.597656 L 20.570312 31.28125 L 21.222656 31.28125 L 20.042969 28.257812 Z M 19.304688 30.0625 L 19.707031 28.957031 L 20.121094 30.0625 Z M 19.304688 30.0625 " fill-opacity="1" fill-rule="nonzero"/><path fill="#36b1c4" d="M 25.472656 28.257812 L 24.59375 28.257812 L 24.035156 30.304688 L 23.507812 28.257812 L 22.613281 28.257812 L 22.613281 31.265625 L 23.15625 31.265625 L 23.15625 28.890625 L 23.75 31.265625 L 24.324219 31.265625 L 24.914062 28.890625 L 24.914062 31.265625 L 25.472656 31.265625 Z M 25.472656 28.257812 " fill-opacity="1" fill-rule="nonzero"/><path fill="#36b1c4" d="M 28.671875 31.265625 L 27.488281 28.242188 L 26.847656 28.242188 L 25.699219 31.265625 L 26.335938 31.265625 L 26.578125 30.582031 L 27.757812 30.582031 L 28.015625 31.265625 Z M 26.753906 30.0625 L 27.152344 28.957031 L 27.566406 30.0625 Z M 26.753906 30.0625 " fill-opacity="1" fill-rule="nonzero"/><path fill="#36b1c4" d="M 27.949219 28.257812 L 29.019531 29.996094 L 29.019531 31.265625 L 29.628906 31.265625 L 29.628906 29.996094 L 30.714844 28.257812 L 30.027344 28.257812 L 29.339844 29.445312 L 28.636719 28.257812 Z M 27.949219 28.257812 " fill-opacity="1" fill-rule="nonzero"/><path fill="#36b1c4" d="M 30.460938 29.785156 C 30.460938 30.273438 30.585938 30.648438 30.84375 30.921875 C 31.097656 31.199219 31.449219 31.332031 31.898438 31.332031 C 32.34375 31.332031 32.679688 31.199219 32.9375 30.921875 C 33.191406 30.648438 33.320312 30.273438 33.320312 29.785156 C 33.320312 29.296875 33.191406 28.90625 32.9375 28.628906 C 32.679688 28.355469 32.328125 28.222656 31.882812 28.222656 C 31.640625 28.222656 31.433594 28.257812 31.242188 28.339844 C 31.097656 28.402344 30.972656 28.484375 30.859375 28.613281 C 30.746094 28.726562 30.652344 28.875 30.585938 29.019531 C 30.507812 29.214844 30.460938 29.476562 30.460938 29.785156 Z M 31.304688 28.972656 C 31.449219 28.808594 31.65625 28.710938 31.898438 28.710938 C 32.136719 28.710938 32.34375 28.792969 32.488281 28.972656 C 32.632812 29.136719 32.710938 29.394531 32.710938 29.738281 C 32.710938 30.078125 32.632812 30.355469 32.488281 30.515625 C 32.328125 30.695312 32.136719 30.777344 31.898438 30.777344 C 31.65625 30.777344 31.449219 30.695312 31.304688 30.515625 C 31.144531 30.339844 31.066406 30.078125 31.066406 29.738281 C 31.082031 29.410156 31.144531 29.152344 31.304688 28.972656 Z M 31.304688 28.972656 " fill-opacity="1" fill-rule="nonzero"/><g clip-path="url(#5a5fdb911e)"><path fill="#36b1c4" d="M 35.84375 30.679688 C 35.699219 30.4375 35.589844 30.273438 35.507812 30.191406 C 35.429688 30.09375 35.316406 30.011719 35.1875 29.929688 C 35.445312 29.898438 35.636719 29.800781 35.765625 29.65625 C 35.890625 29.507812 35.957031 29.3125 35.957031 29.101562 C 35.957031 28.921875 35.90625 28.761719 35.828125 28.628906 C 35.75 28.484375 35.636719 28.386719 35.476562 28.339844 C 35.332031 28.289062 35.109375 28.257812 34.789062 28.257812 L 33.527344 28.257812 L 33.527344 31.28125 L 34.132812 31.28125 L 34.132812 30.027344 L 34.261719 30.027344 C 34.40625 30.027344 34.5 30.046875 34.566406 30.0625 C 34.628906 30.09375 34.695312 30.125 34.742188 30.191406 C 34.789062 30.257812 34.902344 30.402344 35.0625 30.632812 L 35.492188 31.28125 L 36.210938 31.28125 Z M 34.582031 29.523438 L 34.132812 29.523438 L 34.132812 28.761719 L 34.597656 28.761719 C 34.835938 28.761719 34.980469 28.761719 35.027344 28.777344 C 35.125 28.792969 35.203125 28.824219 35.253906 28.890625 C 35.316406 28.957031 35.332031 29.039062 35.332031 29.136719 C 35.332031 29.214844 35.316406 29.296875 35.269531 29.363281 C 35.222656 29.425781 35.171875 29.460938 35.09375 29.492188 C 35.046875 29.507812 34.871094 29.523438 34.582031 29.523438 Z M 34.582031 29.523438 " fill-opacity="1" fill-rule="nonzero"/></g><g clip-path="url(#f1f83ad2bb)"><path fill="#36b1c4" d="M 30.796875 35.574219 L 30.234375 35.574219 L 30.234375 36.144531 L 30.796875 36.144531 Z M 30.796875 35.574219 " fill-opacity="1" fill-rule="nonzero"/></g><g clip-path="url(#93ea05baaf)"><path fill="#36b1c4" d="M 5.453125 33.507812 C 5.324219 33.378906 5.183594 33.28125 5.007812 33.234375 C 4.878906 33.199219 4.703125 33.183594 4.445312 33.183594 L 3.375 33.183594 L 3.375 36.160156 L 4.480469 36.160156 C 4.703125 36.160156 4.863281 36.144531 5.007812 36.09375 C 5.183594 36.046875 5.324219 35.964844 5.421875 35.851562 C 5.550781 35.722656 5.660156 35.542969 5.726562 35.332031 C 5.789062 35.152344 5.820312 34.941406 5.820312 34.695312 C 5.820312 34.417969 5.789062 34.191406 5.726562 33.996094 C 5.660156 33.800781 5.582031 33.640625 5.453125 33.507812 Z M 5.148438 35.199219 C 5.101562 35.332031 5.054688 35.429688 4.988281 35.492188 C 4.925781 35.558594 4.847656 35.589844 4.75 35.625 C 4.671875 35.640625 4.558594 35.65625 4.398438 35.65625 L 3.953125 35.65625 L 3.953125 33.6875 L 4.222656 33.6875 C 4.460938 33.6875 4.621094 33.703125 4.703125 33.71875 C 4.8125 33.738281 4.910156 33.785156 4.972656 33.867188 C 5.039062 33.933594 5.101562 34.03125 5.132812 34.160156 C 5.164062 34.273438 5.199219 34.453125 5.199219 34.679688 C 5.214844 34.890625 5.199219 35.070312 5.148438 35.199219 Z M 5.148438 35.199219 " fill-opacity="1" fill-rule="nonzero"/></g><g clip-path="url(#60606b758b)"><path fill="#36b1c4" d="M 6.621094 34.84375 L 8.074219 34.84375 L 8.074219 34.339844 L 6.621094 34.339844 L 6.621094 33.671875 L 8.167969 33.671875 L 8.167969 33.167969 L 6.011719 33.167969 L 6.011719 36.144531 L 8.234375 36.144531 L 8.234375 35.640625 L 6.621094 35.640625 Z M 6.621094 34.84375 " fill-opacity="1" fill-rule="nonzero"/></g><g clip-path="url(#3ce8f91a2e)"><path fill="#36b1c4" d="M 11.539062 34.566406 C 11.667969 34.5 11.765625 34.417969 11.84375 34.304688 C 11.925781 34.191406 11.957031 34.0625 11.957031 33.914062 C 11.957031 33.785156 11.925781 33.671875 11.859375 33.574219 C 11.796875 33.476562 11.734375 33.394531 11.636719 33.332031 C 11.539062 33.265625 11.445312 33.234375 11.332031 33.199219 C 11.222656 33.183594 11.046875 33.167969 10.820312 33.167969 L 9.65625 33.167969 L 9.65625 36.128906 L 10.644531 36.128906 C 11.015625 36.128906 11.253906 36.128906 11.347656 36.109375 C 11.507812 36.09375 11.636719 36.046875 11.75 35.964844 C 11.859375 35.882812 11.941406 35.785156 12.003906 35.65625 C 12.070312 35.527344 12.101562 35.394531 12.101562 35.265625 C 12.101562 35.085938 12.050781 34.941406 11.957031 34.808594 C 11.859375 34.710938 11.734375 34.613281 11.539062 34.566406 Z M 10.246094 33.671875 L 10.582031 33.671875 C 10.855469 33.671875 11.03125 33.671875 11.078125 33.6875 C 11.171875 33.703125 11.253906 33.738281 11.300781 33.785156 C 11.347656 33.851562 11.382812 33.914062 11.382812 34.011719 C 11.382812 34.109375 11.347656 34.191406 11.300781 34.242188 C 11.238281 34.289062 11.15625 34.339844 11.0625 34.355469 C 10.996094 34.355469 10.871094 34.371094 10.628906 34.371094 L 10.246094 34.371094 Z M 11.414062 35.507812 C 11.347656 35.574219 11.285156 35.605469 11.207031 35.625 C 11.140625 35.640625 11.015625 35.640625 10.804688 35.640625 L 10.246094 35.640625 L 10.246094 34.84375 L 10.726562 34.84375 C 10.996094 34.84375 11.171875 34.859375 11.253906 34.890625 C 11.332031 34.925781 11.398438 34.972656 11.445312 35.023438 C 11.492188 35.085938 11.507812 35.152344 11.507812 35.25 C 11.492188 35.363281 11.476562 35.445312 11.414062 35.507812 Z M 11.414062 35.507812 " fill-opacity="1" fill-rule="nonzero"/></g><g clip-path="url(#12b7bb3012)"><path fill="#36b1c4" d="M 13.730469 33.117188 C 13.492188 33.117188 13.28125 33.152344 13.105469 33.234375 C 12.964844 33.296875 12.835938 33.378906 12.722656 33.492188 C 12.613281 33.605469 12.515625 33.753906 12.453125 33.898438 C 12.371094 34.109375 12.324219 34.355469 12.324219 34.664062 C 12.324219 35.136719 12.453125 35.507812 12.707031 35.769531 C 12.964844 36.03125 13.316406 36.175781 13.746094 36.175781 C 14.175781 36.175781 14.511719 36.046875 14.769531 35.769531 C 15.023438 35.492188 15.152344 35.117188 15.152344 34.648438 C 15.152344 34.175781 15.023438 33.785156 14.769531 33.507812 C 14.480469 33.265625 14.144531 33.117188 13.730469 33.117188 Z M 14.304688 35.429688 C 14.160156 35.605469 13.953125 35.6875 13.730469 35.6875 C 13.492188 35.6875 13.296875 35.605469 13.15625 35.429688 C 13.011719 35.25 12.929688 35.003906 12.929688 34.664062 C 12.929688 34.320312 13.011719 34.0625 13.15625 33.898438 C 13.296875 33.738281 13.507812 33.640625 13.746094 33.640625 C 13.984375 33.640625 14.175781 33.71875 14.335938 33.882812 C 14.480469 34.046875 14.5625 34.304688 14.5625 34.648438 C 14.527344 34.988281 14.449219 35.25 14.304688 35.429688 Z M 14.304688 35.429688 " fill-opacity="1" fill-rule="nonzero"/></g><g clip-path="url(#780e18ac3f)"><path fill="#36b1c4" d="M 16.863281 35.054688 L 17.535156 35.054688 L 17.535156 35.429688 C 17.4375 35.492188 17.339844 35.558594 17.214844 35.605469 C 17.085938 35.65625 16.972656 35.671875 16.847656 35.671875 C 16.589844 35.671875 16.398438 35.589844 16.238281 35.410156 C 16.078125 35.234375 16 34.972656 16 34.613281 C 16 34.289062 16.078125 34.046875 16.222656 33.882812 C 16.367188 33.722656 16.574219 33.640625 16.832031 33.640625 C 17.007812 33.640625 17.132812 33.6875 17.261719 33.769531 C 17.375 33.851562 17.453125 33.964844 17.484375 34.109375 L 18.078125 33.996094 C 18.011719 33.722656 17.886719 33.507812 17.675781 33.363281 C 17.46875 33.214844 17.199219 33.136719 16.832031 33.136719 C 16.558594 33.136719 16.320312 33.183594 16.128906 33.28125 C 15.886719 33.410156 15.695312 33.589844 15.566406 33.835938 C 15.441406 34.078125 15.375 34.339844 15.375 34.648438 C 15.375 34.941406 15.441406 35.199219 15.550781 35.445312 C 15.664062 35.6875 15.839844 35.867188 16.0625 35.996094 C 16.285156 36.128906 16.558594 36.191406 16.863281 36.191406 C 17.101562 36.191406 17.339844 36.144531 17.566406 36.046875 C 17.804688 35.949219 17.980469 35.851562 18.109375 35.722656 L 18.109375 34.550781 L 16.847656 34.550781 Z M 16.863281 35.054688 " fill-opacity="1" fill-rule="nonzero"/></g><g clip-path="url(#9051514f6f)"><path fill="#36b1c4" d="M 19.800781 33.117188 C 19.5625 33.117188 19.355469 33.152344 19.179688 33.234375 C 19.035156 33.296875 18.921875 33.378906 18.796875 33.492188 C 18.683594 33.605469 18.585938 33.753906 18.523438 33.898438 C 18.429688 34.109375 18.394531 34.355469 18.394531 34.664062 C 18.394531 35.136719 18.523438 35.507812 18.78125 35.769531 C 19.035156 36.03125 19.371094 36.175781 19.816406 36.175781 C 20.265625 36.175781 20.585938 36.046875 20.839844 35.769531 C 21.097656 35.492188 21.222656 35.117188 21.222656 34.648438 C 21.222656 34.175781 21.097656 33.785156 20.839844 33.507812 C 20.554688 33.265625 20.21875 33.117188 19.800781 33.117188 Z M 20.378906 35.429688 C 20.21875 35.605469 20.027344 35.6875 19.800781 35.6875 C 19.5625 35.6875 19.371094 35.605469 19.226562 35.429688 C 19.066406 35.25 19.003906 35.003906 19.003906 34.664062 C 19.003906 34.320312 19.082031 34.0625 19.226562 33.898438 C 19.371094 33.738281 19.5625 33.640625 19.816406 33.640625 C 20.058594 33.640625 20.265625 33.71875 20.410156 33.882812 C 20.554688 34.046875 20.632812 34.304688 20.632812 34.648438 C 20.601562 34.988281 20.519531 35.25 20.378906 35.429688 Z M 20.378906 35.429688 " fill-opacity="1" fill-rule="nonzero"/></g><g clip-path="url(#630f8101fd)"><path fill="#36b1c4" d="M 23.523438 33.167969 L 21.222656 33.167969 L 21.222656 33.671875 L 22.070312 33.671875 L 22.070312 36.144531 L 22.675781 36.144531 L 22.675781 33.671875 L 23.523438 33.671875 Z M 23.523438 33.167969 " fill-opacity="1" fill-rule="nonzero"/></g><g clip-path="url(#d10e5eeb25)"><path fill="#36b1c4" d="M 24.371094 33.167969 L 23.238281 36.144531 L 23.859375 36.144531 L 24.101562 35.460938 L 25.265625 35.460938 L 25.523438 36.144531 L 26.160156 36.144531 L 24.996094 33.167969 Z M 24.292969 34.957031 L 24.675781 33.867188 L 25.074219 34.957031 Z M 24.292969 34.957031 " fill-opacity="1" fill-rule="nonzero"/></g><path fill="#36b1c4" d="M 24.46875 32.90625 L 24.835938 32.90625 L 25.394531 32.304688 L 24.753906 32.304688 Z M 24.46875 32.90625 " fill-opacity="1" fill-rule="nonzero"/><g clip-path="url(#96da0c9c3b)"><path fill="#36b1c4" d="M 29.867188 33.507812 C 29.738281 33.378906 29.597656 33.28125 29.421875 33.234375 C 29.292969 33.199219 29.101562 33.183594 28.863281 33.183594 L 27.773438 33.183594 L 27.773438 36.160156 L 28.878906 36.160156 C 29.101562 36.160156 29.261719 36.144531 29.40625 36.09375 C 29.582031 36.046875 29.707031 35.964844 29.820312 35.851562 C 29.949219 35.722656 30.058594 35.542969 30.140625 35.332031 C 30.203125 35.152344 30.234375 34.941406 30.234375 34.695312 C 30.234375 34.417969 30.203125 34.191406 30.140625 33.996094 C 30.074219 33.800781 29.980469 33.640625 29.867188 33.507812 Z M 29.5625 35.199219 C 29.515625 35.332031 29.46875 35.429688 29.40625 35.492188 C 29.339844 35.558594 29.261719 35.589844 29.164062 35.625 C 29.085938 35.640625 28.972656 35.65625 28.8125 35.65625 L 28.367188 35.65625 L 28.367188 33.6875 L 28.636719 33.6875 C 28.878906 33.6875 29.039062 33.703125 29.117188 33.71875 C 29.230469 33.738281 29.324219 33.785156 29.386719 33.867188 C 29.46875 33.933594 29.515625 34.03125 29.5625 34.160156 C 29.613281 34.273438 29.628906 34.453125 29.628906 34.679688 C 29.628906 34.890625 29.597656 35.070312 29.5625 35.199219 Z M 29.5625 35.199219 " fill-opacity="1" fill-rule="nonzero"/></g><g clip-path="url(#8e95c68a32)"><path fill="#36b1c4" d="M 32.585938 35.527344 C 32.472656 35.625 32.34375 35.671875 32.183594 35.671875 C 31.976562 35.671875 31.800781 35.589844 31.675781 35.429688 C 31.546875 35.265625 31.480469 35.003906 31.480469 34.632812 C 31.480469 34.257812 31.546875 34.03125 31.691406 33.867188 C 31.816406 33.703125 31.992188 33.621094 32.21875 33.621094 C 32.378906 33.621094 32.503906 33.671875 32.617188 33.753906 C 32.730469 33.835938 32.808594 33.964844 32.839844 34.109375 L 33.414062 33.964844 C 33.351562 33.71875 33.257812 33.542969 33.113281 33.410156 C 32.886719 33.199219 32.601562 33.085938 32.25 33.085938 C 31.851562 33.085938 31.515625 33.214844 31.257812 33.492188 C 31.003906 33.769531 30.875 34.144531 30.875 34.648438 C 30.875 35.117188 31.003906 35.476562 31.257812 35.753906 C 31.515625 36.011719 31.816406 36.160156 32.21875 36.160156 C 32.535156 36.160156 32.792969 36.078125 33 35.914062 C 33.207031 35.753906 33.351562 35.507812 33.433594 35.183594 L 32.855469 35.003906 C 32.761719 35.265625 32.679688 35.429688 32.585938 35.527344 Z M 32.585938 35.527344 " fill-opacity="1" fill-rule="nonzero"/></g><g clip-path="url(#44fb188222)"><path fill="#36b1c4" d="M 34.023438 35.589844 L 33.464844 35.589844 L 33.464844 36.160156 L 34.023438 36.160156 Z M 34.023438 35.589844 " fill-opacity="1" fill-rule="nonzero"/></g><path fill="#36b1c4" d="M 16.285156 4.15625 C 16.796875 4.125 17.199219 3.929688 17.214844 3.667969 C 17.214844 3.441406 16.78125 3.179688 16.253906 3.179688 C 15.742188 3.214844 15.488281 3.472656 15.488281 3.703125 C 15.488281 3.945312 15.757812 4.191406 16.285156 4.15625 Z M 16.285156 4.15625 " fill-opacity="1" fill-rule="nonzero"/><path fill="#36b1c4" d="M 11.171875 20.042969 C 10.886719 19.621094 10.453125 19.425781 10.246094 19.554688 C 10.039062 19.6875 10.039062 20.160156 10.328125 20.566406 C 10.613281 20.988281 10.964844 21.085938 11.171875 20.957031 C 11.378906 20.824219 11.429688 20.46875 11.171875 20.042969 Z M 11.171875 20.042969 " fill-opacity="1" fill-rule="nonzero"/><path fill="#36b1c4" d="M 21.910156 3.683594 C 21.910156 3.457031 21.640625 3.199219 21.144531 3.164062 C 20.617188 3.164062 20.1875 3.425781 20.1875 3.652344 C 20.21875 3.914062 20.601562 4.125 21.113281 4.140625 C 21.65625 4.1875 21.960938 3.945312 21.910156 3.683594 Z M 21.910156 3.683594 " fill-opacity="1" fill-rule="nonzero"/><path fill="#36b1c4" d="M 17.582031 22.597656 C 17.054688 22.515625 16.605469 22.644531 16.542969 22.890625 C 16.492188 23.117188 16.828125 23.460938 17.339844 23.574219 C 17.851562 23.6875 18.1875 23.492188 18.234375 23.230469 C 18.300781 22.988281 18.074219 22.695312 17.582031 22.597656 Z M 17.582031 22.597656 " fill-opacity="1" fill-rule="nonzero"/><path fill="#36b1c4" d="M 27.710938 12.988281 C 27.742188 12.464844 27.519531 12.042969 27.296875 12.027344 C 27.023438 11.996094 26.738281 12.386719 26.703125 12.921875 C 26.671875 13.410156 26.910156 13.703125 27.152344 13.734375 C 27.40625 13.734375 27.679688 13.476562 27.710938 12.988281 Z M 27.710938 12.988281 " fill-opacity="1" fill-rule="nonzero"/><path fill="#36b1c4" d="M 10.773438 12.90625 C 10.742188 12.386719 10.453125 11.996094 10.183594 12.011719 C 9.941406 12.042969 9.75 12.449219 9.78125 12.96875 C 9.816406 13.457031 10.070312 13.71875 10.308594 13.703125 C 10.566406 13.6875 10.773438 13.410156 10.773438 12.90625 Z M 10.773438 12.90625 " fill-opacity="1" fill-rule="nonzero"/><path fill="#36b1c4" d="M 27.390625 6.058594 C 27.632812 6.027344 27.871094 5.75 27.839844 5.246094 C 27.808594 4.726562 27.519531 4.335938 27.265625 4.367188 C 27.023438 4.402344 26.816406 4.808594 26.832031 5.328125 C 26.863281 5.832031 27.152344 6.09375 27.390625 6.058594 Z M 27.390625 6.058594 " fill-opacity="1" fill-rule="nonzero"/><path fill="#36b1c4" d="M 26.289062 20.042969 C 26 20.46875 26.050781 20.824219 26.289062 20.957031 C 26.496094 21.085938 26.847656 20.988281 27.136719 20.566406 C 27.421875 20.140625 27.421875 19.6875 27.214844 19.554688 C 27.007812 19.425781 26.59375 19.621094 26.289062 20.042969 Z M 26.289062 20.042969 " fill-opacity="1" fill-rule="nonzero"/><path fill="#36b1c4" d="M 10.054688 6.058594 C 10.292969 6.09375 10.566406 5.832031 10.582031 5.328125 C 10.613281 4.808594 10.421875 4.382812 10.183594 4.367188 C 9.910156 4.335938 9.625 4.726562 9.589844 5.246094 C 9.574219 5.75 9.816406 6.027344 10.054688 6.058594 Z M 10.054688 6.058594 " fill-opacity="1" fill-rule="nonzero"/><path fill="#36b1c4" d="M 24.691406 14.191406 C 24.609375 14.15625 24.292969 14.5 24.292969 14.5 C 24.210938 14.238281 23.8125 14.238281 23.8125 14.238281 L 23.8125 14.335938 C 24.082031 14.371094 24.132812 14.726562 24.050781 14.855469 C 24.019531 14.9375 24.324219 15.117188 24.371094 15.035156 C 24.453125 14.90625 24.804688 14.808594 24.945312 15.035156 L 24.996094 14.988281 C 24.996094 14.988281 24.867188 14.628906 24.59375 14.679688 C 24.609375 14.679688 24.769531 14.238281 24.691406 14.191406 Z M 24.691406 14.191406 " fill-opacity="1" fill-rule="nonzero"/><path fill="#36b1c4" d="M 24.132812 15.019531 C 23.558594 14.644531 22.835938 14.726562 22.535156 15.199219 C 22.246094 15.652344 22.46875 16.273438 23.011719 16.644531 C 22.613281 16.679688 22.101562 16.140625 22.101562 16.140625 C 21.878906 16.566406 22.292969 16.792969 22.597656 16.90625 C 22.550781 16.9375 22.519531 16.972656 22.46875 17.003906 C 22.167969 16.921875 22.054688 17.070312 22.054688 17.070312 C 22.007812 17.050781 21.335938 16.320312 20.839844 15.800781 L 21.289062 15.71875 C 20.96875 14.972656 20.105469 14.808594 19.53125 14.351562 C 19.097656 14.011719 19.578125 13.863281 19.707031 13.980469 C 20.792969 14.921875 21.78125 14.273438 21.78125 14.273438 C 21.015625 14.011719 20.648438 13.117188 20.648438 13.117188 C 22.246094 14.058594 23.460938 12.988281 23.460938 12.988281 C 22.40625 13.164062 21.574219 12.15625 21.574219 12.15625 C 23.222656 12.546875 24.355469 11.425781 24.355469 11.425781 C 23.75 11.472656 22.230469 10.824219 22.230469 10.824219 C 24.644531 10.742188 24.851562 9.003906 24.882812 9.003906 C 24.210938 9.441406 22.4375 9.230469 22.4375 9.230469 C 24.960938 8.320312 24.769531 6.207031 24.769531 6.207031 C 24.242188 7.019531 21.800781 7.800781 21.800781 7.800781 C 21.128906 8.011719 20.601562 8.613281 20.601562 9.3125 C 20.570312 9.605469 20.3125 9.832031 20.007812 9.832031 C 19.355469 9.832031 19.371094 8.871094 19.371094 8.417969 C 19.371094 7.734375 19.339844 6.953125 18.875 6.953125 L 17.917969 6.953125 C 17.742188 6.953125 17.453125 6.9375 17.324219 7.085938 C 17.070312 7.375 17.117188 8.140625 17.230469 7.996094 C 17.230469 7.996094 17.597656 7.898438 17.835938 7.996094 C 18.140625 8.09375 17.917969 9.050781 17.917969 9.28125 C 17.917969 9.554688 17.644531 9.832031 17.324219 9.832031 C 17.039062 9.832031 16.765625 9.605469 16.734375 9.3125 C 16.734375 8.613281 16.207031 8.011719 15.566406 7.800781 C 15.566406 7.800781 13.074219 7.019531 12.546875 6.207031 C 12.546875 6.207031 12.355469 8.335938 14.914062 9.28125 C 14.914062 9.28125 13.105469 9.441406 12.453125 8.988281 C 12.484375 8.988281 12.789062 10.808594 15.214844 10.890625 C 15.214844 10.890625 13.617188 11.441406 13.042969 11.359375 C 13.042969 11.359375 14.175781 12.695312 15.886719 12.304688 C 15.886719 12.304688 14.960938 13.164062 13.890625 12.988281 C 13.890625 12.988281 15.089844 14.078125 16.703125 13.164062 C 16.703125 13.164062 16.351562 13.996094 15.582031 14.253906 C 15.582031 14.253906 16.558594 14.90625 17.675781 13.960938 C 17.820312 13.800781 18.269531 13.980469 17.820312 14.335938 C 17.214844 14.808594 16.351562 14.921875 15.984375 15.703125 L 16.429688 15.800781 C 15.933594 16.320312 15.265625 17.050781 15.183594 17.070312 C 15.183594 17.070312 15.089844 16.9375 14.800781 16.988281 C 14.769531 16.953125 14.738281 16.921875 14.6875 16.890625 C 15.007812 16.777344 15.40625 16.53125 15.183594 16.125 C 15.183594 16.125 14.671875 16.679688 14.289062 16.628906 C 14.832031 16.253906 15.039062 15.636719 14.769531 15.183594 C 14.480469 14.710938 13.761719 14.628906 13.171875 15.003906 C 12.578125 15.359375 12.339844 16.042969 12.644531 16.515625 C 12.914062 16.972656 13.570312 17.050781 14.144531 16.726562 C 13.90625 17.085938 13.441406 17.199219 13.25 17.28125 C 13.25 17.28125 13.570312 17.914062 14.304688 17.070312 C 14.351562 17.101562 14.386719 17.132812 14.417969 17.167969 C 14.226562 17.3125 14.144531 17.574219 14.304688 17.6875 C 14.304688 17.6875 14.226562 18.109375 14.703125 18.078125 C 14.703125 18.078125 14.863281 18.335938 15.199219 18.191406 C 15.40625 18.761719 15.34375 19.3125 15.40625 19.621094 L 16.015625 19.652344 C 15.96875 19.378906 15.933594 18.515625 15.457031 17.71875 C 15.550781 17.636719 15.597656 17.523438 15.503906 17.410156 C 15.488281 17.378906 16.367188 16.824219 17.019531 16.417969 L 17.101562 16.839844 C 17.324219 16.53125 17.644531 16.335938 18.027344 16.222656 C 17.628906 16.777344 17.390625 17.410156 17.53125 18.304688 C 17.53125 18.304688 17.644531 17.964844 18.171875 17.914062 C 18.171875 17.914062 17.421875 18.824219 18.621094 20.597656 C 19.816406 18.824219 19.128906 17.914062 19.128906 17.914062 C 19.65625 17.964844 19.785156 18.304688 19.785156 18.304688 C 19.914062 17.410156 19.675781 16.757812 19.257812 16.207031 C 19.640625 16.320312 19.945312 16.53125 20.183594 16.839844 L 20.265625 16.417969 C 20.902344 16.824219 21.78125 17.394531 21.765625 17.425781 C 21.671875 17.539062 21.734375 17.652344 21.832031 17.734375 C 21.351562 18.515625 21.320312 19.394531 21.273438 19.671875 L 21.878906 19.636719 C 21.941406 19.328125 21.863281 18.792969 22.070312 18.222656 C 22.375 18.351562 22.550781 18.109375 22.550781 18.109375 C 23.03125 18.140625 22.949219 17.71875 22.949219 17.71875 C 23.109375 17.605469 23.03125 17.363281 22.835938 17.199219 C 22.886719 17.167969 22.917969 17.117188 22.964844 17.085938 C 23.683594 17.929688 24.019531 17.296875 24.019531 17.296875 C 23.828125 17.230469 23.363281 17.117188 23.125 16.742188 C 23.714844 17.070312 24.355469 16.988281 24.628906 16.53125 C 24.945312 16.058594 24.707031 15.378906 24.132812 15.019531 Z M 13.28125 16.191406 C 12.996094 15.71875 12.996094 15.199219 13.234375 15.070312 C 13.472656 14.9375 13.921875 15.167969 14.210938 15.636719 C 14.527344 16.078125 14.449219 16.46875 14.210938 16.597656 C 13.96875 16.757812 13.585938 16.664062 13.28125 16.191406 Z M 18.285156 7.75 C 18.125 7.75 18.011719 7.652344 18.011719 7.523438 C 18.011719 7.359375 18.125 7.261719 18.285156 7.261719 C 18.410156 7.261719 18.523438 7.359375 18.523438 7.523438 C 18.523438 7.652344 18.410156 7.75 18.285156 7.75 Z M 24.050781 16.191406 C 23.734375 16.664062 23.363281 16.757812 23.125 16.613281 C 22.886719 16.484375 22.804688 16.09375 23.125 15.652344 C 23.414062 15.183594 23.859375 14.953125 24.101562 15.085938 C 24.355469 15.199219 24.355469 15.71875 24.050781 16.191406 Z M 24.050781 16.191406 " fill-opacity="1" fill-rule="nonzero"/><path fill="#36b1c4" d="M 12.964844 15.035156 C 13.011719 15.117188 13.316406 14.9375 13.28125 14.855469 C 13.203125 14.726562 13.25 14.371094 13.523438 14.335938 L 13.523438 14.238281 C 13.523438 14.238281 13.121094 14.238281 13.042969 14.5 C 13.042969 14.5 12.722656 14.15625 12.644531 14.191406 C 12.5625 14.238281 12.722656 14.679688 12.722656 14.679688 C 12.453125 14.628906 12.324219 14.988281 12.324219 14.988281 L 12.371094 15.035156 C 12.53125 14.808594 12.882812 14.90625 12.964844 15.035156 Z M 12.964844 15.035156 " fill-opacity="1" fill-rule="nonzero"/><path fill="#36b1c4" d="M 21.128906 17.832031 C 20.886719 17.605469 20.601562 17.476562 20.328125 17.476562 C 20.296875 17.785156 20.378906 18.09375 20.617188 18.351562 C 20.824219 18.613281 21.113281 18.742188 21.414062 18.742188 C 21.449219 18.433594 21.335938 18.09375 21.128906 17.832031 Z M 21.128906 17.832031 " fill-opacity="1" fill-rule="nonzero"/><path fill="#36b1c4" d="M 15.902344 18.742188 C 16.191406 18.742188 16.496094 18.613281 16.703125 18.351562 C 16.941406 18.09375 17.023438 17.785156 16.988281 17.476562 C 16.71875 17.476562 16.429688 17.605469 16.191406 17.832031 C 15.984375 18.09375 15.886719 18.433594 15.902344 18.742188 Z M 15.902344 18.742188 " fill-opacity="1" fill-rule="nonzero"/><path fill="#36b1c4" d="M 19.242188 6.742188 L 19.785156 5.898438 L 18.9375 6.222656 L 18.667969 5.457031 L 18.347656 6.222656 L 17.484375 5.898438 L 18.042969 6.742188 Z M 19.242188 6.742188 " fill-opacity="1" fill-rule="nonzero"/><g clip-path="url(#869cbdfa0e)"><path fill="#36b1c4" d="M 18.683594 0.839844 C 15.4375 2.5625 11.492188 2.5625 8.25 0.808594 L 8.25 19.816406 C 8.25 22.140625 10.132812 23.996094 12.46875 23.996094 C 14.800781 23.996094 16.734375 24.320312 18.683594 25.574219 C 20.632812 24.335938 22.613281 23.996094 24.867188 23.996094 C 27.121094 23.996094 29.101562 22.140625 29.101562 19.816406 L 29.101562 0.808594 C 25.855469 2.5625 21.925781 2.546875 18.683594 0.839844 Z M 27.070312 3.800781 C 27.070312 3.800781 27.121094 3.375 27.214844 3.375 C 27.296875 3.34375 27.421875 3.765625 27.421875 3.765625 C 27.582031 3.605469 27.902344 3.800781 27.902344 3.800781 L 27.871094 3.878906 C 27.632812 3.78125 27.421875 4.042969 27.4375 4.171875 C 27.4375 4.253906 27.085938 4.269531 27.085938 4.207031 C 27.085938 4.074219 26.847656 3.847656 26.609375 3.945312 L 26.578125 3.898438 C 26.59375 3.878906 26.832031 3.636719 27.070312 3.800781 Z M 27.261719 4.335938 C 27.902344 4.285156 28.460938 4.644531 28.511719 5.148438 C 28.542969 5.621094 28.109375 6.042969 27.535156 6.125 C 27.886719 6.253906 28.269531 6.109375 28.476562 6.058594 C 28.476562 6.058594 28.558594 6.660156 27.648438 6.464844 C 27.679688 6.953125 27.375 7.3125 27.261719 7.800781 C 27.328125 7.703125 27.421875 7.621094 27.535156 7.539062 C 27.808594 7.375 28.109375 7.328125 28.414062 7.375 C 28.382812 7.621094 28.222656 7.863281 28 8.027344 C 27.757812 8.191406 27.503906 8.238281 27.230469 8.222656 C 27.246094 8.449219 27.3125 8.710938 27.457031 9.019531 L 27.023438 9.359375 C 26.816406 8.9375 26.734375 7.976562 27.070312 7.296875 C 27.296875 6.839844 27.328125 6.660156 27.3125 6.480469 C 27.023438 6.597656 26.449219 6.726562 26.367188 6.238281 C 26.367188 6.238281 27.023438 6.351562 27.3125 6.140625 C 26.71875 6.125 26.226562 5.765625 26.175781 5.3125 C 26.144531 4.808594 26.625 4.367188 27.261719 4.335938 Z M 27.964844 11.507812 L 27.933594 11.589844 C 27.695312 11.492188 27.457031 11.71875 27.457031 11.847656 C 27.457031 11.929688 27.105469 11.898438 27.105469 11.816406 C 27.121094 11.6875 26.910156 11.425781 26.6875 11.523438 L 26.65625 11.441406 C 26.65625 11.441406 26.976562 11.261719 27.136719 11.410156 C 27.136719 11.410156 27.28125 10.988281 27.34375 11.019531 C 27.421875 11.019531 27.472656 11.441406 27.472656 11.441406 C 27.710938 11.296875 27.964844 11.507812 27.964844 11.507812 Z M 21.113281 2.546875 C 21.589844 2.546875 21.972656 3.019531 21.992188 3.605469 C 22.183594 3.246094 22.039062 2.839844 22.007812 2.644531 C 22.007812 2.644531 22.613281 2.628906 22.390625 3.488281 C 22.871094 3.507812 23.203125 3.816406 23.667969 3.960938 C 23.589844 3.878906 23.507812 3.800781 23.460938 3.683594 C 23.300781 3.425781 23.269531 3.117188 23.347656 2.824219 C 23.605469 2.871094 23.84375 3.035156 23.988281 3.296875 C 24.132812 3.539062 24.164062 3.816406 24.117188 4.042969 C 24.339844 4.042969 24.609375 4.011719 24.929688 3.898438 L 25.25 4.335938 C 24.804688 4.480469 23.8125 4.480469 23.15625 4.109375 C 22.726562 3.878906 22.535156 3.816406 22.375 3.816406 C 22.4375 4.089844 22.535156 4.695312 22.039062 4.710938 C 22.039062 4.710938 22.199219 4.042969 21.992188 3.75 C 21.957031 4.351562 21.542969 4.808594 21.03125 4.808594 C 20.519531 4.808594 20.136719 4.285156 20.152344 3.652344 C 20.167969 3.035156 20.601562 2.546875 21.113281 2.546875 Z M 19.65625 3.035156 L 19.738281 3.066406 C 19.609375 3.296875 19.867188 3.507812 20.007812 3.507812 C 20.089844 3.507812 20.089844 3.816406 20.007812 3.816406 C 19.847656 3.816406 19.609375 4.027344 19.691406 4.285156 L 19.609375 4.285156 C 19.609375 4.285156 19.417969 3.996094 19.578125 3.816406 C 19.578125 3.816406 19.144531 3.734375 19.144531 3.652344 C 19.144531 3.570312 19.59375 3.488281 19.59375 3.488281 C 19.464844 3.328125 19.65625 3.035156 19.65625 3.035156 Z M 17.40625 3.507812 C 17.53125 3.507812 17.804688 3.296875 17.675781 3.066406 L 17.757812 3.035156 C 17.757812 3.035156 17.964844 3.328125 17.804688 3.507812 C 17.804688 3.507812 18.25 3.585938 18.25 3.667969 C 18.25 3.75 17.835938 3.832031 17.835938 3.832031 C 17.996094 4.011719 17.804688 4.304688 17.804688 4.304688 L 17.722656 4.304688 C 17.804688 4.042969 17.566406 3.832031 17.40625 3.832031 C 17.324219 3.816406 17.324219 3.507812 17.40625 3.507812 Z M 12.46875 3.898438 C 12.785156 4.011719 13.058594 4.058594 13.28125 4.042969 C 13.234375 3.816406 13.28125 3.539062 13.410156 3.296875 C 13.539062 3.035156 13.777344 2.871094 14.050781 2.824219 C 14.128906 3.117188 14.097656 3.425781 13.9375 3.683594 C 13.890625 3.800781 13.808594 3.878906 13.730469 3.960938 C 14.191406 3.816406 14.527344 3.507812 15.007812 3.488281 C 14.769531 2.628906 15.375 2.644531 15.375 2.644531 C 15.34375 2.839844 15.214844 3.246094 15.40625 3.605469 C 15.421875 3.019531 15.808594 2.546875 16.285156 2.546875 C 16.8125 2.546875 17.246094 3.035156 17.246094 3.667969 C 17.277344 4.304688 16.878906 4.824219 16.367188 4.824219 C 15.855469 4.824219 15.4375 4.351562 15.40625 3.765625 C 15.199219 4.058594 15.359375 4.726562 15.359375 4.726562 C 14.878906 4.710938 14.960938 4.109375 15.023438 3.832031 C 14.863281 3.832031 14.65625 3.898438 14.242188 4.125 C 13.585938 4.515625 12.59375 4.515625 12.148438 4.367188 Z M 10.054688 3.765625 C 10.054688 3.765625 10.183594 3.34375 10.261719 3.375 C 10.34375 3.375 10.390625 3.800781 10.390625 3.800781 C 10.597656 3.636719 10.871094 3.878906 10.871094 3.878906 L 10.835938 3.929688 C 10.597656 3.832031 10.359375 4.058594 10.359375 4.1875 C 10.328125 4.269531 10.007812 4.238281 10.007812 4.15625 C 10.007812 4.027344 9.816406 3.765625 9.574219 3.863281 L 9.542969 3.78125 C 9.574219 3.800781 9.894531 3.621094 10.054688 3.765625 Z M 10.214844 4.335938 C 10.851562 4.367188 11.332031 4.808594 11.300781 5.296875 C 11.253906 5.765625 10.757812 6.109375 10.167969 6.125 C 10.46875 6.335938 11.125 6.222656 11.125 6.222656 C 11.046875 6.726562 10.46875 6.578125 10.183594 6.464844 C 10.152344 6.644531 10.199219 6.824219 10.421875 7.277344 C 10.742188 7.960938 10.695312 8.921875 10.46875 9.34375 L 10.039062 9.003906 C 10.183594 8.695312 10.246094 8.433594 10.246094 8.207031 C 9.992188 8.222656 9.734375 8.15625 9.496094 8.011719 C 9.222656 7.847656 9.097656 7.589844 9.0625 7.359375 C 9.351562 7.3125 9.671875 7.359375 9.941406 7.523438 C 10.039062 7.589844 10.117188 7.667969 10.183594 7.734375 C 10.054688 7.261719 9.765625 6.921875 9.816406 6.433594 C 8.921875 6.628906 8.984375 6.027344 8.984375 6.027344 C 9.191406 6.074219 9.574219 6.222656 9.925781 6.09375 C 9.351562 5.996094 8.921875 5.585938 8.953125 5.117188 C 9.015625 4.660156 9.574219 4.285156 10.214844 4.335938 Z M 10.773438 11.441406 L 10.742188 11.523438 C 10.5 11.425781 10.292969 11.6875 10.308594 11.816406 C 10.308594 11.898438 9.992188 11.914062 9.976562 11.847656 C 9.976562 11.71875 9.734375 11.492188 9.496094 11.589844 L 9.464844 11.507812 C 9.464844 11.507812 9.734375 11.296875 9.941406 11.457031 C 9.941406 11.457031 9.992188 11.035156 10.070312 11.035156 C 10.152344 11.003906 10.277344 11.425781 10.277344 11.425781 C 10.46875 11.261719 10.773438 11.441406 10.773438 11.441406 Z M 8.824219 14.464844 C 9.113281 14.433594 9.414062 14.546875 9.625 14.757812 C 9.78125 14.890625 9.878906 15.050781 9.894531 15.214844 C 9.925781 15.132812 9.957031 15.050781 9.992188 14.972656 C 10.199219 14.515625 10.246094 14.335938 10.230469 14.15625 C 9.941406 14.273438 9.351562 14.402344 9.273438 13.898438 C 9.273438 13.898438 9.976562 14.011719 10.246094 13.765625 C 9.640625 13.785156 9.128906 13.425781 9.078125 12.953125 C 9.046875 12.464844 9.527344 12.011719 10.167969 11.960938 C 10.804688 11.945312 11.363281 12.304688 11.414062 12.792969 C 11.429688 13.261719 10.996094 13.703125 10.390625 13.75 C 10.757812 13.914062 11.15625 13.75 11.378906 13.703125 C 11.378906 13.703125 11.445312 14.304688 10.550781 14.109375 C 10.628906 14.921875 9.734375 15.378906 10.34375 16.679688 L 9.910156 17.019531 C 9.75 16.695312 9.671875 16.042969 9.800781 15.457031 C 9.527344 15.476562 9.238281 15.359375 9.03125 15.164062 C 8.855469 14.972656 8.777344 14.710938 8.824219 14.464844 Z M 9.449219 19.476562 L 9.398438 19.425781 C 9.398438 19.425781 9.527344 19.085938 9.800781 19.132812 C 9.800781 19.132812 9.605469 18.742188 9.6875 18.695312 C 9.765625 18.644531 10.054688 18.953125 10.054688 18.953125 C 10.132812 18.726562 10.484375 18.726562 10.484375 18.726562 L 10.519531 18.808594 C 10.246094 18.855469 10.199219 19.183594 10.277344 19.3125 C 10.328125 19.363281 10.039062 19.539062 10.007812 19.492188 C 9.925781 19.34375 9.605469 19.230469 9.449219 19.476562 Z M 12.980469 23.34375 C 12.914062 23.019531 12.804688 22.777344 12.675781 22.597656 C 12.46875 22.761719 12.226562 22.859375 11.972656 22.875 C 11.652344 22.90625 11.363281 22.777344 11.203125 22.582031 C 11.398438 22.371094 11.683594 22.222656 12.003906 22.222656 C 12.132812 22.207031 12.242188 22.222656 12.355469 22.257812 C 11.972656 21.964844 11.523438 21.847656 11.253906 21.425781 C 10.644531 22.09375 10.34375 21.574219 10.34375 21.574219 C 10.535156 21.507812 10.964844 21.378906 11.171875 21.019531 C 10.644531 21.34375 10.039062 21.265625 9.75 20.859375 C 9.480469 20.433594 9.703125 19.816406 10.230469 19.476562 C 10.757812 19.132812 11.429688 19.183594 11.683594 19.605469 C 11.957031 20.011719 11.78125 20.597656 11.269531 20.9375 C 11.636719 20.972656 12.132812 20.484375 12.132812 20.484375 C 12.371094 20.921875 11.8125 21.132812 11.523438 21.230469 C 11.621094 21.394531 11.765625 21.507812 12.210938 21.734375 C 12.898438 22.078125 13.425781 22.875 13.539062 23.34375 Z M 16.335938 22.988281 C 16.175781 22.957031 15.886719 23.117188 15.933594 23.378906 L 15.855469 23.378906 C 15.855469 23.378906 15.726562 23.070312 15.933594 22.90625 C 15.933594 22.90625 15.519531 22.726562 15.535156 22.644531 C 15.566406 22.597656 15.984375 22.597656 15.984375 22.597656 C 15.855469 22.371094 16.109375 22.125 16.109375 22.125 L 16.191406 22.175781 C 16.03125 22.386719 16.238281 22.644531 16.382812 22.664062 C 16.460938 22.695312 16.382812 23.019531 16.335938 22.988281 Z M 21.238281 23.6875 C 20.953125 23.507812 20.710938 23.410156 20.472656 23.378906 C 20.457031 23.621094 20.359375 23.882812 20.183594 24.0625 C 19.976562 24.289062 19.707031 24.402344 19.433594 24.402344 C 19.433594 24.109375 19.546875 23.800781 19.722656 23.574219 C 19.800781 23.492188 19.898438 23.425781 19.992188 23.378906 C 19.496094 23.425781 19.097656 23.65625 18.617188 23.574219 C 18.667969 24.46875 18.074219 24.289062 18.074219 24.289062 C 18.140625 24.09375 18.378906 23.734375 18.269531 23.363281 C 18.140625 23.929688 17.660156 24.304688 17.164062 24.207031 C 16.667969 24.078125 16.367188 23.507812 16.476562 22.90625 C 16.605469 22.289062 17.117188 21.867188 17.613281 21.964844 C 18.089844 22.09375 18.378906 22.597656 18.300781 23.183594 C 18.570312 22.9375 18.554688 22.304688 18.554688 22.304688 C 19.050781 22.433594 18.828125 22.972656 18.699219 23.230469 C 18.875 23.28125 19.066406 23.265625 19.546875 23.132812 C 20.28125 22.90625 21.269531 23.085938 21.671875 23.34375 Z M 18.636719 21.671875 C 17.292969 20.824219 16.03125 20.644531 14.496094 20.644531 C 12.960938 20.644531 11.78125 19.410156 11.78125 17.882812 L 11.765625 5.101562 C 13.441406 6.011719 17.117188 5.394531 18.714844 4.546875 C 20.328125 5.410156 23.972656 5.996094 25.664062 5.101562 L 25.648438 17.882812 C 25.648438 19.394531 24.308594 20.644531 22.742188 20.644531 C 21.175781 20.644531 19.960938 20.824219 18.636719 21.671875 Z M 27.710938 20.875 C 27.4375 21.265625 26.847656 21.363281 26.304688 21.050781 C 26.511719 21.394531 26.929688 21.507812 27.121094 21.574219 C 27.121094 21.574219 26.816406 22.109375 26.207031 21.425781 C 25.9375 21.832031 25.488281 21.945312 25.089844 22.257812 C 25.203125 22.222656 25.3125 22.222656 25.441406 22.222656 C 25.761719 22.222656 26.03125 22.386719 26.242188 22.582031 C 26.050781 22.761719 25.792969 22.890625 25.472656 22.875 C 25.203125 22.859375 24.960938 22.742188 24.769531 22.597656 C 24.644531 22.792969 24.53125 23.019531 24.46875 23.34375 L 23.90625 23.378906 C 24.019531 22.90625 24.546875 22.109375 25.234375 21.769531 C 25.679688 21.539062 25.824219 21.410156 25.921875 21.265625 C 25.632812 21.183594 25.074219 20.957031 25.3125 20.515625 C 25.3125 20.515625 25.792969 20.988281 26.160156 20.972656 C 25.679688 20.628906 25.488281 20.027344 25.777344 19.636719 C 26.050781 19.214844 26.703125 19.167969 27.230469 19.507812 C 27.789062 19.832031 27.984375 20.46875 27.710938 20.875 Z M 27.984375 19.476562 C 27.855469 19.246094 27.535156 19.34375 27.457031 19.476562 C 27.421875 19.523438 27.136719 19.34375 27.167969 19.296875 C 27.246094 19.167969 27.214844 18.855469 26.960938 18.808594 L 26.992188 18.726562 C 26.992188 18.726562 27.328125 18.726562 27.421875 18.953125 C 27.421875 18.953125 27.710938 18.644531 27.789062 18.695312 C 27.839844 18.742188 27.679688 19.132812 27.679688 19.132812 C 27.933594 19.085938 28.078125 19.425781 28.078125 19.425781 Z M 28.382812 15.164062 C 28.191406 15.359375 27.902344 15.457031 27.632812 15.457031 C 27.757812 16.042969 27.679688 16.695312 27.503906 17.019531 L 27.085938 16.679688 C 27.726562 15.378906 26.832031 14.921875 26.894531 14.109375 C 25.984375 14.304688 26.082031 13.703125 26.082031 13.703125 C 26.273438 13.75 26.671875 13.914062 27.039062 13.75 C 26.433594 13.703125 25.984375 13.261719 26.015625 12.792969 C 26.066406 12.289062 26.625 11.929688 27.261719 11.960938 C 27.902344 12.011719 28.382812 12.464844 28.351562 12.953125 C 28.300781 13.425781 27.789062 13.785156 27.183594 13.765625 C 27.472656 14.011719 28.160156 13.898438 28.160156 13.898438 C 28.078125 14.402344 27.503906 14.253906 27.214844 14.15625 C 27.199219 14.335938 27.230469 14.515625 27.457031 14.972656 C 27.503906 15.050781 27.535156 15.132812 27.566406 15.214844 C 27.597656 15.050781 27.695312 14.875 27.839844 14.757812 C 28.046875 14.546875 28.335938 14.449219 28.652344 14.464844 C 28.667969 14.710938 28.605469 14.972656 28.382812 15.164062 Z M 28.382812 15.164062 " fill-opacity="1" fill-rule="nonzero"/></g></svg>