<svg id="Capa_1" data-name="Capa 1" xmlns="http://www.w3.org/2000/svg" viewBox="0 0 800 229.79"><defs><style>.cls-1{fill:#005cba;}.cls-2{fill:#0076d0;}.cls-3{fill:#ffb200;}.cls-4{fill:#fff;}</style></defs><rect class="cls-1" width="800" height="229.79"/><rect class="cls-2" x="0.03" y="0.04" width="229.75" height="229.75"/><rect class="cls-3" x="40.98" y="156.2" width="145.51" height="14.21"/><path class="cls-4" d="M131.68,114.22q4.73,11.13,19.06,11.13,9.94,0,15.84-6.41l19.9,13.49q-12.31,16-32.37,16-16,0-26.13-10.62v8.26H102.52v-6.91q-8.44,9.27-23.27,9.27-16.86,0-28.58-12.81T39,103.93q0-18.87,11.72-31.69T79.25,59.42q14.84,0,23.27,9.28V61.78H128v7.76q9.6-10.13,24.61-10.12,17,0,27.65,12.56t10.62,31.79a44.31,44.31,0,0,1-1.18,10.45ZM72,117q4.89,5,12.81,5t12.82-5q4.89-5,4.89-13.07T97.63,90.87q-4.89-5-12.82-5T72,90.87q-4.89,5-4.89,13.06T72,117Zm59.18-22.34h32.54Q160.35,83,147.87,83,135.06,83,131.18,94.66Z"/><path class="cls-4" d="M294.18,104.23a22.81,22.81,0,0,1-12.75-3.42,18,18,0,0,1-7.33-9.37l7.36-4.31q3.14,8.78,12.94,8.77,4.83,0,7.25-1.89a6,6,0,0,0,2.42-4.93,5.42,5.42,0,0,0-2.61-4.86,40.91,40.91,0,0,0-9.23-3.67l-6-2.22a23.35,23.35,0,0,1-4.91-2.61,11.13,11.13,0,0,1-3.83-4.35,13.87,13.87,0,0,1-1.26-6.1,13.46,13.46,0,0,1,4.91-11,18,18,0,0,1,11.82-4,19.63,19.63,0,0,1,10.93,3,20,20,0,0,1,7.21,8.4l-7.21,4.16q-3.29-7.28-10.93-7.28A9.36,9.36,0,0,0,287,60.33a5.66,5.66,0,0,0-2.23,4.72,5.24,5.24,0,0,0,2.28,4.48q2.28,1.64,8.26,3.45l4.28,1.61,3.89,1.47a13.47,13.47,0,0,1,3.79,2A28.44,28.44,0,0,1,310,80.71a9.05,9.05,0,0,1,2,3.61,16.64,16.64,0,0,1,.59,4.59,13.63,13.63,0,0,1-5.1,11.19Q302.44,104.23,294.18,104.23Z"/><path class="cls-4" d="M326.82,59a5.11,5.11,0,1,1-3.6-8.74,4.89,4.89,0,0,1,3.64,1.53,5.06,5.06,0,0,1,0,7.21Zm-7.62,44.27V66.09h8v37.17Z"/><path class="cls-4" d="M343.12,76.3a3.24,3.24,0,0,0,2.06,2.9,29.91,29.91,0,0,0,4.94,2L356,83a10.21,10.21,0,0,1,5.06,3.45,10.75,10.75,0,0,1-2.1,14.76,17,17,0,0,1-10.37,3,18.35,18.35,0,0,1-9.44-2.31,13.46,13.46,0,0,1-5.73-6.39l6.92-4q1.94,5.34,8.25,5.35t6.32-4.17a3.3,3.3,0,0,0-2-2.9,27.24,27.24,0,0,0-4.93-2L342.06,86A10.57,10.57,0,0,1,337,82.63a9.12,9.12,0,0,1-2.05-6.13,10.06,10.06,0,0,1,3.91-8.26,15,15,0,0,1,9.7-3.12,16.27,16.27,0,0,1,8.21,2,13.9,13.9,0,0,1,5.54,5.68l-6.76,3.8q-1.94-4.25-7-4.24a7.09,7.09,0,0,0-3.87,1A3.23,3.23,0,0,0,343.12,76.3Z"/><path class="cls-4" d="M390.77,73.82h-9.22V91.66a4.47,4.47,0,0,0,1,3.31,4.7,4.7,0,0,0,3.09,1.12c1.36.07,3.06.06,5.09,0v7.21q-9.22,1.13-13.23-1.6t-4-10V73.82h-6.84V66.09h6.84v-8l8-2.38V66.09h9.22Z"/><path class="cls-4" d="M402.76,88.1a10.18,10.18,0,0,0,4.08,6.5,13.2,13.2,0,0,0,7.81,2.27q6.39,0,9.59-4.61l6.62,3.86q-5.5,8.11-16.28,8.11-9.07,0-14.65-5.54a18.91,18.91,0,0,1-5.58-14,19.14,19.14,0,0,1,5.51-13.94A18.9,18.9,0,0,1,414,65.12a17.37,17.37,0,0,1,13.42,5.73,19.81,19.81,0,0,1,5.24,13.9,26.17,26.17,0,0,1-.29,3.35Zm-.08-6.55h21.86a10.32,10.32,0,0,0-10.63-9.14,11.32,11.32,0,0,0-7.44,2.45A11.13,11.13,0,0,0,402.68,81.55Z"/><path class="cls-4" d="M479.93,65.12a13.37,13.37,0,0,1,10.19,4.09q3.86,4.1,3.86,11v23.05h-8V80.73a8.55,8.55,0,0,0-1.93-6,6.8,6.8,0,0,0-5.28-2.12,7.54,7.54,0,0,0-5.91,2.45q-2.19,2.46-2.19,7.36v20.82h-8V80.73a8.87,8.87,0,0,0-1.83-6,6.43,6.43,0,0,0-5.16-2.12,7.75,7.75,0,0,0-5.95,2.49q-2.31,2.49-2.31,7.32v20.82h-8V66.09h8v4.46q3.57-5.43,10.64-5.43T468.55,71Q472.27,65.12,479.93,65.12Z"/><path class="cls-4" d="M531.86,66.09h8v37.17h-8V97.91q-4.53,6.32-13,6.32a17.43,17.43,0,0,1-13.08-5.69,19.33,19.33,0,0,1-5.43-13.87,19.3,19.3,0,0,1,5.43-13.9,17.46,17.46,0,0,1,13.08-5.65q8.48,0,13,6.25Zm-20.15,27.1a12.14,12.14,0,0,0,16.81,0,12.52,12.52,0,0,0,0-17,12.14,12.14,0,0,0-16.81,0,12.52,12.52,0,0,0,0,17Z"/><path class="cls-4" d="M598.78,51.22h8v52h-8V97.91q-4.54,6.32-13,6.32a17.45,17.45,0,0,1-13.09-5.69,19.33,19.33,0,0,1-5.43-13.87,19.3,19.3,0,0,1,5.43-13.9,17.48,17.48,0,0,1,13.09-5.65q8.47,0,13,6.25Zm-20.15,42a12.13,12.13,0,0,0,16.8,0,12.5,12.5,0,0,0,0-17,12.13,12.13,0,0,0-16.8,0,12.5,12.5,0,0,0,0,17Z"/><path class="cls-4" d="M622.18,88.1a10.18,10.18,0,0,0,4.08,6.5,13.17,13.17,0,0,0,7.81,2.27q6.39,0,9.59-4.61l6.62,3.86q-5.5,8.11-16.28,8.11-9.07,0-14.65-5.54a18.91,18.91,0,0,1-5.58-14,19.14,19.14,0,0,1,5.51-13.94,18.9,18.9,0,0,1,14.12-5.61,17.37,17.37,0,0,1,13.42,5.73,19.81,19.81,0,0,1,5.24,13.9,26.17,26.17,0,0,1-.29,3.35Zm-.08-6.55H644a10.32,10.32,0,0,0-10.63-9.14,11.32,11.32,0,0,0-7.44,2.45A11.13,11.13,0,0,0,622.1,81.55Z"/><path class="cls-4" d="M308.13,165.72l-2.49-7.51H287.93l-2.25,7.51h-14.4l16.58-52h16.76l17.22,52.05Zm-16.78-19h10.49l-5.28-17.7Z"/><path class="cls-4" d="M348.1,127.5a16,16,0,0,1,12.45,5.61,22.07,22.07,0,0,1,0,28,16,16,0,0,1-12.45,5.62q-6.78,0-10.56-4.46v18.29H325.19V128.54h12.35V132Q341.32,127.51,348.1,127.5ZM339.69,153a8.27,8.27,0,0,0,11.3,0,9.06,9.06,0,0,0,0-11.74,8.27,8.27,0,0,0-11.3,0,9.09,9.09,0,0,0,0,11.74Z"/><path class="cls-4" d="M388.85,166.76a19.34,19.34,0,0,1-14.05-5.69,19.65,19.65,0,0,1,0-27.88,20.24,20.24,0,0,1,28.14,0,19.75,19.75,0,0,1,0,27.88A19.3,19.3,0,0,1,388.85,166.76Zm0-11.9a7.26,7.26,0,0,0,5.39-2.15,8.4,8.4,0,0,0,0-11.16,7.26,7.26,0,0,0-5.39-2.15,7.15,7.15,0,0,0-5.31,2.15,8.4,8.4,0,0,0,0,11.16A7.15,7.15,0,0,0,388.85,154.86Z"/><path class="cls-4" d="M435.42,128.54H449.1l-12.71,36.58q-3,8.4-8.41,12.12t-14.05,3.35V169a14.13,14.13,0,0,0,5.95-1,7.26,7.26,0,0,0,3.27-3.49l-14.87-36h13.83l7.51,21.56Z"/><path class="cls-4" d="M469,166.76A19.33,19.33,0,0,1,455,161.07a19.65,19.65,0,0,1,0-27.88,20.24,20.24,0,0,1,28.14,0,19.75,19.75,0,0,1,0,27.88A19.3,19.3,0,0,1,469,166.76Zm0-11.9a7.26,7.26,0,0,0,5.39-2.15,8.4,8.4,0,0,0,0-11.16,7.74,7.74,0,0,0-10.71,0,8.4,8.4,0,0,0,0,11.16A7.19,7.19,0,0,0,469,154.86Z"/><path class="cls-4" d="M526.48,153.23h20.15v12.49H513.17v-52h33.09v12.42H526.48v7.21H544.4v12.27H526.48Z"/><path class="cls-4" d="M564.83,139.24c0,.63.65,1.15,1.94,1.57l4.53,1.45,5.38,1.73a9.17,9.17,0,0,1,4.69,3.57,11.29,11.29,0,0,1,1.89,6.71q0,6.39-4.78,9.44a20.72,20.72,0,0,1-11.36,3q-12.5,0-16.66-8.85l10.78-5.43a5.61,5.61,0,0,0,5.8,4.09c2.23,0,3.35-.66,3.35-2,0-.69-.63-1.25-1.9-1.68L564,151.38l-5.3-1.82a9.49,9.49,0,0,1-4.6-3.43,10,10,0,0,1-1.86-6.14,10.82,10.82,0,0,1,4.41-9.22,17.3,17.3,0,0,1,10.61-3.27q11,0,15.32,8.62l-10.41,4.69q-1.63-3.19-4.61-3.2C565.75,137.61,564.83,138.15,564.83,139.24Z"/><path class="cls-4" d="M606,166.76a19.63,19.63,0,1,1,0-39.26,19.65,19.65,0,0,1,10,2.6,18.29,18.29,0,0,1,6.95,7l-10.55,6.1a6.84,6.84,0,0,0-6.47-3.64,7,7,0,0,0-5.21,2.11,8.22,8.22,0,0,0,0,10.93,7,7,0,0,0,5.21,2.12q4.61,0,6.47-3.71l10.55,6.09a18.09,18.09,0,0,1-6.95,7.07A19.65,19.65,0,0,1,606,166.76Z"/><path class="cls-4" d="M644.44,166.76a19.34,19.34,0,0,1-14.05-5.69,19.65,19.65,0,0,1,0-27.88,20.24,20.24,0,0,1,28.14,0,19.75,19.75,0,0,1,0,27.88A19.3,19.3,0,0,1,644.44,166.76Zm0-11.9a7.26,7.26,0,0,0,5.39-2.15,8.4,8.4,0,0,0,0-11.16,7.26,7.26,0,0,0-5.39-2.15,7.15,7.15,0,0,0-5.31,2.15,8.4,8.4,0,0,0,0,11.16A7.15,7.15,0,0,0,644.44,154.86Z"/><path class="cls-4" d="M669.64,165.72V111.44H682v54.28Z"/><path class="cls-4" d="M715.49,128.54h12.34v37.18H715.49V162.3q-3.79,4.45-10.56,4.46a16,16,0,0,1-12.45-5.62,22.07,22.07,0,0,1,0-28,16,16,0,0,1,12.45-5.61q6.77,0,10.56,4.46ZM702,153a8.29,8.29,0,0,0,11.31,0,9.09,9.09,0,0,0,0-11.74,8.29,8.29,0,0,0-11.31,0A9.09,9.09,0,0,0,702,153Z"/><path class="cls-4" d="M747.42,135.46a9.65,9.65,0,0,1,4.17-5.65,12.63,12.63,0,0,1,7-2v13.68a10.64,10.64,0,0,0-7.7,1.56c-2.3,1.49-3.46,3.92-3.46,7.29v15.39H735.08V128.54h12.34Z"/></svg>