<svg width="38" height="39" viewBox="0 0 38 39" fill="none" xmlns="http://www.w3.org/2000/svg">
<path d="M3.20443 32.9965L1.92955 29.7197H1.24042L0 32.9965H0.689125L0.947547 32.2565H2.22243L2.49808 32.9965H3.20443ZM1.13706 31.6928L1.56776 30.4949L2.01569 31.6928H1.13706Z" fill="white"/>
<path d="M5.63384 32.4503H4.04885V29.7549H3.37695V32.9964H5.63384V32.4503Z" fill="white"/>
<path d="M7.52888 32.3271C7.40829 32.4328 7.25323 32.5033 7.08095 32.5033C6.83976 32.5033 6.65025 32.4152 6.51242 32.239C6.3746 32.0628 6.28846 31.7634 6.28846 31.3582C6.28846 30.953 6.35737 30.6887 6.51242 30.5126C6.66748 30.3364 6.85699 30.2483 7.09818 30.2483C7.27046 30.2483 7.40829 30.3012 7.52888 30.3892C7.64948 30.4949 7.73562 30.6183 7.77008 30.7944L8.40752 30.6359C8.3386 30.3716 8.21801 30.1778 8.08018 30.0369C7.83899 29.8079 7.51165 29.6846 7.13264 29.6846C6.6847 29.6846 6.32291 29.8431 6.04726 30.1426C5.77161 30.4421 5.63379 30.8649 5.63379 31.411C5.63379 31.9219 5.77161 32.3271 6.04726 32.6266C6.32291 32.9261 6.66748 33.067 7.09818 33.067C7.44274 33.067 7.71839 32.9789 7.94236 32.8027C8.16632 32.6266 8.32138 32.3623 8.42474 32.01L7.7873 31.7986C7.75285 32.0276 7.66671 32.2038 7.52888 32.3271Z" fill="white"/>
<path d="M9.38895 32.2565H10.6638L10.9395 32.9965H11.6458L10.371 29.7197H9.68183L8.44141 32.9965H9.13053L9.38895 32.2565ZM9.99194 30.4949L10.4399 31.6928H9.56123L9.99194 30.4949Z" fill="white"/>
<path d="M14.127 32.4503H12.5076V29.7549H11.8701V32.9964H14.127V32.4503Z" fill="white"/>
<path d="M16.1768 29.7902C16.039 29.755 15.8323 29.7197 15.5739 29.7197H14.4023V32.9965H15.6255C15.8667 32.9965 16.0562 32.9788 16.1941 32.926C16.3836 32.8731 16.5386 32.7851 16.642 32.6617C16.7971 32.5208 16.9004 32.327 16.9866 32.0804C17.0555 31.8866 17.0899 31.6576 17.0899 31.3757C17.0899 31.0762 17.0555 30.812 16.9866 30.6006C16.9177 30.3892 16.8143 30.213 16.6765 30.0721C16.5214 29.9487 16.3663 29.843 16.1768 29.7902ZM16.3147 31.9571C16.263 32.098 16.2113 32.2037 16.1424 32.2742C16.0735 32.3446 15.9873 32.3799 15.884 32.4151C15.7978 32.4327 15.6772 32.4503 15.4877 32.4503H15.0226V30.2835H15.3154C15.5739 30.2835 15.7461 30.3011 15.8495 30.3187C15.9701 30.3539 16.0735 30.4068 16.1424 30.4773C16.2285 30.5477 16.2802 30.6534 16.3319 30.7944C16.3664 30.9353 16.4008 31.1291 16.4008 31.3757C16.3836 31.6223 16.3663 31.8161 16.3147 31.9571Z" fill="white"/>
<path d="M17.8312 28.7683L17.5039 29.4377H17.9174L18.4859 28.7683H17.8312Z" fill="white"/>
<path d="M18.0033 29.7373H17.3486V33.014H18.0033V29.7373Z" fill="white"/>
<path d="M19.5539 29.7373L18.3135 33.014H19.0026L19.261 32.2741H20.5359L20.8116 33.014H21.5179L20.243 29.7373H19.5539ZM19.4505 31.6928L19.8812 30.4948L20.3292 31.6928H19.4505Z" fill="white"/>
<path d="M26.1004 29.7373H25.1529L24.5499 31.957L23.9814 29.7373H23.0166V32.9964H23.6024V30.4244L24.2398 32.9964H24.86L25.4974 30.4244V32.9964H26.1004V29.7373Z" fill="white"/>
<path d="M29.5462 32.9965L28.2713 29.7197H27.5822L26.3418 32.9965H27.0309L27.2893 32.2565H28.5642L28.8399 32.9965H29.5462ZM27.4789 31.6928L27.9096 30.4949L28.3575 31.6928H27.4789Z" fill="white"/>
<path d="M28.7705 29.7373L29.9248 31.6223V32.9964H30.5795V31.6223L31.751 29.7373H31.0102L30.2694 31.0233L29.5113 29.7373H28.7705Z" fill="white"/>
<path d="M31.4756 31.3934C31.4756 31.9219 31.6134 32.3271 31.8891 32.6265C32.1647 32.926 32.5437 33.067 33.0261 33.067C33.5085 33.067 33.8703 32.926 34.1459 32.6265C34.4216 32.3271 34.5594 31.9219 34.5594 31.3934C34.5594 30.8649 34.4216 30.4421 34.1459 30.1426C33.8703 29.8431 33.4913 29.7021 33.0089 29.7021C32.7505 29.7021 32.5265 29.7374 32.3198 29.8255C32.1647 29.8959 32.0269 29.984 31.9063 30.125C31.7857 30.2483 31.6823 30.4068 31.6134 30.5654C31.5273 30.7768 31.4756 31.0586 31.4756 31.3934ZM32.3887 30.5125C32.5437 30.3364 32.7677 30.2307 33.0261 30.2307C33.2845 30.2307 33.5085 30.3187 33.6636 30.5125C33.8186 30.6887 33.9048 30.9706 33.9048 31.3405C33.9048 31.7105 33.8186 32.01 33.6636 32.1861C33.4913 32.3799 33.2845 32.468 33.0261 32.468C32.7677 32.468 32.5437 32.3799 32.3887 32.1861C32.2164 31.9923 32.1303 31.7105 32.1303 31.3405C32.1475 30.9882 32.2164 30.7063 32.3887 30.5125Z" fill="white"/>
<path d="M37.2813 32.3622C37.1262 32.098 37.0056 31.9218 36.9195 31.8337C36.8334 31.728 36.7128 31.6399 36.5749 31.5518C36.8506 31.5166 37.0573 31.4109 37.1951 31.2524C37.333 31.0938 37.4019 30.8824 37.4019 30.6534C37.4019 30.4596 37.3502 30.2834 37.2641 30.1425C37.1779 29.9839 37.0573 29.8782 36.885 29.8254C36.73 29.7725 36.4888 29.7373 36.1442 29.7373H34.7832V33.014H35.4379V31.6575H35.5757C35.7308 31.6575 35.8341 31.6752 35.903 31.6928C35.9719 31.728 36.0409 31.7632 36.0925 31.8337C36.1442 31.9042 36.2648 32.0627 36.4371 32.3094L36.9023 33.014H37.6775L37.2813 32.3622ZM35.9203 31.1114H35.4379V30.2834H35.9375C36.1959 30.2834 36.351 30.2834 36.4026 30.301C36.506 30.3187 36.5922 30.3539 36.6438 30.4244C36.7128 30.4948 36.73 30.5829 36.73 30.6886C36.73 30.7767 36.7128 30.8648 36.6611 30.9352C36.6094 31.0057 36.5577 31.0409 36.4716 31.0762C36.4199 31.0938 36.2304 31.1114 35.9203 31.1114Z" fill="white"/>
<path d="M31.8374 37.6648H31.2344V38.2814H31.8374V37.6648Z" fill="white"/>
<path d="M4.51407 35.4275C4.37624 35.2866 4.22119 35.1809 4.03168 35.128C3.89386 35.0928 3.70435 35.0752 3.4287 35.0752H2.27441V38.2991H3.46315C3.70435 38.2991 3.87663 38.2815 4.03168 38.2286C4.22119 38.1758 4.37624 38.0877 4.47961 37.9644C4.61744 37.8234 4.73804 37.6296 4.80695 37.4006C4.87586 37.2068 4.91032 36.9778 4.91032 36.7136C4.91032 36.4141 4.87586 36.1674 4.80695 35.956C4.73804 35.7446 4.65189 35.5685 4.51407 35.4275ZM4.18674 37.2597C4.13505 37.4006 4.08337 37.5063 4.01445 37.5768C3.94554 37.6473 3.8594 37.6825 3.75603 37.7177C3.66989 37.7353 3.54929 37.753 3.37701 37.753H2.89463V35.6213H3.1875C3.44593 35.6213 3.61821 35.6389 3.70435 35.6566C3.82494 35.6742 3.92831 35.727 3.99723 35.8151C4.06614 35.8856 4.13505 35.9913 4.16951 36.1322C4.20396 36.2555 4.23842 36.4493 4.23842 36.6959C4.25565 36.925 4.23842 37.1188 4.18674 37.2597Z" fill="white"/>
<path d="M5.77186 36.8722H7.33961V36.326H5.77186V35.6037H7.44298V35.0576H5.11719V38.2815H7.5119V37.7354H5.77186V36.8722Z" fill="white"/>
<path d="M11.0778 36.5727C11.2157 36.5022 11.319 36.4141 11.4052 36.2908C11.4913 36.1675 11.5258 36.0265 11.5258 35.868C11.5258 35.7271 11.4913 35.6037 11.4224 35.498C11.3535 35.3923 11.2846 35.3043 11.1812 35.2338C11.0778 35.1633 10.9745 35.1281 10.8539 35.0928C10.7333 35.0752 10.5438 35.0576 10.3026 35.0576H9.04492V38.2639H10.1131C10.5093 38.2639 10.7677 38.2639 10.8711 38.2463C11.0434 38.2286 11.1812 38.1758 11.3018 38.0877C11.4224 37.9996 11.5085 37.8939 11.5775 37.753C11.6464 37.6121 11.6808 37.4711 11.6808 37.3302C11.6808 37.1364 11.6291 36.9779 11.5258 36.8369C11.4224 36.7312 11.2846 36.6255 11.0778 36.5727ZM9.68236 35.6037H10.0442C10.337 35.6037 10.5265 35.6037 10.5782 35.6214C10.6816 35.639 10.7677 35.6742 10.8194 35.7271C10.8711 35.7975 10.9056 35.868 10.9056 35.9737C10.9056 36.0794 10.8711 36.1675 10.8194 36.2203C10.7505 36.2732 10.6644 36.326 10.561 36.3436C10.4921 36.3436 10.3543 36.3613 10.0958 36.3613H9.68236V35.6037ZM10.94 37.5944C10.8711 37.6649 10.8022 37.7001 10.7161 37.7178C10.6471 37.7354 10.5093 37.7354 10.2853 37.7354H9.68236V36.8722H10.1992C10.4921 36.8722 10.6816 36.8898 10.7677 36.925C10.8539 36.9602 10.9228 37.0131 10.9745 37.0659C11.0262 37.1364 11.0434 37.2069 11.0434 37.3126C11.0262 37.4359 11.0089 37.524 10.94 37.5944Z" fill="white"/>
<path d="M13.438 35.0046C13.1795 35.0046 12.9556 35.0399 12.7661 35.128C12.611 35.1984 12.4732 35.2865 12.3526 35.4098C12.232 35.5331 12.1286 35.6917 12.0597 35.8502C11.9736 36.0793 11.9219 36.3435 11.9219 36.6782C11.9219 37.1891 12.0597 37.5943 12.3354 37.8762C12.611 38.1581 12.99 38.3166 13.4552 38.3166C13.9203 38.3166 14.2821 38.1757 14.5578 37.8762C14.8334 37.5767 14.9713 37.1715 14.9713 36.6606C14.9713 36.1497 14.8334 35.7269 14.5578 35.4274C14.2477 35.1632 13.8859 35.0046 13.438 35.0046ZM14.0582 37.5062C13.9031 37.7 13.6791 37.7881 13.438 37.7881C13.1795 37.7881 12.9728 37.7 12.8177 37.5062C12.6627 37.3124 12.5765 37.0482 12.5765 36.6782C12.5765 36.3083 12.6627 36.0264 12.8177 35.8502C12.9728 35.6741 13.1968 35.5684 13.4552 35.5684C13.7136 35.5684 13.9203 35.6565 14.0926 35.8326C14.2477 36.0088 14.3338 36.2907 14.3338 36.6606C14.2994 37.0306 14.2132 37.3124 14.0582 37.5062Z" fill="white"/>
<path d="M16.8151 37.1012H17.5387V37.5064C17.4353 37.5769 17.3319 37.6474 17.1941 37.7002C17.0563 37.7531 16.9357 37.7707 16.7979 37.7707C16.5222 37.7707 16.3155 37.6826 16.1432 37.4888C15.9709 37.295 15.8848 37.0132 15.8848 36.6256C15.8848 36.2733 15.9709 36.009 16.126 35.8328C16.281 35.6567 16.505 35.5686 16.7806 35.5686C16.9702 35.5686 17.108 35.6214 17.2458 35.7095C17.3664 35.7976 17.4525 35.9209 17.487 36.0795L18.1244 35.9562C18.0555 35.6567 17.9177 35.4276 17.6937 35.2691C17.4698 35.1105 17.1769 35.0225 16.7806 35.0225C16.4878 35.0225 16.2293 35.0753 16.0226 35.181C15.7642 35.3219 15.5575 35.5157 15.4196 35.78C15.2818 36.0442 15.2129 36.3261 15.2129 36.6608C15.2129 36.9779 15.2818 37.2598 15.4024 37.5241C15.523 37.7883 15.7125 37.9821 15.9537 38.123C16.1949 38.264 16.4878 38.3344 16.8151 38.3344C17.0735 38.3344 17.3319 38.2816 17.5731 38.1759C17.8316 38.0702 18.0211 37.9645 18.1589 37.8235V36.5551H16.7979L16.8151 37.1012Z" fill="white"/>
<path d="M19.9848 35.0046C19.7264 35.0046 19.5024 35.0399 19.3129 35.128C19.1579 35.1984 19.0373 35.2865 18.8995 35.4098C18.7789 35.5331 18.6755 35.6917 18.6066 35.8502C18.5032 36.0793 18.4688 36.3435 18.4688 36.6782C18.4688 37.1891 18.6066 37.5943 18.8822 37.8762C19.1579 38.1581 19.5197 38.3166 20.0021 38.3166C20.4844 38.3166 20.829 38.1757 21.1047 37.8762C21.3803 37.5767 21.5181 37.1715 21.5181 36.6606C21.5181 36.1497 21.3803 35.7269 21.1047 35.4274C20.7945 35.1632 20.4328 35.0046 19.9848 35.0046ZM20.605 37.5062C20.4328 37.7 20.226 37.7881 19.9848 37.7881C19.7264 37.7881 19.5197 37.7 19.3646 37.5062C19.1923 37.3124 19.1234 37.0482 19.1234 36.6782C19.1234 36.3083 19.2096 36.0264 19.3646 35.8502C19.5197 35.6741 19.7264 35.5684 20.0021 35.5684C20.2605 35.5684 20.4844 35.6565 20.6395 35.8326C20.7945 36.0088 20.8807 36.2907 20.8807 36.6606C20.8462 37.0306 20.7601 37.3124 20.605 37.5062Z" fill="white"/>
<path d="M23.9984 35.0576H21.5176V35.6037H22.4307V38.2815H23.0853V35.6037H23.9984V35.0576Z" fill="white"/>
<path d="M24.9117 35.0576L23.6885 38.2815H24.3604L24.6188 37.5416H25.8764L26.1521 38.2815H26.8412L25.5836 35.0576H24.9117ZM24.8255 36.9955L25.239 35.8151L25.6697 36.9955H24.8255Z" fill="white"/>
<path d="M25.0156 34.7756H25.4119L26.0149 34.1238H25.3257L25.0156 34.7756Z" fill="white"/>
<path d="M30.8379 35.4275C30.7001 35.2866 30.5451 35.1809 30.3556 35.128C30.2177 35.0928 30.011 35.0752 29.7526 35.0752H28.5811V38.2991H29.7698C30.011 38.2991 30.1833 38.2815 30.3383 38.2286C30.5278 38.1758 30.6657 38.0877 30.7863 37.9644C30.9241 37.8234 31.0447 37.6296 31.1308 37.4006C31.1997 37.2068 31.2342 36.9778 31.2342 36.7136C31.2342 36.4141 31.1997 36.1674 31.1308 35.956C31.0619 35.7446 30.9585 35.5685 30.8379 35.4275ZM30.5106 37.2597C30.4589 37.4006 30.4072 37.5063 30.3383 37.5768C30.2694 37.6473 30.1833 37.6825 30.0799 37.7177C29.9938 37.7353 29.8732 37.753 29.7009 37.753H29.2185V35.6213H29.5114C29.7698 35.6213 29.9421 35.6389 30.0282 35.6566C30.1488 35.6742 30.2522 35.727 30.3211 35.8151C30.4072 35.8856 30.4589 35.9913 30.5106 36.1322C30.5623 36.2555 30.5795 36.4493 30.5795 36.6959C30.5795 36.925 30.5451 37.1188 30.5106 37.2597Z" fill="white"/>
<path d="M33.7672 37.612C33.6466 37.7177 33.5088 37.7706 33.3365 37.7706C33.1126 37.7706 32.9231 37.6825 32.7852 37.5063C32.6474 37.3301 32.5785 37.0483 32.5785 36.6431C32.5785 36.2379 32.6474 35.9913 32.8025 35.8151C32.9403 35.6389 33.1298 35.5508 33.371 35.5508C33.5433 35.5508 33.6811 35.6037 33.8017 35.6918C33.9223 35.7799 34.0084 35.9208 34.0429 36.0793L34.6631 35.9208C34.5942 35.6565 34.4908 35.4628 34.3358 35.3218C34.0946 35.0928 33.7845 34.9695 33.4054 34.9695C32.9747 34.9695 32.613 35.1104 32.3373 35.4099C32.0617 35.7094 31.9238 36.1146 31.9238 36.6607C31.9238 37.1716 32.0617 37.5592 32.3373 37.8586C32.613 38.1405 32.9403 38.2991 33.371 38.2991C33.7156 38.2991 33.9912 38.211 34.2152 38.0348C34.4391 37.8586 34.5942 37.5944 34.6803 37.2421L34.0601 37.0483C33.9567 37.3301 33.8706 37.5063 33.7672 37.612Z" fill="white"/>
<path d="M35.3178 37.6826H34.7148V38.2992H35.3178V37.6826Z" fill="white"/>
<path d="M16.1944 3.62928C16.7457 3.59404 17.1764 3.38264 17.1936 3.10077C17.1936 2.85414 16.7285 2.57227 16.16 2.57227C15.6087 2.6075 15.333 2.88937 15.333 3.136C15.333 3.40026 15.6259 3.66451 16.1944 3.62928Z" fill="white"/>
<path d="M10.6812 20.8407C10.3711 20.3827 9.90592 20.1713 9.68195 20.3122C9.45799 20.4531 9.45799 20.964 9.76809 21.4045C10.0782 21.8625 10.4572 21.9682 10.6812 21.8273C10.9051 21.6863 10.9568 21.2988 10.6812 20.8407Z" fill="white"/>
<path d="M22.2591 3.11818C22.2591 2.87155 21.9662 2.58968 21.4321 2.55444C20.8636 2.55444 20.3984 2.83631 20.3984 3.08295C20.4329 3.36482 20.8464 3.59384 21.3977 3.61145C21.9834 3.6643 22.3108 3.40005 22.2591 3.11818Z" fill="white"/>
<path d="M17.5896 23.6065C17.021 23.5185 16.5387 23.6594 16.4697 23.9236C16.4181 24.1703 16.7799 24.5402 17.3312 24.6635C17.8825 24.7869 18.2442 24.5755 18.2959 24.2936C18.3648 24.0293 18.1236 23.7122 17.5896 23.6065Z" fill="white"/>
<path d="M28.5123 13.195C28.5468 12.6313 28.3056 12.1732 28.0644 12.1556C27.7715 12.1204 27.4614 12.5432 27.4269 13.1245C27.3925 13.653 27.6509 13.9701 27.9093 14.0054C28.185 14.0054 28.4778 13.7235 28.5123 13.195Z" fill="white"/>
<path d="M10.2506 13.1069C10.2162 12.5432 9.90606 12.1204 9.61318 12.138C9.35476 12.1732 9.14802 12.6136 9.18248 13.1774C9.21693 13.7059 9.49258 13.9878 9.751 13.9701C10.0267 13.9525 10.2506 13.653 10.2506 13.1069Z" fill="white"/>
<path d="M28.1684 5.6904C28.4268 5.65517 28.6852 5.35568 28.6508 4.80956C28.6163 4.24582 28.3062 3.82302 28.0305 3.85825C27.7721 3.89349 27.5482 4.33391 27.5654 4.89765C27.5998 5.44377 27.9099 5.72564 28.1684 5.6904Z" fill="white"/>
<path d="M26.9793 20.8407C26.6692 21.2988 26.7208 21.6863 26.9793 21.8273C27.2032 21.9682 27.5822 21.8625 27.8923 21.4045C28.2025 20.9464 28.2025 20.4531 27.9785 20.3122C27.7545 20.1713 27.3066 20.3827 26.9793 20.8407Z" fill="white"/>
<path d="M9.47504 5.6904C9.73346 5.72564 10.0263 5.44377 10.0436 4.89765C10.078 4.33391 9.87129 3.87587 9.61287 3.85825C9.31999 3.82302 9.00988 4.24582 8.97543 4.80956C8.9582 5.35568 9.21662 5.65517 9.47504 5.6904Z" fill="white"/>
<path d="M25.2561 14.4987C25.17 14.4635 24.8254 14.8334 24.8254 14.8334C24.7393 14.5516 24.3086 14.5516 24.3086 14.5516V14.6573C24.6015 14.6925 24.6532 15.0801 24.567 15.221C24.5326 15.3091 24.8599 15.5029 24.9116 15.4148C24.9977 15.2738 25.3767 15.1681 25.5318 15.4148L25.5835 15.3619C25.5835 15.3619 25.4456 14.9744 25.1528 15.0272C25.17 15.0272 25.3423 14.5516 25.2561 14.4987Z" fill="white"/>
<path d="M24.6533 15.3972C24.0331 14.992 23.2578 15.0801 22.9305 15.591C22.6204 16.0843 22.8616 16.7537 23.4474 17.1589C23.0167 17.1941 22.4654 16.6128 22.4654 16.6128C22.2242 17.0708 22.6721 17.3174 22.9994 17.4408C22.9477 17.476 22.9133 17.5112 22.8616 17.5465C22.5343 17.4584 22.4137 17.6169 22.4137 17.6169C22.362 17.5993 21.6384 16.8065 21.1043 16.2428L21.5867 16.1547C21.2422 15.3444 20.3118 15.1682 19.6916 14.6749C19.2265 14.305 19.7433 14.1464 19.8811 14.2697C21.0526 15.2915 22.1208 14.5868 22.1208 14.5868C21.2938 14.305 20.8976 13.336 20.8976 13.336C22.6204 14.3578 23.9297 13.1951 23.9297 13.1951C22.7927 13.3889 21.8968 12.2966 21.8968 12.2966C23.6713 12.7194 24.8945 11.5039 24.8945 11.5039C24.2399 11.5567 22.6032 10.8521 22.6032 10.8521C25.2046 10.764 25.4286 8.87897 25.463 8.87897C24.7395 9.35463 22.8271 9.12561 22.8271 9.12561C25.5492 8.13907 25.3425 5.84888 25.3425 5.84888C24.7739 6.72972 22.138 7.57533 22.138 7.57533C21.4144 7.80435 20.8459 8.45617 20.8459 9.21369C20.8115 9.5308 20.5358 9.77743 20.2085 9.77743C19.5021 9.77743 19.5193 8.73804 19.5193 8.24477C19.5193 7.50486 19.4849 6.65925 18.9853 6.65925H17.9516C17.7621 6.65925 17.452 6.64164 17.3141 6.80019C17.0385 7.11729 17.0902 7.94528 17.2108 7.78673C17.2108 7.78673 17.607 7.68103 17.8654 7.78673C18.1928 7.89243 17.9516 8.93182 17.9516 9.17846C17.9516 9.47795 17.6587 9.77743 17.3141 9.77743C17.004 9.77743 16.7112 9.5308 16.6767 9.21369C16.6767 8.45617 16.1082 7.80435 15.4191 7.57533C15.4191 7.57533 12.7315 6.72972 12.1629 5.84888C12.1629 5.84888 11.9562 8.15668 14.7127 9.17846C14.7127 9.17846 12.7659 9.35463 12.0596 8.86136C12.094 8.86136 12.4214 10.8344 15.04 10.9225C15.04 10.9225 13.3172 11.5215 12.697 11.4334C12.697 11.4334 13.9202 12.878 15.7636 12.4552C15.7636 12.4552 14.7644 13.3889 13.6101 13.1951C13.6101 13.1951 14.9022 14.3754 16.6423 13.3889C16.6423 13.3889 16.2632 14.2873 15.4363 14.5692C15.4363 14.5692 16.4872 15.2739 17.6932 14.2521C17.8482 14.0759 18.3306 14.2697 17.8482 14.6573C17.1936 15.1682 16.2632 15.2915 15.867 16.1371L16.3494 16.2428C15.8153 16.8065 15.0917 17.5993 15.0056 17.6169C15.0056 17.6169 14.9022 17.476 14.5921 17.5288C14.5576 17.4936 14.5232 17.4584 14.4715 17.4231C14.8161 17.2998 15.2468 17.0356 15.0056 16.5951C15.0056 16.5951 14.4543 17.1941 14.0408 17.1413C14.6266 16.7361 14.8505 16.0666 14.5576 15.5734C14.2475 15.0625 13.4723 14.9744 12.8348 15.3796C12.1974 15.7672 11.939 16.5071 12.2663 17.018C12.5592 17.5112 13.2655 17.5993 13.8858 17.247C13.6273 17.6345 13.1277 17.7579 12.921 17.8459C12.921 17.8459 13.2655 18.533 14.058 17.6169C14.1097 17.6522 14.1442 17.6874 14.1786 17.7226C13.9719 17.8812 13.8858 18.163 14.058 18.2864C14.058 18.2864 13.9719 18.7444 14.4887 18.7092C14.4887 18.7092 14.661 18.991 15.0228 18.8325C15.2468 19.4491 15.1779 20.048 15.2468 20.3828L15.9014 20.418C15.8498 20.1185 15.8153 19.1848 15.2985 18.3216C15.4018 18.2335 15.4535 18.1102 15.3501 17.9869C15.3329 17.9516 16.2805 17.3527 16.9868 16.9123L17.073 17.3703C17.3141 17.0356 17.6587 16.8242 18.0722 16.7008C17.6415 17.2998 17.3831 17.9869 17.5381 18.9558C17.5381 18.9558 17.6587 18.5858 18.2272 18.533C18.2272 18.533 17.4175 19.5195 18.7096 21.4398C20.0017 19.5195 19.2609 18.533 19.2609 18.533C19.8295 18.5858 19.9673 18.9558 19.9673 18.9558C20.1051 17.9869 19.8467 17.2822 19.3987 16.6832C19.8122 16.8065 20.1396 17.0356 20.398 17.3703L20.4841 16.9123C21.1732 17.3527 22.1208 17.9693 22.1036 18.0045C22.0002 18.1278 22.0691 18.2511 22.1725 18.3392C21.6556 19.1848 21.6212 20.1361 21.5695 20.4356L22.2242 20.4004C22.2931 20.0657 22.2069 19.4843 22.4309 18.8677C22.7582 19.0087 22.9477 18.7444 22.9477 18.7444C23.4646 18.7796 23.3784 18.3216 23.3784 18.3216C23.5507 18.1983 23.4646 17.934 23.2578 17.7579C23.3095 17.7226 23.344 17.6698 23.3957 17.6345C24.1709 18.5506 24.5327 17.8636 24.5327 17.8636C24.326 17.7931 23.8264 17.6698 23.568 17.2646C24.2054 17.6169 24.8945 17.5288 25.1874 17.0356C25.532 16.5247 25.2735 15.7848 24.6533 15.3972ZM12.9554 16.6656C12.6453 16.1547 12.6453 15.591 12.9037 15.4501C13.1622 15.3091 13.6446 15.5558 13.9547 16.0666C14.2992 16.5423 14.2131 16.9651 13.9547 17.106C13.6962 17.2822 13.2828 17.1765 12.9554 16.6656ZM18.3478 7.52248C18.1756 7.52248 18.055 7.41677 18.055 7.27584C18.055 7.09967 18.1756 6.99397 18.3478 6.99397C18.4857 6.99397 18.6063 7.09967 18.6063 7.27584C18.6063 7.41677 18.4857 7.52248 18.3478 7.52248ZM24.5672 16.6656C24.2226 17.1765 23.8264 17.2822 23.568 17.1237C23.3095 16.9827 23.2234 16.5599 23.568 16.0843C23.8781 15.5734 24.3604 15.3267 24.6189 15.4677C24.8945 15.591 24.8945 16.1547 24.5672 16.6656Z" fill="white"/>
<path d="M12.611 15.4148C12.6627 15.5029 12.99 15.3091 12.9556 15.221C12.8694 15.0801 12.9211 14.6925 13.214 14.6573V14.5516C13.214 14.5516 12.7833 14.5516 12.6971 14.8334C12.6971 14.8334 12.3526 14.4635 12.2664 14.4987C12.1803 14.5516 12.3526 15.0272 12.3526 15.0272C12.0597 14.9744 11.9219 15.3619 11.9219 15.3619L11.9736 15.4148C12.1458 15.1681 12.5249 15.2738 12.611 15.4148Z" fill="white"/>
<path d="M21.4145 18.4449C21.1561 18.1983 20.846 18.0574 20.5531 18.0574C20.5187 18.3921 20.6048 18.7268 20.8632 19.0087C21.0872 19.2905 21.3973 19.4315 21.7246 19.4315C21.7591 19.0968 21.6385 18.7268 21.4145 18.4449Z" fill="white"/>
<path d="M15.7811 19.4315C16.0912 19.4315 16.4186 19.2905 16.6425 19.0087C16.901 18.7268 16.9871 18.3921 16.9527 18.0574C16.6598 18.0574 16.3497 18.1983 16.0912 18.4449C15.8673 18.7268 15.7639 19.0968 15.7811 19.4315Z" fill="white"/>
<path d="M19.3814 6.4303L19.9672 5.51423L19.0541 5.86657L18.7612 5.03857L18.4166 5.86657L17.4863 5.51423L18.0893 6.4303H19.3814Z" fill="white"/>
<path d="M18.7783 0.0352338C15.281 1.90262 11.0256 1.90262 7.52832 0V20.5941C7.52832 23.1133 9.56124 25.1216 12.0765 25.1216C14.5918 25.1216 16.6765 25.4739 18.7783 26.8304C20.8801 25.4916 23.0164 25.1216 25.4456 25.1216C27.8747 25.1216 30.011 23.1133 30.011 20.5941V0C26.5137 1.90262 22.2756 1.885 18.7783 0.0352338ZM27.823 3.2415C27.823 3.2415 27.8747 2.78346 27.9781 2.78346C28.0642 2.74823 28.2021 3.20626 28.2021 3.20626C28.3743 3.0301 28.7189 3.2415 28.7189 3.2415L28.6845 3.32958C28.426 3.22388 28.2021 3.50575 28.2193 3.64669C28.2193 3.73477 27.8403 3.75239 27.8403 3.68192C27.8403 3.54098 27.5819 3.29435 27.3234 3.40005L27.289 3.3472C27.3062 3.32958 27.5646 3.06533 27.823 3.2415ZM28.0298 3.82285C28.7189 3.77 29.3219 4.15757 29.3736 4.7037C29.408 5.21458 28.9429 5.67262 28.3227 5.76071C28.7017 5.90164 29.1152 5.74309 29.3391 5.69024C29.3391 5.69024 29.4253 6.34206 28.4433 6.13066C28.4777 6.65916 28.1504 7.04674 28.0298 7.57524C28.0987 7.46954 28.2021 7.38145 28.3227 7.29337C28.6155 7.1172 28.9429 7.06435 29.2702 7.1172C29.2358 7.38145 29.0635 7.64571 28.8223 7.82188C28.5639 7.99804 28.2882 8.0509 27.9953 8.03328C28.0126 8.27991 28.0815 8.56178 28.2365 8.8965L27.7714 9.26646C27.5474 8.80842 27.4613 7.76903 27.823 7.02912C28.0642 6.53585 28.0987 6.34206 28.0815 6.14828C27.7714 6.27159 27.1511 6.41253 27.065 5.88402C27.065 5.88402 27.7714 6.00734 28.0815 5.77832C27.444 5.76071 26.91 5.37314 26.8583 4.87986C26.8238 4.33374 27.3407 3.85809 28.0298 3.82285ZM28.7878 11.5919L28.7534 11.68C28.4949 11.5743 28.2365 11.8209 28.2365 11.9618C28.2365 12.0499 27.8575 12.0147 27.8575 11.9266C27.8747 11.7857 27.6508 11.5038 27.4096 11.6095L27.3751 11.5214C27.3751 11.5214 27.7197 11.3276 27.892 11.4862C27.892 11.4862 28.047 11.0281 28.1159 11.0634C28.2021 11.0634 28.2537 11.5214 28.2537 11.5214C28.5122 11.3629 28.7878 11.5919 28.7878 11.5919ZM21.397 1.885C21.9138 1.885 22.3273 2.39589 22.3445 3.0301C22.5512 2.64253 22.3962 2.2021 22.3617 1.9907C22.3617 1.9907 23.0164 1.97309 22.7752 2.90678C23.292 2.9244 23.6538 3.25912 24.1535 3.41767C24.0673 3.32958 23.9812 3.2415 23.9295 3.11818C23.7572 2.83631 23.7228 2.50159 23.8089 2.18449C24.0845 2.23734 24.343 2.41351 24.498 2.69538C24.6531 2.95963 24.6875 3.25912 24.6358 3.50575C24.877 3.50575 25.1699 3.47052 25.5145 3.3472L25.859 3.82285C25.3767 3.98141 24.3085 3.98141 23.6022 3.57622C23.137 3.32958 22.9303 3.25911 22.758 3.25911C22.8269 3.5586 22.9303 4.21042 22.3962 4.22804C22.3962 4.22804 22.5685 3.50575 22.3445 3.18865C22.31 3.84047 21.8621 4.33374 21.3108 4.33374C20.7595 4.33374 20.346 3.77 20.3633 3.08295C20.3805 2.41351 20.8457 1.885 21.397 1.885ZM19.8292 2.41351L19.9153 2.44874C19.7775 2.69538 20.0532 2.9244 20.2082 2.9244C20.2944 2.9244 20.2944 3.25911 20.2082 3.25911C20.0359 3.25911 19.7775 3.48813 19.8637 3.77H19.7775C19.7775 3.77 19.5708 3.4529 19.7431 3.25911C19.7431 3.25911 19.2779 3.17103 19.2779 3.08295C19.2779 2.99486 19.7603 2.90678 19.7603 2.90678C19.6225 2.73061 19.8292 2.41351 19.8292 2.41351ZM17.4 2.9244C17.5379 2.9244 17.8307 2.69538 17.6929 2.44874L17.7791 2.41351C17.7791 2.41351 18.003 2.73061 17.8307 2.9244C17.8307 2.9244 18.3131 3.01248 18.3131 3.10056C18.3131 3.18865 17.8652 3.27673 17.8652 3.27673C18.0375 3.47052 17.8307 3.78762 17.8307 3.78762H17.7446C17.8307 3.50575 17.5723 3.27673 17.4 3.27673C17.3139 3.25912 17.3139 2.9244 17.4 2.9244ZM12.0765 3.3472C12.4211 3.47052 12.714 3.52337 12.9552 3.50575C12.9035 3.25912 12.9552 2.95963 13.093 2.69538C13.2308 2.41351 13.4892 2.23734 13.7821 2.18449C13.8683 2.50159 13.8338 2.83631 13.6615 3.11818C13.6098 3.2415 13.5237 3.32958 13.4376 3.41767C13.9372 3.25912 14.299 2.9244 14.8158 2.90678C14.5574 1.97309 15.2121 1.9907 15.2121 1.9907C15.1776 2.2021 15.0398 2.64253 15.2465 3.0301C15.2637 2.39589 15.6772 1.885 16.1941 1.885C16.7626 1.885 17.2278 2.41351 17.2278 3.10056C17.2622 3.78762 16.8315 4.35136 16.2802 4.35136C15.7289 4.35136 15.281 3.84047 15.2465 3.20626C15.0226 3.52337 15.1948 4.24566 15.1948 4.24566C14.678 4.22804 14.7641 3.57622 14.833 3.27673C14.6608 3.27673 14.4368 3.3472 13.9889 3.59384C13.2825 4.01664 12.2144 4.01664 11.732 3.85809L12.0765 3.3472ZM9.4751 3.20626C9.4751 3.20626 9.61292 2.74823 9.69906 2.78346C9.7852 2.78346 9.83689 3.2415 9.83689 3.2415C10.0609 3.06533 10.3537 3.32958 10.3537 3.32958L10.3193 3.38243C10.0609 3.27673 9.80243 3.52337 9.80243 3.6643C9.76798 3.75239 9.42341 3.71715 9.42341 3.62907C9.42341 3.48813 9.21668 3.20626 8.95825 3.31197L8.9238 3.22388C8.95825 3.2415 9.30282 3.04771 9.4751 3.20626ZM9.64738 3.82285C10.3365 3.85809 10.8533 4.33374 10.8189 4.86225C10.7672 5.37314 10.2331 5.74309 9.59569 5.76071C9.92303 5.98973 10.6294 5.86641 10.6294 5.86641C10.5432 6.41253 9.92303 6.25398 9.61292 6.13066C9.57847 6.32444 9.63015 6.51823 9.87134 7.0115C10.2159 7.75141 10.1642 8.7908 9.92303 9.24884L9.45787 8.87889C9.61292 8.54417 9.68184 8.2623 9.68184 8.01566C9.40619 8.03328 9.13054 7.96281 8.87211 7.80426C8.57924 7.62809 8.44141 7.34622 8.40695 7.09959C8.71706 7.04674 9.06162 7.09959 9.3545 7.27575C9.45787 7.34622 9.54401 7.43431 9.61292 7.50477C9.4751 6.99389 9.16499 6.62393 9.21668 6.09543C8.2519 6.30683 8.32081 5.65501 8.32081 5.65501C8.54478 5.70786 8.95825 5.86641 9.33727 5.72547C8.71706 5.61977 8.2519 5.17935 8.28636 4.66846C8.35527 4.17519 8.95825 3.77 9.64738 3.82285ZM10.2504 11.5214L10.2159 11.6095C9.95749 11.5038 9.73352 11.7857 9.75075 11.9266C9.75075 12.0147 9.40619 12.0323 9.38896 11.9618C9.38896 11.8209 9.13054 11.5743 8.87211 11.68L8.83766 11.5919C8.83766 11.5919 9.13054 11.3629 9.3545 11.539C9.3545 11.539 9.40619 11.081 9.49233 11.081C9.57847 11.0458 9.71629 11.5038 9.71629 11.5038C9.92303 11.3276 10.2504 11.5214 10.2504 11.5214ZM8.14853 14.7981C8.45864 14.7629 8.78597 14.8862 9.00994 15.1152C9.18222 15.2562 9.28559 15.4324 9.30282 15.6085C9.33727 15.5204 9.37173 15.4324 9.40619 15.3443C9.63015 14.851 9.68184 14.6572 9.66461 14.4634C9.3545 14.5867 8.71706 14.7277 8.63092 14.1816C8.63092 14.1816 9.38896 14.3049 9.68184 14.0406C9.02717 14.0582 8.47587 13.6707 8.42418 13.1598C8.38973 12.6313 8.90657 12.138 9.59569 12.0852C10.2848 12.0675 10.8878 12.4551 10.9395 12.9836C10.9567 13.4945 10.4916 13.9702 9.83689 14.023C10.2331 14.1992 10.6638 14.023 10.905 13.9702C10.905 13.9702 10.9739 14.622 10.0092 14.4106C10.0953 15.2914 9.13054 15.7847 9.7852 17.194L9.32004 17.564C9.14776 17.2117 9.06162 16.507 9.19945 15.8728C8.90657 15.8904 8.59646 15.7671 8.3725 15.5557C8.18299 15.3443 8.09685 15.0624 8.14853 14.7981ZM8.82043 20.2241L8.76875 20.1713C8.76875 20.1713 8.90657 19.8013 9.19945 19.8542C9.19945 19.8542 8.99271 19.4314 9.07885 19.3785C9.16499 19.3257 9.4751 19.6604 9.4751 19.6604C9.56124 19.4138 9.94026 19.4138 9.94026 19.4138L9.97471 19.5018C9.68184 19.5547 9.63015 19.907 9.71629 20.048C9.76798 20.1008 9.45787 20.2946 9.42341 20.2417C9.33727 20.0832 8.99271 19.9599 8.82043 20.2241ZM12.6278 24.4169C12.5589 24.0646 12.4383 23.8003 12.3005 23.6066C12.0765 23.7827 11.8181 23.8884 11.5425 23.906C11.1979 23.9413 10.8878 23.8003 10.7155 23.5889C10.9223 23.3599 11.2324 23.2014 11.5769 23.2014C11.7148 23.1838 11.8354 23.2014 11.9559 23.2366C11.5425 22.9195 11.0601 22.7962 10.7672 22.3382C10.1125 23.0604 9.7852 22.4967 9.7852 22.4967C9.99194 22.4262 10.4571 22.2853 10.6811 21.8977C10.1125 22.2501 9.45787 22.162 9.14776 21.7216C8.85489 21.2635 9.09608 20.5941 9.66461 20.2241C10.2331 19.8542 10.9567 19.907 11.2324 20.3651C11.5252 20.8055 11.3357 21.4397 10.7844 21.8096C11.1807 21.8449 11.7148 21.3164 11.7148 21.3164C11.9732 21.792 11.3702 22.021 11.0601 22.1267C11.1635 22.3029 11.3185 22.4262 11.8009 22.6729C12.5417 23.0428 13.1102 23.906 13.2308 24.4169H12.6278ZM16.2457 24.0294C16.0735 23.9941 15.7634 24.1703 15.815 24.4522H15.7289C15.7289 24.4522 15.5911 24.1175 15.815 23.9413C15.815 23.9413 15.3671 23.7475 15.3843 23.6594C15.4188 23.6066 15.8667 23.6066 15.8667 23.6066C15.7289 23.3599 16.0046 23.0957 16.0046 23.0957L16.0907 23.1485C15.9184 23.3775 16.1424 23.6594 16.2974 23.677C16.3836 23.7123 16.2974 24.0646 16.2457 24.0294ZM21.5348 24.7869C21.2247 24.5931 20.9663 24.4874 20.7078 24.4522C20.6906 24.7164 20.5872 24.9983 20.3977 25.1921C20.1738 25.4387 19.8809 25.562 19.588 25.562C19.588 25.2449 19.7086 24.9102 19.8981 24.6636C19.9843 24.5755 20.0876 24.505 20.191 24.4522C19.6569 24.505 19.2262 24.7517 18.7094 24.6636C18.7611 25.6325 18.1236 25.4387 18.1236 25.4387C18.1925 25.2273 18.4509 24.8397 18.3304 24.4346C18.1925 25.0511 17.6757 25.4563 17.1416 25.3506C16.6075 25.2097 16.2802 24.5931 16.4008 23.9413C16.5386 23.2718 17.0899 22.8138 17.624 22.9195C18.1408 23.0604 18.4509 23.6066 18.3648 24.2408C18.6577 23.9765 18.6405 23.2895 18.6405 23.2895C19.1745 23.4304 18.9333 24.0117 18.7955 24.2936C18.985 24.3465 19.1918 24.3289 19.7086 24.1879C20.5011 23.9413 21.5692 24.1351 21.9999 24.4169L21.5348 24.7869ZM18.7266 22.6024C17.2794 21.6863 15.9184 21.4925 14.2645 21.4925C12.6106 21.4925 11.3357 20.1537 11.3357 18.4977L11.3185 4.65085C13.1275 5.63739 17.0899 4.96795 18.8127 4.05187C20.5528 4.98557 24.4808 5.61977 26.307 4.65085L26.2897 18.4977C26.2897 20.136 24.8426 21.4925 23.1542 21.4925C21.4659 21.4925 20.1565 21.6863 18.7266 22.6024ZM28.5122 21.7392C28.2193 22.162 27.5819 22.2677 26.9961 21.933C27.2201 22.3029 27.668 22.4262 27.8747 22.4967C27.8747 22.4967 27.5474 23.0781 26.8927 22.3382C26.5998 22.7786 26.1175 22.9019 25.6868 23.2366C25.8074 23.2014 25.928 23.2014 26.0658 23.2014C26.4103 23.2014 26.7032 23.3775 26.9272 23.5889C26.7204 23.7827 26.4448 23.9237 26.1002 23.906C25.8074 23.8884 25.5489 23.7651 25.3422 23.6066C25.2044 23.818 25.0838 24.0646 25.0149 24.4169L24.4119 24.4522C24.5325 23.9413 25.101 23.0781 25.8418 22.7081C26.3242 22.4615 26.4793 22.3205 26.5826 22.162C26.2725 22.0739 25.6695 21.8273 25.928 21.3516C25.928 21.3516 26.4448 21.8625 26.841 21.8449C26.3242 21.4749 26.1175 20.8231 26.4276 20.4003C26.7204 19.9423 27.4268 19.8894 27.9953 20.2594C28.5983 20.6117 28.805 21.2988 28.5122 21.7392ZM28.805 20.2241C28.6672 19.9775 28.3227 20.0832 28.2365 20.2241C28.2021 20.277 27.892 20.0832 27.9264 20.0303C28.0126 19.8894 27.9781 19.5547 27.7024 19.5018L27.7369 19.4138C27.7369 19.4138 28.0987 19.4138 28.2021 19.6604C28.2021 19.6604 28.5122 19.3257 28.5983 19.3785C28.65 19.4314 28.4777 19.8542 28.4777 19.8542C28.7534 19.8013 28.9084 20.1713 28.9084 20.1713L28.805 20.2241ZM29.2358 15.5557C29.029 15.7671 28.7189 15.8728 28.426 15.8728C28.5639 16.507 28.4777 17.2117 28.2882 17.564L27.8403 17.194C28.5294 15.7847 27.5646 15.2914 27.6335 14.4106C26.6515 14.622 26.7549 13.9702 26.7549 13.9702C26.9616 14.023 27.3923 14.1992 27.7886 14.023C27.1339 13.9702 26.6515 13.4945 26.686 12.9836C26.7377 12.4375 27.3407 12.0499 28.0298 12.0852C28.7189 12.138 29.2358 12.6313 29.2013 13.1598C29.1496 13.6707 28.5983 14.0582 27.9436 14.0406C28.2537 14.3049 28.9946 14.1816 28.9946 14.1816C28.9084 14.7277 28.2882 14.5691 27.9781 14.4634C27.9609 14.6572 27.9953 14.851 28.2365 15.3443C28.2882 15.4324 28.3227 15.5204 28.3571 15.6085C28.3916 15.4324 28.4949 15.2386 28.65 15.1152C28.874 14.8862 29.1841 14.7805 29.5286 14.7981C29.5459 15.0624 29.4769 15.3443 29.2358 15.5557Z" fill="white"/>
</svg>
