<svg width="61" height="22" viewBox="0 0 61 22" fill="none" xmlns="http://www.w3.org/2000/svg">
<path d="M0.0380859 11.3733H4.58631V12.8531H1.67476V15.478H4.01778V16.9578H1.67476V19.6532H4.74137V21.133H0.0380859V11.3733Z" fill="white"/>
<path d="M5.98145 11.3733H8.63457C10.9948 11.3733 12.4764 13.1526 12.4764 16.2355C12.4764 19.3185 10.9776 21.133 8.63457 21.133H5.98145V11.3733ZM8.56566 19.6356C9.96114 19.6356 10.7881 18.4553 10.7881 16.2355C10.7881 14.0158 9.94391 12.8707 8.56566 12.8707H7.61812V19.6356H8.56566Z" fill="white"/>
<path d="M13.751 11.3733H15.3704V17.962C15.3704 19.1775 15.9217 19.7413 16.7831 19.7413C17.6445 19.7413 18.1958 19.1952 18.1958 17.962V11.3733H19.8325V17.9796C19.8325 20.0408 18.6265 21.2916 16.8004 21.2916C14.9742 21.2916 13.751 20.0408 13.751 17.9796V11.3733Z" fill="white"/>
<path d="M25.26 11.2148C26.087 11.2148 26.9656 11.4615 27.5858 12.0252L26.8967 13.4698C26.5694 13.0998 25.8975 12.8004 25.3117 12.8004C23.6578 12.8004 22.7619 14.3154 22.7619 16.1828C22.7619 18.0502 23.7095 19.7238 25.2945 19.7238C26.0008 19.7238 26.5866 19.4067 27.069 19.0015L27.7409 20.4108C27.1379 20.9217 26.3454 21.2917 25.1739 21.2917C22.5897 21.2917 21.0908 19.1248 21.0908 16.2356C21.108 13.3289 22.6241 11.2148 25.26 11.2148Z" fill="white"/>
<path d="M30.5143 11.3733H32.2888L34.8041 21.133H33.1502L32.5645 18.6138H30.2214L29.6357 21.133H27.999L30.5143 11.3733ZM32.3233 17.2221L31.7203 14.5972C31.5825 14.0334 31.4446 13.0821 31.4446 13.0821H31.4102C31.4102 13.0821 31.2551 14.0334 31.1345 14.5972L30.5143 17.2221H32.3233Z" fill="white"/>
<path d="M39.3176 11.2148C40.1446 11.2148 41.0232 11.4615 41.6434 12.0252L40.9543 13.4698C40.627 13.0998 39.9551 12.8004 39.3693 12.8004C37.7154 12.8004 36.8196 14.3154 36.8196 16.1828C36.8196 18.0502 37.7671 19.7238 39.3521 19.7238C40.0584 19.7238 40.6442 19.4067 41.1266 19.0015L41.7985 20.4108C41.1955 20.9217 40.403 21.2917 39.2315 21.2917C36.6473 21.2917 35.1484 19.1248 35.1484 16.2356C35.1484 13.3465 36.699 11.2148 39.3176 11.2148Z" fill="white"/>
<path d="M42.8496 11.3733H44.4863V21.133H42.8496V11.3733Z" fill="white"/>
<path d="M49.6544 11.2149C52.0146 11.2149 53.4962 13.2585 53.4962 16.2005C53.4962 19.1425 51.9974 21.2917 49.6544 21.2917C47.3114 21.2917 45.8125 19.1777 45.8125 16.1829C45.8297 13.2761 47.2941 11.2149 49.6544 11.2149ZM49.6544 19.6886C50.9982 19.6886 51.8079 18.2969 51.8079 16.2005C51.8079 14.1041 50.9982 12.818 49.6544 12.818C48.3106 12.818 47.4836 14.1393 47.4836 16.1829C47.4836 18.2264 48.2934 19.6886 49.6544 19.6886ZM49.7233 8.85425H51.3427L50.1712 10.7393H48.9136L49.7233 8.85425Z" fill="white"/>
<path d="M54.8232 11.3733H56.5461L59.0097 16.905C59.2681 17.5039 59.4921 18.3848 59.4921 18.3848H59.5437C59.5437 18.3848 59.4576 17.4687 59.4576 16.8874V11.3733H60.9909V21.133H59.2853L56.8217 15.6013C56.5633 15.0024 56.3393 14.1215 56.3393 14.1215H56.2876C56.2876 14.1215 56.3738 15.0376 56.3738 15.6189V21.1506H54.8232V11.3733Z" fill="white"/>
<path d="M9.44472 6.37025C9.66869 6.61688 9.99602 6.82828 10.3578 6.82828C10.7713 6.82828 11.0125 6.54641 11.0125 6.15884C11.0125 5.1723 9.15184 5.18992 9.15184 3.63964C9.15184 2.77641 9.7376 2.08936 10.7196 2.08936C11.1331 2.08936 11.5466 2.21267 11.8911 2.44169L11.5638 3.26968C11.3743 3.11113 11.0125 2.95258 10.7368 2.95258C10.2889 2.95258 10.0649 3.25207 10.0649 3.62202C10.0649 4.60856 11.9428 4.52048 11.9428 6.12361C11.9428 6.98684 11.426 7.69151 10.4095 7.69151C9.92711 7.69151 9.41027 7.51534 9.03125 7.163L9.44472 6.37025Z" fill="white"/>
<path d="M12.6315 2.19507H15.1468V3.02306H13.5274V4.46764H14.8195V5.29563H13.5274V6.79306H15.2329V7.62105H12.6143L12.6315 2.19507Z" fill="white"/>
<path d="M17.955 2.08936C18.4029 2.08936 18.9025 2.23029 19.2471 2.54739L18.868 3.34015C18.6958 3.12875 18.3167 2.9702 17.9894 2.9702C17.0763 2.9702 16.5767 3.8158 16.5767 4.8552C16.5767 5.89459 17.1108 6.82828 17.9722 6.82828C18.3684 6.82828 18.6958 6.65212 18.9542 6.4231L19.3332 7.21585C19.0059 7.49772 18.5579 7.70913 17.9033 7.70913C16.4733 7.70913 15.6292 6.51118 15.6292 4.90805C15.6119 3.26968 16.4733 2.08936 17.955 2.08936Z" fill="white"/>
<path d="M19.9189 2.19507H21.4523C21.659 2.19507 21.9174 2.24792 22.1414 2.37124C22.6065 2.60026 22.9339 3.11114 22.9339 3.81582C22.9339 4.52049 22.5548 5.06661 22.1586 5.29563V5.31325C22.1586 5.31325 22.2275 5.41895 22.3137 5.59512L23.1923 7.60344H22.1931L21.3833 5.5775H20.8148V7.60344H19.9189V2.19507ZM21.2972 4.74951C21.6762 4.74951 22.0035 4.41479 22.0035 3.86867C22.0035 3.55156 21.9002 3.28731 21.7279 3.14638C21.6073 3.05829 21.4522 3.02306 21.3144 3.02306H20.8148V4.76713L21.2972 4.74951Z" fill="white"/>
<path d="M23.7432 2.19507H26.2757V3.02306H24.6563V4.46764H25.9484V5.29563H24.6563V6.79306H26.3618V7.62105H23.7432V2.19507Z" fill="white"/>
<path d="M27.9468 3.00548H26.6719V2.17749H30.1347V3.00548H28.8426V7.60347H27.9468V3.00548Z" fill="white"/>
<path d="M31.2382 2.19507H32.2203L33.6157 7.62105H32.7026L32.3753 6.22932H31.0832L30.7559 7.62105H29.8428L31.2382 2.19507ZM32.2547 5.43657L31.9274 3.97437C31.8585 3.65727 31.7723 3.12876 31.7723 3.12876H31.7551C31.7551 3.12876 31.6689 3.65727 31.6 3.97437L31.2555 5.43657H32.2547Z" fill="white"/>
<path d="M34.1491 2.19507H35.6824C35.8891 2.19507 36.1475 2.24792 36.3715 2.37124C36.8367 2.60026 37.164 3.11114 37.164 3.81582C37.164 4.52049 36.785 5.06661 36.3887 5.29563V5.31325C36.3887 5.31325 36.4576 5.41895 36.5438 5.59512L37.4224 7.60344H36.4232L35.6135 5.5775H35.0449V7.60344H34.1318L34.1491 2.19507ZM35.5273 4.74951C35.9063 4.74951 36.2337 4.41479 36.2337 3.86867C36.2337 3.55156 36.1303 3.28731 35.958 3.14638C35.8374 3.05829 35.6824 3.02306 35.5445 3.02306H35.0449V4.76713L35.5273 4.74951Z" fill="white"/>
<path d="M38.0088 2.19499H38.9219V7.62098H38.0088V2.19499ZM38.5256 0.785645H39.4215L38.7668 1.82504H38.0605L38.5256 0.785645Z" fill="white"/>
<path d="M40.7998 2.19507H41.7818L43.1772 7.62105H42.2642L41.9368 6.22932H40.6447L40.3174 7.62105H39.4043L40.7998 2.19507ZM41.799 5.43657L41.4717 3.97437C41.4028 3.65727 41.3166 3.12876 41.3166 3.12876H41.2994C41.2994 3.12876 41.2132 3.65727 41.1443 3.97437L40.7998 5.43657H41.799Z" fill="white"/>
<path d="M45.0029 2.19507H46.4673C47.7767 2.19507 48.6036 3.18161 48.6036 4.89044C48.6036 6.59928 47.7767 7.60344 46.4673 7.60344H45.0029V2.19507ZM46.4501 6.77545C47.2254 6.77545 47.6733 6.12362 47.6733 4.89044C47.6733 3.65727 47.2081 3.02306 46.4501 3.02306H45.9332V6.77545H46.4501Z" fill="white"/>
<path d="M49.362 2.19507H51.8773V3.02306H50.2578V4.46764H51.5499V5.29563H50.2578V6.79306H51.9634V7.62105H49.3447L49.362 2.19507Z" fill="white"/>
</svg>
