<svg id="Capa_1" data-name="Capa 1" xmlns="http://www.w3.org/2000/svg" viewBox="0 0 400 400"><defs><style>.cls-1{fill:#225db3;}.cls-2{fill:#f3b33f;}.cls-3{fill:#fff;}</style></defs><rect class="cls-1" width="400" height="400"/><rect class="cls-2" x="71.29" y="271.87" width="253.34" height="24.74"/><path class="cls-3" d="M229.21,198.78q8.21,19.38,33.17,19.38,17.31,0,27.59-11.16l34.64,23.49q-21.44,27.88-56.36,27.88-27.9,0-45.5-18.49v14.38H178.43v-12q-14.69,16.14-40.51,16.14-29.35,0-49.76-22.31t-20.4-55.18q0-32.88,20.4-55.19t49.76-22.3q25.83,0,40.51,16.14v-12h44.32V121q16.73-17.61,42.86-17.61,29.64,0,48.13,21.86t18.5,55.33a77.34,77.34,0,0,1-2.06,18.2ZM125.3,203.63q8.51,8.66,22.3,8.66t22.31-8.66q8.52-8.65,8.52-22.75t-8.52-22.75q-8.52-8.65-22.31-8.66t-22.3,8.66q-8.52,8.66-8.52,22.75T125.3,203.63Zm103-38.9H285q-5.88-20.25-27.59-20.25Q235.07,144.48,228.33,164.73Z"/></svg>