<svg xmlns="http://www.w3.org/2000/svg" xmlns:xlink="http://www.w3.org/1999/xlink" width="100" zoomAndPan="magnify" viewBox="0 0 75 74.999997" height="100" preserveAspectRatio="xMidYMid meet" version="1.0"><path fill="#d7e3ff" d="M 64.015625 10.984375 C 56.933594 3.902344 47.515625 0 37.5 0 C 27.484375 0 18.066406 3.902344 10.984375 10.984375 C 3.902344 18.066406 0 27.484375 0 37.5 C 0 47.515625 3.902344 56.933594 10.984375 64.015625 C 18.066406 71.097656 27.484375 75 37.5 75 C 47.515625 75 56.933594 71.097656 64.015625 64.015625 C 71.097656 56.933594 75 47.515625 75 37.5 C 75 27.484375 71.097656 18.066406 64.015625 10.984375 Z M 12.683594 12.683594 C 19.3125 6.058594 28.125 2.40625 37.5 2.40625 C 46.875 2.40625 55.6875 6.058594 62.3125 12.683594 C 68.941406 19.3125 72.59375 28.125 72.59375 37.5 C 72.59375 45.292969 70.066406 52.695312 65.410156 58.777344 C 61.699219 53.59375 55.78125 50.53125 49.351562 50.53125 L 25.648438 50.53125 C 19.21875 50.53125 13.296875 53.59375 9.589844 58.777344 C 4.929688 52.695312 2.40625 45.292969 2.40625 37.5 C 2.40625 28.125 6.058594 19.3125 12.683594 12.683594 Z M 37.5 48.554688 C 47.132812 48.554688 54.972656 40.71875 54.972656 31.082031 C 54.972656 21.449219 47.132812 13.609375 37.5 13.609375 C 27.863281 13.609375 20.027344 21.449219 20.027344 31.082031 C 20.027344 40.71875 27.863281 48.554688 37.5 48.554688 Z M 37.5 48.554688 " fill-opacity="1" fill-rule="nonzero"/></svg>