<svg width="25" height="25" viewBox="0 0 25 25" fill="none" xmlns="http://www.w3.org/2000/svg">
<mask id="mask0_1733_3835" style="mask-type:alpha" maskUnits="userSpaceOnUse" x="0" y="0" width="25" height="25">
<rect x="0.664412" y="0.379883" width="24" height="24" fill="#D9D9D9"/>
</mask>
<g mask="url(#mask0_1733_3835)">
<path d="M11.6452 14.8801H13.6836L13.1279 11.7897C13.4228 11.6872 13.666 11.5064 13.8577 11.2474C14.0494 10.9884 14.1452 10.6993 14.1452 10.3801C14.1452 9.97112 14.0006 9.62208 13.7115 9.33298C13.4224 9.04388 13.0734 8.89933 12.6644 8.89933C12.2554 8.89933 11.9064 9.04388 11.6173 9.33298C11.3282 9.62208 11.1836 9.97112 11.1836 10.3801C11.1836 10.6993 11.2795 10.9884 11.4711 11.2474C11.6628 11.5064 11.9061 11.6872 12.2009 11.7897L11.6452 14.8801ZM12.6644 21.3417C10.6554 20.7455 8.98652 19.5285 7.65769 17.6907C6.32884 15.8529 5.66441 13.7827 5.66441 11.4801V6.07241L12.6644 3.45703L19.6644 6.07241V11.4801C19.6644 13.7827 19 15.8529 17.6711 17.6907C16.3423 19.5285 14.6734 20.7455 12.6644 21.3417ZM12.6644 20.2801C14.3977 19.7301 15.8311 18.6301 16.9644 16.9801C18.0977 15.3301 18.6644 13.4968 18.6644 11.4801V6.75511L12.6644 4.52433L6.66441 6.75511V11.4801C6.66441 13.4968 7.23108 15.3301 8.36441 16.9801C9.49774 18.6301 10.9311 19.7301 12.6644 20.2801Z" fill="#1C1B1F"/>
</g>
</svg>
