<svg width="24" height="24" viewBox="0 0 24 24" fill="none" xmlns="http://www.w3.org/2000/svg">
<mask id="mask0_1733_3828" style="mask-type:alpha" maskUnits="userSpaceOnUse" x="0" y="0" width="24" height="24">
<rect width="24" height="24" fill="#D9D9D9"/>
</mask>
<g mask="url(#mask0_1733_3828)">
<path d="M4.11538 19.3466V18.3466H7.21152L6.15768 17.3043C5.38076 16.5504 4.82051 15.7235 4.47692 14.8235C4.13332 13.9235 3.96152 13.012 3.96152 12.0889C3.96152 10.4825 4.41954 9.02897 5.33558 7.72832C6.25161 6.42769 7.46027 5.49916 8.96155 4.94275V6.0043C7.74872 6.51455 6.77884 7.32256 6.05192 8.42832C5.32501 9.53411 4.96155 10.7543 4.96155 12.0889C4.96155 12.903 5.11603 13.6931 5.425 14.4591C5.73397 15.2251 6.21409 15.9338 6.86537 16.5851L7.8846 17.6043V14.5774H8.88463V19.3466H4.11538ZM19.9058 10.6735H18.9C18.7782 10.0902 18.5734 9.52224 18.2856 8.96967C17.9978 8.41711 17.6141 7.89916 17.1346 7.41582L16.1154 6.3966V9.42352H15.1154V4.6543H19.8846V5.6543H16.7885L17.8423 6.6966C18.4231 7.29403 18.8808 7.92672 19.2154 8.59467C19.55 9.26262 19.7801 9.95557 19.9058 10.6735ZM17 20.8081L16.8923 19.9428C16.5128 19.8594 16.2003 19.7431 15.9548 19.5937C15.7093 19.4444 15.4756 19.2582 15.2538 19.0351L14.4577 19.3889L13.8808 18.5351L14.5885 17.9581C14.4654 17.5966 14.4038 17.2517 14.4038 16.9235C14.4038 16.5953 14.4654 16.2505 14.5885 15.8889L13.8808 15.312L14.4577 14.4581L15.2538 14.812C15.4756 14.5889 15.7093 14.4027 15.9548 14.2533C16.2003 14.104 16.5128 13.9876 16.8923 13.9043L17 13.0389H18L18.1077 13.9043C18.4872 13.9876 18.7997 14.1049 19.0452 14.2562C19.2907 14.4075 19.5244 14.5966 19.7462 14.8235L20.5423 14.4581L21.1193 15.3235L20.4116 15.9004C20.5346 16.2543 20.5962 16.5972 20.5962 16.9293C20.5962 17.2613 20.5346 17.6043 20.4116 17.9581L21.1193 18.5351L20.5423 19.3889L19.7462 19.0351C19.5244 19.2582 19.2907 19.4444 19.0452 19.5937C18.7997 19.7431 18.4872 19.8594 18.1077 19.9428L18 20.8081H17ZM17.5 19.0774C18.0885 19.0774 18.5946 18.8655 19.0183 18.4418C19.442 18.0181 19.6538 17.512 19.6538 16.9235C19.6538 16.3351 19.442 15.829 19.0183 15.4053C18.5946 14.9816 18.0885 14.7697 17.5 14.7697C16.9115 14.7697 16.4054 14.9816 15.9817 15.4053C15.558 15.829 15.3462 16.3351 15.3462 16.9235C15.3462 17.512 15.558 18.0181 15.9817 18.4418C16.4054 18.8655 16.9115 19.0774 17.5 19.0774Z" fill="#1C1B1F"/>
</g>
</svg>
