<svg xmlns="http://www.w3.org/2000/svg" xmlns:xlink="http://www.w3.org/1999/xlink" width="250" zoomAndPan="magnify" viewBox="0 0 187.5 187.499992" height="250" preserveAspectRatio="xMidYMid meet" version="1.0"><defs><filter x="0%" y="0%" width="100%" height="100%" id="f8b1601180"><feColorMatrix values="0 0 0 0 1 0 0 0 0 1 0 0 0 0 1 0 0 0 1 0" color-interpolation-filters="sRGB"/></filter><clipPath id="7b4e23f4a5"><path d="M 5 6 L 182 6 L 182 182.835938 L 5 182.835938 Z M 5 6 " clip-rule="nonzero"/></clipPath><mask id="3430bcbd2b"><g filter="url(#f8b1601180)"><rect x="-18.75" width="225" fill="#000000" y="-18.749999" height="224.99999" fill-opacity="0.2"/></g></mask><clipPath id="be4bdf1519"><path d="M 0.503906 1 L 176.675781 1 L 176.675781 176.835938 L 0.503906 176.835938 Z M 0.503906 1 " clip-rule="nonzero"/></clipPath><clipPath id="458c004627"><rect x="0" width="177" y="0" height="177"/></clipPath><clipPath id="5ad6c54625"><path d="M 155 9 L 187 9 L 187 37 L 155 37 Z M 155 9 " clip-rule="nonzero"/></clipPath><clipPath id="7516f16b80"><path d="M 58 4.335938 L 91 4.335938 L 91 34 L 58 34 Z M 58 4.335938 " clip-rule="nonzero"/></clipPath><clipPath id="f04cfbafdc"><path d="M 61 6.234375 L 88 6.234375 L 88 31 L 61 31 Z M 61 6.234375 " clip-rule="nonzero"/></clipPath><clipPath id="7995e80329"><path d="M 67.785156 7.0625 L 86.203125 12.476562 C 86.699219 12.625 87.070312 12.921875 87.316406 13.375 C 87.5625 13.824219 87.613281 14.296875 87.464844 14.792969 L 83.078125 29.660156 C 82.933594 30.152344 82.632812 30.523438 82.179688 30.769531 C 81.726562 31.015625 81.253906 31.066406 80.761719 30.921875 L 62.34375 25.503906 C 61.847656 25.359375 61.476562 25.058594 61.230469 24.609375 C 60.984375 24.15625 60.933594 23.683594 61.078125 23.191406 L 65.46875 8.320312 C 65.613281 7.828125 65.914062 7.457031 66.367188 7.210938 C 66.816406 6.964844 67.292969 6.917969 67.785156 7.0625 Z M 67.785156 7.0625 " clip-rule="nonzero"/></clipPath><clipPath id="17111716a1"><path d="M 60.1875 6.234375 L 88 6.234375 L 88 31.667969 L 60.1875 31.667969 Z M 60.1875 6.234375 " clip-rule="nonzero"/></clipPath><clipPath id="5db839aa2a"><path d="M 67.785156 7.0625 L 86.203125 12.476562 C 86.699219 12.625 87.070312 12.921875 87.316406 13.375 C 87.5625 13.824219 87.613281 14.296875 87.464844 14.792969 L 83.078125 29.660156 C 82.933594 30.152344 82.632812 30.523438 82.179688 30.769531 C 81.726562 31.015625 81.253906 31.066406 80.761719 30.921875 L 62.34375 25.503906 C 61.847656 25.359375 61.476562 25.058594 61.230469 24.609375 C 60.984375 24.15625 60.933594 23.683594 61.078125 23.191406 L 65.46875 8.320312 C 65.613281 7.828125 65.914062 7.457031 66.367188 7.210938 C 66.816406 6.964844 67.292969 6.917969 67.785156 7.0625 Z M 67.785156 7.0625 " clip-rule="nonzero"/></clipPath><clipPath id="146fa4bc01"><path d="M 60.1875 15 L 88 15 L 88 31.667969 L 60.1875 31.667969 Z M 60.1875 15 " clip-rule="nonzero"/></clipPath><clipPath id="fe1d7dd0ac"><path d="M 67.785156 7.0625 L 86.203125 12.476562 C 86.699219 12.625 87.070312 12.921875 87.316406 13.375 C 87.5625 13.824219 87.613281 14.296875 87.464844 14.792969 L 83.078125 29.660156 C 82.933594 30.152344 82.632812 30.523438 82.179688 30.769531 C 81.726562 31.015625 81.253906 31.066406 80.761719 30.921875 L 62.34375 25.503906 C 61.847656 25.359375 61.476562 25.058594 61.230469 24.609375 C 60.984375 24.15625 60.933594 23.683594 61.078125 23.191406 L 65.46875 8.320312 C 65.613281 7.828125 65.914062 7.457031 66.367188 7.210938 C 66.816406 6.964844 67.292969 6.917969 67.785156 7.0625 Z M 67.785156 7.0625 " clip-rule="nonzero"/></clipPath><clipPath id="236439c95e"><path d="M 0 106 L 43 106 L 43 182.835938 L 0 182.835938 Z M 0 106 " clip-rule="nonzero"/></clipPath><clipPath id="f494009801"><path d="M 12 105 L 85 105 L 85 182.835938 L 12 182.835938 Z M 12 105 " clip-rule="nonzero"/></clipPath><clipPath id="aa16bf5df6"><path d="M 0 152 L 4 152 L 4 182.835938 L 0 182.835938 Z M 0 152 " clip-rule="nonzero"/></clipPath></defs><g clip-path="url(#7b4e23f4a5)"><g mask="url(#3430bcbd2b)"><g transform="matrix(1, 0, 0, 1, 5, 6)"><g clip-path="url(#458c004627)"><g clip-path="url(#be4bdf1519)"><path fill="#abc7ff" d="M 88.574219 1.40625 C 90.011719 1.40625 91.449219 1.441406 92.886719 1.511719 C 94.320312 1.582031 95.753906 1.6875 97.1875 1.828125 C 98.617188 1.96875 100.042969 2.144531 101.464844 2.355469 C 102.890625 2.566406 104.304688 2.8125 105.714844 3.09375 C 107.125 3.371094 108.527344 3.6875 109.921875 4.035156 C 111.316406 4.382812 112.703125 4.765625 114.078125 5.183594 C 115.457031 5.601562 116.820312 6.050781 118.175781 6.535156 C 119.527344 7.019531 120.871094 7.535156 122.199219 8.082031 C 123.527344 8.632812 124.839844 9.214844 126.140625 9.828125 C 127.441406 10.441406 128.722656 11.085938 129.992188 11.761719 C 131.261719 12.441406 132.511719 13.148438 133.746094 13.886719 C 134.976562 14.621094 136.191406 15.390625 137.386719 16.1875 C 138.585938 16.984375 139.757812 17.8125 140.914062 18.667969 C 142.070312 19.519531 143.203125 20.402344 144.3125 21.316406 C 145.425781 22.226562 146.515625 23.164062 147.578125 24.125 C 148.644531 25.089844 149.6875 26.078125 150.703125 27.09375 C 151.71875 28.109375 152.710938 29.148438 153.675781 30.210938 C 154.640625 31.277344 155.582031 32.363281 156.492188 33.472656 C 157.40625 34.582031 158.289062 35.710938 159.148438 36.867188 C 160.003906 38.019531 160.832031 39.191406 161.628906 40.382812 C 162.429688 41.578125 163.199219 42.789062 163.9375 44.019531 C 164.675781 45.253906 165.386719 46.5 166.0625 47.765625 C 166.742188 49.03125 167.386719 50.3125 168 51.613281 C 168.617188 52.910156 169.199219 54.222656 169.75 55.546875 C 170.300781 56.875 170.816406 58.210938 171.300781 59.5625 C 171.785156 60.914062 172.238281 62.277344 172.652344 63.652344 C 173.070312 65.023438 173.453125 66.40625 173.804688 67.800781 C 174.152344 69.191406 174.46875 70.589844 174.75 72 C 175.03125 73.40625 175.277344 74.820312 175.488281 76.242188 C 175.699219 77.660156 175.875 79.085938 176.015625 80.511719 C 176.15625 81.941406 176.261719 83.371094 176.332031 84.804688 C 176.402344 86.238281 176.4375 87.675781 176.4375 89.109375 C 176.4375 90.542969 176.402344 91.980469 176.332031 93.414062 C 176.261719 94.847656 176.15625 96.277344 176.015625 97.707031 C 175.875 99.132812 175.699219 100.558594 175.488281 101.976562 C 175.277344 103.398438 175.03125 104.8125 174.75 106.21875 C 174.46875 107.625 174.152344 109.027344 173.804688 110.417969 C 173.453125 111.8125 173.070312 113.195312 172.652344 114.566406 C 172.238281 115.941406 171.785156 117.304688 171.300781 118.65625 C 170.816406 120.007812 170.300781 121.34375 169.75 122.671875 C 169.199219 123.996094 168.617188 125.308594 168 126.605469 C 167.386719 127.902344 166.742188 129.1875 166.0625 130.453125 C 165.386719 131.71875 164.675781 132.964844 163.9375 134.195312 C 163.199219 135.429688 162.429688 136.640625 161.628906 137.832031 C 160.832031 139.027344 160.003906 140.199219 159.148438 141.351562 C 158.289062 142.507812 157.40625 143.636719 156.492188 144.746094 C 155.582031 145.855469 154.640625 146.941406 153.675781 148.007812 C 152.710938 149.070312 151.71875 150.109375 150.703125 151.125 C 149.6875 152.140625 148.644531 153.128906 147.578125 154.09375 C 146.515625 155.054688 145.425781 155.992188 144.3125 156.902344 C 143.203125 157.8125 142.070312 158.695312 140.914062 159.550781 C 139.757812 160.40625 138.585938 161.234375 137.386719 162.03125 C 136.191406 162.828125 134.976562 163.597656 133.746094 164.332031 C 132.511719 165.070312 131.261719 165.777344 129.992188 166.457031 C 128.722656 167.132812 127.441406 167.777344 126.140625 168.390625 C 124.839844 169.003906 123.527344 169.585938 122.199219 170.136719 C 120.871094 170.683594 119.527344 171.199219 118.175781 171.683594 C 116.820312 172.167969 115.457031 172.617188 114.078125 173.035156 C 112.703125 173.453125 111.316406 173.835938 109.921875 174.183594 C 108.527344 174.53125 107.125 174.847656 105.714844 175.125 C 104.304688 175.40625 102.890625 175.652344 101.464844 175.863281 C 100.042969 176.074219 98.617188 176.25 97.1875 176.390625 C 95.753906 176.53125 94.320312 176.636719 92.886719 176.707031 C 91.449219 176.777344 90.011719 176.8125 88.574219 176.8125 C 87.136719 176.8125 85.699219 176.777344 84.261719 176.707031 C 82.828125 176.636719 81.394531 176.53125 79.960938 176.390625 C 78.53125 176.25 77.105469 176.074219 75.683594 175.863281 C 74.257812 175.652344 72.84375 175.40625 71.433594 175.125 C 70.023438 174.847656 68.621094 174.53125 67.226562 174.183594 C 65.832031 173.835938 64.445312 173.453125 63.070312 173.035156 C 61.691406 172.617188 60.328125 172.167969 58.972656 171.683594 C 57.621094 171.199219 56.277344 170.683594 54.949219 170.136719 C 53.621094 169.585938 52.308594 169.003906 51.007812 168.390625 C 49.707031 167.777344 48.425781 167.132812 47.15625 166.457031 C 45.886719 165.777344 44.636719 165.070312 43.402344 164.332031 C 42.171875 163.597656 40.957031 162.828125 39.761719 162.03125 C 38.566406 161.234375 37.390625 160.40625 36.234375 159.550781 C 35.078125 158.695312 33.945312 157.8125 32.835938 156.902344 C 31.722656 155.992188 30.632812 155.054688 29.570312 154.09375 C 28.503906 153.128906 27.460938 152.140625 26.445312 151.125 C 25.429688 150.109375 24.4375 149.070312 23.472656 148.007812 C 22.507812 146.941406 21.566406 145.855469 20.65625 144.746094 C 19.742188 143.636719 18.859375 142.507812 18 141.351562 C 17.144531 140.199219 16.316406 139.027344 15.519531 137.832031 C 14.71875 136.640625 13.949219 135.429688 13.210938 134.195312 C 12.472656 132.964844 11.765625 131.71875 11.085938 130.453125 C 10.40625 129.1875 9.761719 127.902344 9.148438 126.605469 C 8.53125 125.308594 7.949219 123.996094 7.398438 122.671875 C 6.847656 121.34375 6.332031 120.007812 5.847656 118.65625 C 5.363281 117.304688 4.910156 115.941406 4.496094 114.566406 C 4.078125 113.195312 3.695312 111.8125 3.34375 110.417969 C 2.996094 109.027344 2.679688 107.625 2.398438 106.21875 C 2.117188 104.8125 1.875 103.398438 1.660156 101.976562 C 1.449219 100.558594 1.273438 99.132812 1.132812 97.707031 C 0.992188 96.277344 0.886719 94.847656 0.816406 93.414062 C 0.746094 91.980469 0.710938 90.542969 0.710938 89.109375 C 0.710938 87.675781 0.746094 86.238281 0.816406 84.804688 C 0.886719 83.371094 0.992188 81.941406 1.132812 80.511719 C 1.273438 79.085938 1.449219 77.660156 1.660156 76.242188 C 1.875 74.820312 2.117188 73.40625 2.398438 72 C 2.679688 70.589844 2.996094 69.191406 3.34375 67.800781 C 3.695312 66.40625 4.078125 65.023438 4.496094 63.652344 C 4.910156 62.277344 5.363281 60.914062 5.847656 59.5625 C 6.332031 58.210938 6.847656 56.875 7.398438 55.546875 C 7.949219 54.222656 8.53125 52.910156 9.148438 51.613281 C 9.761719 50.3125 10.40625 49.03125 11.085938 47.765625 C 11.765625 46.5 12.472656 45.253906 13.210938 44.019531 C 13.949219 42.789062 14.71875 41.578125 15.519531 40.382812 C 16.316406 39.191406 17.144531 38.019531 18 36.867188 C 18.859375 35.710938 19.742188 34.582031 20.65625 33.472656 C 21.566406 32.363281 22.507812 31.277344 23.472656 30.210938 C 24.4375 29.148438 25.429688 28.109375 26.445312 27.09375 C 27.460938 26.078125 28.503906 25.089844 29.570312 24.125 C 30.632812 23.164062 31.722656 22.226562 32.835938 21.316406 C 33.945312 20.402344 35.078125 19.519531 36.234375 18.667969 C 37.390625 17.8125 38.566406 16.984375 39.761719 16.1875 C 40.957031 15.390625 42.171875 14.621094 43.402344 13.886719 C 44.636719 13.148438 45.886719 12.441406 47.15625 11.761719 C 48.425781 11.085938 49.707031 10.441406 51.007812 9.828125 C 52.308594 9.214844 53.621094 8.632812 54.949219 8.082031 C 56.277344 7.535156 57.621094 7.019531 58.972656 6.535156 C 60.328125 6.050781 61.691406 5.601562 63.070312 5.183594 C 64.445312 4.765625 65.832031 4.382812 67.226562 4.035156 C 68.621094 3.6875 70.023438 3.371094 71.433594 3.09375 C 72.84375 2.8125 74.257812 2.566406 75.683594 2.355469 C 77.105469 2.144531 78.53125 1.96875 79.960938 1.828125 C 81.394531 1.6875 82.828125 1.582031 84.261719 1.511719 C 85.699219 1.441406 87.136719 1.40625 88.574219 1.40625 Z M 88.574219 1.40625 " fill-opacity="1" fill-rule="nonzero"/></g></g></g></g></g><path fill="#feffff" d="M 167.847656 46.183594 L 167.644531 46.183594 C 167.835938 45.316406 167.988281 44.445312 168.105469 43.566406 C 168.21875 42.6875 168.292969 41.804688 168.332031 40.917969 C 168.367188 40.03125 168.363281 39.144531 168.324219 38.261719 C 168.28125 37.375 168.199219 36.492188 168.078125 35.613281 C 167.957031 34.734375 167.800781 33.863281 167.601562 33 C 167.40625 32.136719 167.167969 31.28125 166.894531 30.4375 C 166.621094 29.59375 166.3125 28.761719 165.964844 27.949219 C 165.617188 27.132812 165.234375 26.332031 164.816406 25.550781 C 164.398438 24.765625 163.945312 24.003906 163.460938 23.261719 C 162.972656 22.519531 162.457031 21.800781 161.90625 21.105469 C 161.359375 20.40625 160.777344 19.738281 160.167969 19.089844 C 159.558594 18.445312 158.921875 17.828125 158.257812 17.238281 C 157.59375 16.652344 156.90625 16.09375 156.191406 15.5625 C 155.480469 15.035156 154.742188 14.539062 153.984375 14.078125 C 153.226562 13.613281 152.453125 13.183594 151.65625 12.789062 C 150.859375 12.394531 150.050781 12.039062 149.222656 11.714844 C 148.394531 11.390625 147.554688 11.105469 146.699219 10.859375 C 145.847656 10.609375 144.984375 10.398438 144.113281 10.226562 C 143.242188 10.054688 142.367188 9.921875 141.484375 9.828125 C 140.597656 9.734375 139.714844 9.679688 138.824219 9.664062 C 137.9375 9.644531 137.050781 9.667969 136.164062 9.730469 C 135.277344 9.792969 134.394531 9.894531 133.519531 10.035156 C 132.640625 10.175781 131.773438 10.355469 130.910156 10.570312 C 130.050781 10.789062 129.199219 11.042969 128.359375 11.335938 C 127.523438 11.628906 126.699219 11.957031 125.890625 12.320312 C 125.078125 12.6875 124.289062 13.085938 123.511719 13.523438 C 122.738281 13.957031 121.988281 14.425781 121.253906 14.929688 C 120.523438 15.429688 119.8125 15.964844 119.128906 16.527344 C 118.441406 17.09375 117.785156 17.6875 117.152344 18.308594 C 116.519531 18.929688 115.914062 19.582031 115.339844 20.257812 C 114.765625 20.933594 114.222656 21.632812 113.710938 22.355469 C 113.199219 23.082031 112.71875 23.828125 112.273438 24.59375 C 111.402344 23.824219 110.480469 23.121094 109.511719 22.484375 C 108.539062 21.847656 107.527344 21.28125 106.476562 20.789062 C 105.425781 20.296875 104.34375 19.882812 103.230469 19.546875 C 102.117188 19.210938 100.988281 18.953125 99.839844 18.78125 C 98.691406 18.605469 97.535156 18.511719 96.375 18.503906 C 95.210938 18.496094 94.054688 18.570312 92.90625 18.726562 C 91.753906 18.882812 90.621094 19.121094 89.503906 19.441406 C 88.386719 19.761719 87.296875 20.160156 86.238281 20.636719 C 85.179688 21.113281 84.160156 21.660156 83.179688 22.285156 C 82.199219 22.90625 81.265625 23.59375 80.386719 24.351562 C 79.503906 25.105469 78.683594 25.921875 77.917969 26.796875 C 77.15625 27.667969 76.457031 28.59375 75.828125 29.566406 C 75.195312 30.542969 74.636719 31.554688 74.152344 32.609375 C 73.667969 33.664062 73.261719 34.746094 72.933594 35.859375 C 72.605469 36.972656 72.355469 38.101562 72.191406 39.25 C 72.023438 40.398438 71.941406 41.550781 71.941406 42.710938 C 71.945312 43.875 72.027344 45.035156 72.195312 46.1875 C 71.640625 46.191406 71.085938 46.222656 70.53125 46.28125 C 69.980469 46.339844 69.429688 46.425781 68.886719 46.539062 C 68.339844 46.652344 67.804688 46.789062 67.273438 46.953125 C 66.742188 47.121094 66.222656 47.308594 65.707031 47.527344 C 65.195312 47.742188 64.695312 47.980469 64.207031 48.246094 C 63.71875 48.511719 63.242188 48.796875 62.78125 49.109375 C 62.324219 49.417969 61.878906 49.753906 61.449219 50.105469 C 61.023438 50.460938 60.613281 50.835938 60.222656 51.230469 C 59.828125 51.621094 59.457031 52.035156 59.105469 52.464844 C 58.757812 52.894531 58.425781 53.34375 58.121094 53.804688 C 57.8125 54.265625 57.527344 54.742188 57.265625 55.234375 C 57.007812 55.722656 56.769531 56.226562 56.558594 56.738281 C 56.347656 57.25 56.160156 57.773438 56 58.304688 C 55.839844 58.835938 55.707031 59.375 55.597656 59.917969 C 55.488281 60.460938 55.410156 61.011719 55.355469 61.5625 C 55.300781 62.117188 55.273438 62.667969 55.273438 63.222656 C 55.273438 63.78125 55.300781 64.339844 55.355469 64.894531 C 55.410156 65.449219 55.492188 66 55.601562 66.546875 C 55.710938 67.097656 55.847656 67.636719 56.007812 68.171875 C 56.171875 68.703125 56.359375 69.230469 56.574219 69.746094 C 56.785156 70.261719 57.027344 70.765625 57.289062 71.257812 C 57.554688 71.75 57.839844 72.226562 58.152344 72.691406 C 58.460938 73.15625 58.792969 73.601562 59.148438 74.035156 C 59.503906 74.464844 59.878906 74.878906 60.273438 75.273438 C 60.667969 75.667969 61.082031 76.042969 61.515625 76.398438 C 61.949219 76.75 62.394531 77.082031 62.859375 77.394531 C 63.324219 77.703125 63.804688 77.988281 64.296875 78.253906 C 64.789062 78.515625 65.296875 78.753906 65.8125 78.96875 C 66.328125 79.179688 66.855469 79.367188 67.390625 79.53125 C 67.925781 79.691406 68.464844 79.828125 69.015625 79.9375 C 69.5625 80.046875 70.117188 80.128906 70.671875 80.183594 C 71.230469 80.238281 71.785156 80.265625 72.34375 80.265625 L 167.847656 80.265625 C 168.40625 80.265625 168.964844 80.238281 169.519531 80.183594 C 170.078125 80.128906 170.628906 80.046875 171.175781 79.9375 C 171.726562 79.828125 172.265625 79.691406 172.800781 79.53125 C 173.335938 79.367188 173.863281 79.179688 174.378906 78.96875 C 174.898438 78.753906 175.402344 78.515625 175.894531 78.253906 C 176.386719 77.988281 176.867188 77.703125 177.332031 77.394531 C 177.796875 77.082031 178.246094 76.75 178.675781 76.398438 C 179.109375 76.042969 179.523438 75.667969 179.917969 75.273438 C 180.3125 74.878906 180.6875 74.464844 181.042969 74.035156 C 181.398438 73.601562 181.730469 73.15625 182.042969 72.691406 C 182.351562 72.226562 182.640625 71.75 182.902344 71.257812 C 183.167969 70.765625 183.40625 70.261719 183.621094 69.746094 C 183.832031 69.230469 184.023438 68.703125 184.183594 68.171875 C 184.347656 67.636719 184.480469 67.097656 184.589844 66.546875 C 184.699219 66 184.78125 65.449219 184.835938 64.894531 C 184.890625 64.339844 184.917969 63.78125 184.917969 63.222656 C 184.917969 62.664062 184.890625 62.109375 184.835938 61.554688 C 184.78125 61 184.699219 60.445312 184.589844 59.898438 C 184.480469 59.351562 184.347656 58.8125 184.183594 58.277344 C 184.023438 57.742188 183.832031 57.21875 183.621094 56.703125 C 183.40625 56.1875 183.167969 55.683594 182.902344 55.191406 C 182.640625 54.699219 182.351562 54.21875 182.042969 53.757812 C 181.730469 53.292969 181.398438 52.84375 181.042969 52.414062 C 180.6875 51.980469 180.3125 51.570312 179.917969 51.175781 C 179.523438 50.78125 179.109375 50.40625 178.675781 50.050781 C 178.246094 49.695312 177.796875 49.363281 177.332031 49.054688 C 176.867188 48.746094 176.386719 48.457031 175.894531 48.195312 C 175.402344 47.933594 174.898438 47.695312 174.378906 47.480469 C 173.863281 47.265625 173.335938 47.078125 172.800781 46.917969 C 172.265625 46.753906 171.726562 46.621094 171.175781 46.511719 C 170.628906 46.402344 170.078125 46.320312 169.519531 46.265625 C 168.964844 46.210938 168.40625 46.183594 167.847656 46.183594 Z M 167.847656 46.183594 " fill-opacity="1" fill-rule="nonzero"/><path fill="#090817" d="M 167.847656 80.703125 L 72.34375 80.703125 C 71.777344 80.703125 71.214844 80.675781 70.648438 80.621094 C 70.085938 80.566406 69.527344 80.480469 68.96875 80.375 C 68.414062 80.265625 67.863281 80.128906 67.324219 79.964844 C 66.78125 79.804688 66.246094 79.613281 65.722656 79.402344 C 65.195312 79.1875 64.683594 78.949219 64.183594 78.683594 C 63.683594 78.421875 63.195312 78.132812 62.722656 77.820312 C 62.25 77.511719 61.792969 77.179688 61.351562 76.824219 C 60.910156 76.46875 60.488281 76.089844 60.082031 75.695312 C 59.679688 75.300781 59.292969 74.882812 58.929688 74.449219 C 58.566406 74.015625 58.226562 73.566406 57.90625 73.101562 C 57.585938 72.632812 57.289062 72.152344 57.015625 71.65625 C 56.742188 71.164062 56.492188 70.65625 56.269531 70.136719 C 56.042969 69.617188 55.84375 69.085938 55.671875 68.546875 C 55.5 68.011719 55.355469 67.464844 55.234375 66.910156 C 55.117188 66.359375 55.023438 65.800781 54.957031 65.238281 C 54.890625 64.679688 54.855469 64.113281 54.84375 63.550781 C 54.832031 62.984375 54.851562 62.417969 54.894531 61.855469 C 54.9375 61.292969 55.011719 60.730469 55.109375 60.175781 C 55.207031 59.617188 55.332031 59.066406 55.484375 58.523438 C 55.636719 57.976562 55.816406 57.441406 56.023438 56.914062 C 56.226562 56.386719 56.457031 55.871094 56.710938 55.363281 C 56.964844 54.859375 57.242188 54.367188 57.546875 53.890625 C 57.847656 53.410156 58.175781 52.949219 58.523438 52.503906 C 58.871094 52.054688 59.238281 51.628906 59.625 51.214844 C 60.015625 50.804688 60.425781 50.414062 60.851562 50.042969 C 61.277344 49.671875 61.722656 49.320312 62.183594 48.992188 C 62.644531 48.664062 63.121094 48.359375 63.613281 48.078125 C 64.105469 47.796875 64.609375 47.539062 65.125 47.304688 C 65.640625 47.070312 66.164062 46.863281 66.703125 46.679688 C 67.238281 46.496094 67.78125 46.339844 68.332031 46.210938 C 68.886719 46.082031 69.441406 45.980469 70.003906 45.902344 C 70.566406 45.828125 71.128906 45.777344 71.695312 45.757812 C 71.542969 44.535156 71.480469 43.304688 71.511719 42.070312 C 71.542969 40.839844 71.667969 39.613281 71.882812 38.398438 C 72.097656 37.183594 72.40625 35.992188 72.800781 34.824219 C 73.195312 33.65625 73.675781 32.523438 74.242188 31.425781 C 74.808594 30.328125 75.453125 29.28125 76.175781 28.28125 C 76.898438 27.277344 77.695312 26.339844 78.558594 25.457031 C 79.421875 24.578125 80.351562 23.765625 81.335938 23.023438 C 82.324219 22.28125 83.363281 21.617188 84.449219 21.027344 C 85.535156 20.441406 86.660156 19.9375 87.824219 19.519531 C 88.988281 19.101562 90.175781 18.773438 91.386719 18.535156 C 92.597656 18.292969 93.824219 18.144531 95.058594 18.089844 C 96.292969 18.03125 97.523438 18.066406 98.753906 18.195312 C 99.984375 18.324219 101.195312 18.542969 102.390625 18.855469 C 103.589844 19.164062 104.753906 19.5625 105.890625 20.046875 C 107.027344 20.53125 108.121094 21.097656 109.171875 21.746094 C 110.222656 22.394531 111.222656 23.117188 112.164062 23.917969 C 112.625 23.15625 113.117188 22.417969 113.640625 21.699219 C 114.167969 20.984375 114.722656 20.289062 115.308594 19.621094 C 115.894531 18.953125 116.507812 18.308594 117.152344 17.695312 C 117.792969 17.078125 118.460938 16.492188 119.15625 15.9375 C 119.847656 15.378906 120.566406 14.851562 121.304688 14.359375 C 122.046875 13.863281 122.804688 13.402344 123.585938 12.976562 C 124.367188 12.546875 125.164062 12.15625 125.976562 11.796875 C 126.792969 11.4375 127.621094 11.117188 128.464844 10.832031 C 129.308594 10.542969 130.160156 10.296875 131.027344 10.085938 C 131.890625 9.875 132.761719 9.699219 133.644531 9.566406 C 134.523438 9.429688 135.40625 9.332031 136.296875 9.277344 C 137.183594 9.21875 138.074219 9.199219 138.960938 9.21875 C 139.851562 9.238281 140.738281 9.296875 141.625 9.394531 C 142.511719 9.492188 143.390625 9.628906 144.261719 9.800781 C 145.136719 9.976562 146 10.1875 146.851562 10.4375 C 147.707031 10.6875 148.550781 10.972656 149.378906 11.296875 C 150.207031 11.621094 151.019531 11.976562 151.820312 12.371094 C 152.617188 12.765625 153.394531 13.195312 154.15625 13.65625 C 154.917969 14.121094 155.65625 14.613281 156.371094 15.140625 C 157.089844 15.667969 157.78125 16.226562 158.449219 16.8125 C 159.117188 17.398438 159.757812 18.015625 160.375 18.65625 C 160.988281 19.300781 161.570312 19.96875 162.128906 20.664062 C 162.683594 21.359375 163.207031 22.074219 163.699219 22.816406 C 164.191406 23.554688 164.652344 24.316406 165.078125 25.097656 C 165.503906 25.878906 165.894531 26.675781 166.25 27.488281 C 166.605469 28.304688 166.925781 29.132812 167.210938 29.972656 C 167.492188 30.816406 167.738281 31.667969 167.949219 32.535156 C 168.15625 33.398438 168.328125 34.269531 168.460938 35.148438 C 168.589844 36.027344 168.683594 36.910156 168.738281 37.796875 C 168.792969 38.683594 168.8125 39.570312 168.789062 40.457031 C 168.765625 41.347656 168.703125 42.234375 168.601562 43.117188 C 168.5 44 168.363281 44.875 168.183594 45.746094 C 168.753906 45.757812 169.324219 45.796875 169.890625 45.863281 C 170.457031 45.925781 171.019531 46.019531 171.574219 46.140625 C 172.132812 46.261719 172.683594 46.410156 173.226562 46.585938 C 173.769531 46.757812 174.300781 46.960938 174.824219 47.1875 C 175.347656 47.414062 175.859375 47.664062 176.355469 47.941406 C 176.855469 48.214844 177.339844 48.515625 177.808594 48.839844 C 178.277344 49.164062 178.730469 49.507812 179.164062 49.875 C 179.601562 50.242188 180.015625 50.632812 180.414062 51.039062 C 180.8125 51.449219 181.1875 51.875 181.542969 52.320312 C 181.898438 52.765625 182.234375 53.226562 182.542969 53.703125 C 182.855469 54.179688 183.140625 54.671875 183.402344 55.175781 C 183.664062 55.679688 183.902344 56.199219 184.113281 56.726562 C 184.328125 57.253906 184.511719 57.792969 184.671875 58.339844 C 184.832031 58.886719 184.964844 59.4375 185.066406 59.996094 C 185.171875 60.558594 185.25 61.121094 185.300781 61.6875 C 185.351562 62.253906 185.375 62.824219 185.367188 63.390625 C 185.363281 63.960938 185.328125 64.527344 185.269531 65.09375 C 185.207031 65.660156 185.117188 66.222656 185.003906 66.777344 C 184.886719 67.335938 184.742188 67.886719 184.574219 68.429688 C 184.402344 68.972656 184.207031 69.507812 183.984375 70.03125 C 183.761719 70.554688 183.515625 71.066406 183.242188 71.566406 C 182.972656 72.066406 182.675781 72.554688 182.355469 73.023438 C 182.035156 73.496094 181.695312 73.949219 181.332031 74.386719 C 180.964844 74.828125 180.582031 75.246094 180.175781 75.644531 C 179.769531 76.046875 179.347656 76.425781 178.902344 76.785156 C 178.460938 77.144531 178.003906 77.480469 177.527344 77.796875 C 177.050781 78.109375 176.5625 78.398438 176.058594 78.667969 C 175.554688 78.933594 175.039062 79.175781 174.511719 79.390625 C 173.984375 79.605469 173.449219 79.796875 172.902344 79.960938 C 172.355469 80.125 171.804688 80.261719 171.242188 80.371094 C 170.683594 80.480469 170.121094 80.566406 169.554688 80.621094 C 168.984375 80.675781 168.417969 80.703125 167.847656 80.703125 Z M 96.195312 18.941406 C 95.414062 18.941406 94.636719 18.980469 93.863281 19.058594 C 93.085938 19.132812 92.316406 19.25 91.550781 19.402344 C 90.785156 19.554688 90.03125 19.742188 89.285156 19.96875 C 88.539062 20.195312 87.804688 20.457031 87.085938 20.757812 C 86.367188 21.054688 85.664062 21.386719 84.976562 21.753906 C 84.289062 22.121094 83.621094 22.523438 82.972656 22.953125 C 82.324219 23.386719 81.699219 23.851562 81.09375 24.34375 C 80.492188 24.835938 79.914062 25.359375 79.363281 25.910156 C 78.8125 26.460938 78.289062 27.035156 77.796875 27.636719 C 77.300781 28.238281 76.835938 28.863281 76.402344 29.511719 C 75.96875 30.15625 75.570312 30.824219 75.203125 31.511719 C 74.832031 32.195312 74.5 32.898438 74.203125 33.617188 C 73.902344 34.335938 73.640625 35.070312 73.414062 35.8125 C 73.1875 36.558594 72.996094 37.3125 72.84375 38.074219 C 72.691406 38.835938 72.574219 39.605469 72.5 40.382812 C 72.421875 41.15625 72.382812 41.933594 72.382812 42.710938 C 72.382812 43.855469 72.464844 44.992188 72.628906 46.121094 C 72.648438 46.253906 72.613281 46.371094 72.527344 46.472656 C 72.441406 46.570312 72.332031 46.621094 72.199219 46.625 C 71.65625 46.628906 71.113281 46.660156 70.574219 46.71875 C 70.035156 46.777344 69.5 46.863281 68.96875 46.972656 C 68.4375 47.082031 67.914062 47.21875 67.394531 47.382812 C 66.878906 47.542969 66.367188 47.730469 65.871094 47.941406 C 65.371094 48.15625 64.882812 48.390625 64.40625 48.648438 C 63.929688 48.910156 63.464844 49.191406 63.019531 49.496094 C 62.570312 49.800781 62.136719 50.125 61.71875 50.472656 C 61.300781 50.820312 60.902344 51.183594 60.523438 51.570312 C 60.140625 51.957031 59.78125 52.359375 59.4375 52.78125 C 59.097656 53.203125 58.777344 53.640625 58.480469 54.09375 C 58.179688 54.542969 57.90625 55.011719 57.652344 55.488281 C 57.398438 55.96875 57.171875 56.460938 56.964844 56.960938 C 56.761719 57.460938 56.582031 57.972656 56.425781 58.492188 C 56.273438 59.011719 56.144531 59.535156 56.039062 60.070312 C 55.9375 60.601562 55.859375 61.136719 55.808594 61.675781 C 55.757812 62.214844 55.734375 62.753906 55.738281 63.296875 C 55.738281 63.839844 55.769531 64.378906 55.824219 64.917969 C 55.878906 65.457031 55.960938 65.992188 56.066406 66.523438 C 56.175781 67.054688 56.308594 67.578125 56.46875 68.097656 C 56.628906 68.613281 56.8125 69.121094 57.023438 69.621094 C 57.230469 70.121094 57.464844 70.609375 57.722656 71.085938 C 57.976562 71.566406 58.257812 72.027344 58.558594 72.476562 C 58.863281 72.929688 59.1875 73.363281 59.53125 73.78125 C 59.875 74.199219 60.242188 74.597656 60.625 74.980469 C 61.011719 75.363281 61.414062 75.726562 61.832031 76.070312 C 62.253906 76.414062 62.6875 76.734375 63.140625 77.035156 C 63.589844 77.335938 64.054688 77.613281 64.535156 77.867188 C 65.011719 78.125 65.503906 78.355469 66.003906 78.5625 C 66.507812 78.769531 67.015625 78.953125 67.535156 79.109375 C 68.054688 79.265625 68.582031 79.398438 69.113281 79.503906 C 69.644531 79.609375 70.179688 79.691406 70.722656 79.742188 C 71.261719 79.796875 71.804688 79.824219 72.34375 79.824219 L 167.847656 79.824219 C 168.390625 79.824219 168.933594 79.796875 169.476562 79.746094 C 170.019531 79.691406 170.558594 79.613281 171.089844 79.507812 C 171.625 79.398438 172.152344 79.269531 172.675781 79.109375 C 173.195312 78.953125 173.707031 78.769531 174.210938 78.5625 C 174.714844 78.351562 175.207031 78.121094 175.6875 77.863281 C 176.167969 77.609375 176.632812 77.328125 177.085938 77.027344 C 177.539062 76.726562 177.976562 76.402344 178.398438 76.054688 C 178.820312 75.710938 179.222656 75.347656 179.609375 74.960938 C 179.992188 74.578125 180.359375 74.175781 180.703125 73.753906 C 181.050781 73.335938 181.375 72.898438 181.675781 72.445312 C 181.980469 71.996094 182.257812 71.527344 182.515625 71.050781 C 182.773438 70.570312 183.003906 70.078125 183.214844 69.574219 C 183.421875 69.074219 183.605469 68.5625 183.761719 68.042969 C 183.921875 67.523438 184.054688 66.996094 184.160156 66.460938 C 184.265625 65.929688 184.347656 65.390625 184.398438 64.851562 C 184.453125 64.308594 184.480469 63.765625 184.480469 63.222656 C 184.480469 62.679688 184.453125 62.136719 184.398438 61.59375 C 184.347656 61.054688 184.265625 60.515625 184.160156 59.984375 C 184.054688 59.449219 183.921875 58.921875 183.761719 58.402344 C 183.605469 57.882812 183.421875 57.371094 183.214844 56.871094 C 183.003906 56.367188 182.773438 55.875 182.515625 55.394531 C 182.257812 54.917969 181.980469 54.449219 181.675781 54 C 181.375 53.546875 181.050781 53.109375 180.703125 52.691406 C 180.359375 52.269531 179.992188 51.867188 179.609375 51.484375 C 179.222656 51.097656 178.820312 50.734375 178.398438 50.390625 C 177.976562 50.042969 177.539062 49.71875 177.085938 49.417969 C 176.632812 49.117188 176.167969 48.835938 175.6875 48.582031 C 175.207031 48.324219 174.714844 48.09375 174.210938 47.882812 C 173.707031 47.675781 173.195312 47.492188 172.675781 47.335938 C 172.152344 47.175781 171.625 47.046875 171.089844 46.9375 C 170.558594 46.832031 170.019531 46.753906 169.476562 46.699219 C 168.933594 46.648438 168.390625 46.621094 167.847656 46.621094 L 167.644531 46.621094 C 167.503906 46.621094 167.390625 46.566406 167.300781 46.457031 C 167.214844 46.347656 167.183594 46.222656 167.214844 46.085938 C 167.40625 45.234375 167.554688 44.375 167.667969 43.507812 C 167.78125 42.640625 167.855469 41.773438 167.894531 40.898438 C 167.929688 40.027344 167.925781 39.152344 167.886719 38.28125 C 167.84375 37.40625 167.765625 36.539062 167.644531 35.671875 C 167.527344 34.804688 167.371094 33.949219 167.175781 33.09375 C 166.980469 32.242188 166.75 31.402344 166.480469 30.570312 C 166.210938 29.738281 165.902344 28.921875 165.5625 28.117188 C 165.21875 27.3125 164.84375 26.523438 164.429688 25.753906 C 164.019531 24.984375 163.574219 24.230469 163.09375 23.5 C 162.617188 22.769531 162.105469 22.058594 161.5625 21.375 C 161.023438 20.6875 160.449219 20.027344 159.851562 19.390625 C 159.25 18.753906 158.621094 18.144531 157.96875 17.566406 C 157.3125 16.984375 156.636719 16.433594 155.933594 15.914062 C 155.230469 15.394531 154.503906 14.90625 153.757812 14.449219 C 153.011719 13.992188 152.246094 13.570312 151.460938 13.179688 C 150.679688 12.792969 149.878906 12.4375 149.0625 12.121094 C 148.246094 11.804688 147.417969 11.523438 146.578125 11.277344 C 145.738281 11.03125 144.890625 10.824219 144.03125 10.65625 C 143.171875 10.488281 142.308594 10.355469 141.4375 10.261719 C 140.566406 10.167969 139.695312 10.113281 138.816406 10.097656 C 137.941406 10.082031 137.070312 10.105469 136.195312 10.167969 C 135.324219 10.226562 134.453125 10.328125 133.589844 10.464844 C 132.726562 10.605469 131.867188 10.78125 131.019531 10.996094 C 130.171875 11.207031 129.332031 11.460938 128.507812 11.746094 C 127.679688 12.035156 126.867188 12.359375 126.070312 12.71875 C 125.273438 13.078125 124.492188 13.472656 123.730469 13.902344 C 122.96875 14.332031 122.226562 14.792969 121.503906 15.289062 C 120.78125 15.78125 120.082031 16.308594 119.40625 16.863281 C 118.734375 17.421875 118.082031 18.003906 117.460938 18.617188 C 116.835938 19.234375 116.242188 19.871094 115.675781 20.539062 C 115.109375 21.207031 114.574219 21.894531 114.070312 22.609375 C 113.5625 23.324219 113.09375 24.058594 112.652344 24.8125 C 112.582031 24.933594 112.480469 25.003906 112.34375 25.023438 C 112.203125 25.046875 112.085938 25.011719 111.980469 24.921875 C 109.804688 22.992188 107.355469 21.515625 104.636719 20.484375 C 101.917969 19.453125 99.105469 18.941406 96.195312 18.941406 Z M 96.195312 18.941406 " fill-opacity="1" fill-rule="nonzero"/><path fill="#feffff" d="M 135.851562 86.703125 L 111.253906 90.972656 C 111.042969 91.007812 110.832031 91.003906 110.625 90.957031 C 110.414062 90.910156 110.222656 90.824219 110.046875 90.703125 C 109.871094 90.578125 109.726562 90.425781 109.609375 90.246094 C 109.496094 90.066406 109.421875 89.867188 109.382812 89.65625 L 106.460938 72.898438 C 106.425781 72.6875 106.429688 72.480469 106.476562 72.269531 C 106.523438 72.0625 106.609375 71.867188 106.734375 71.695312 C 106.855469 71.519531 107.007812 71.375 107.191406 71.257812 C 107.371094 71.144531 107.566406 71.070312 107.78125 71.03125 L 132.375 66.761719 C 132.585938 66.726562 132.796875 66.730469 133.007812 66.777344 C 133.214844 66.824219 133.40625 66.910156 133.582031 67.03125 C 133.757812 67.15625 133.902344 67.308594 134.019531 67.488281 C 134.132812 67.667969 134.210938 67.863281 134.246094 68.074219 L 137.167969 84.832031 C 137.203125 85.042969 137.199219 85.253906 137.152344 85.464844 C 137.105469 85.671875 137.019531 85.863281 136.894531 86.039062 C 136.773438 86.214844 136.621094 86.359375 136.4375 86.472656 C 136.257812 86.589844 136.0625 86.664062 135.851562 86.703125 Z M 135.851562 86.703125 " fill-opacity="1" fill-rule="nonzero"/><path fill="#090817" d="M 110.972656 91.4375 C 110.730469 91.4375 110.496094 91.394531 110.269531 91.3125 C 110.042969 91.226562 109.835938 91.109375 109.652344 90.953125 C 109.464844 90.796875 109.3125 90.613281 109.191406 90.40625 C 109.074219 90.195312 108.992188 89.972656 108.949219 89.734375 L 106.03125 72.976562 C 105.984375 72.707031 105.988281 72.441406 106.050781 72.175781 C 106.109375 71.910156 106.21875 71.664062 106.375 71.441406 C 106.53125 71.21875 106.726562 71.035156 106.957031 70.890625 C 107.1875 70.742188 107.4375 70.648438 107.703125 70.601562 L 132.300781 66.328125 C 132.566406 66.285156 132.835938 66.289062 133.101562 66.347656 C 133.367188 66.410156 133.613281 66.515625 133.835938 66.671875 C 134.058594 66.832031 134.242188 67.023438 134.390625 67.253906 C 134.535156 67.484375 134.632812 67.734375 134.679688 68 L 137.597656 84.757812 C 137.644531 85.027344 137.640625 85.292969 137.578125 85.558594 C 137.519531 85.824219 137.410156 86.070312 137.253906 86.292969 C 137.097656 86.515625 136.902344 86.699219 136.671875 86.847656 C 136.441406 86.992188 136.195312 87.085938 135.925781 87.132812 L 111.332031 91.40625 C 111.210938 91.425781 111.089844 91.4375 110.972656 91.4375 Z M 107.851562 71.464844 C 107.699219 71.492188 107.554688 71.546875 107.421875 71.632812 C 107.292969 71.714844 107.179688 71.820312 107.089844 71.949219 C 107 72.074219 106.9375 72.214844 106.90625 72.367188 C 106.871094 72.519531 106.867188 72.671875 106.894531 72.824219 L 109.8125 89.582031 C 109.839844 89.738281 109.894531 89.878906 109.980469 90.011719 C 110.0625 90.144531 110.167969 90.253906 110.296875 90.34375 C 110.421875 90.433594 110.5625 90.496094 110.714844 90.53125 C 110.867188 90.5625 111.023438 90.566406 111.175781 90.539062 L 135.769531 86.269531 C 135.925781 86.242188 136.066406 86.1875 136.199219 86.105469 C 136.332031 86.019531 136.441406 85.914062 136.53125 85.789062 C 136.621094 85.660156 136.683594 85.519531 136.71875 85.371094 C 136.753906 85.21875 136.757812 85.066406 136.730469 84.910156 L 133.8125 68.152344 C 133.785156 68 133.730469 67.855469 133.648438 67.722656 C 133.5625 67.59375 133.457031 67.480469 133.332031 67.390625 C 133.203125 67.300781 133.0625 67.242188 132.910156 67.207031 C 132.757812 67.171875 132.605469 67.167969 132.449219 67.195312 Z M 107.851562 71.464844 " fill-opacity="1" fill-rule="nonzero"/><path fill="#005cbb" d="M 109.890625 91.417969 C 109.695312 91.417969 109.558594 91.328125 109.484375 91.148438 C 109.410156 90.96875 109.441406 90.8125 109.578125 90.671875 L 121.5 78.558594 C 121.648438 78.410156 121.816406 78.382812 122.003906 78.472656 L 137.320312 85.824219 C 137.425781 85.878906 137.496094 85.964844 137.53125 86.074219 C 137.566406 86.1875 137.558594 86.296875 137.507812 86.402344 C 137.457031 86.507812 137.378906 86.578125 137.269531 86.621094 C 137.160156 86.660156 137.050781 86.660156 136.941406 86.613281 L 121.90625 79.398438 L 110.203125 91.285156 C 110.117188 91.375 110.011719 91.417969 109.890625 91.417969 Z M 109.890625 91.417969 " fill-opacity="1" fill-rule="nonzero"/><path fill="#005cbb" d="M 133.148438 66.660156 C 133.253906 66.644531 133.335938 66.679688 133.390625 66.769531 C 133.449219 66.859375 133.449219 66.945312 133.390625 67.035156 C 131.8125 69.367188 124.765625 79.582031 122.011719 79.992188 C 119.226562 80.40625 108.964844 73.109375 106.84375 71.574219 C 106.773438 71.523438 106.746094 71.453125 106.765625 71.367188 C 106.789062 71.28125 106.839844 71.230469 106.929688 71.214844 Z M 133.148438 66.660156 " fill-opacity="1" fill-rule="nonzero"/><path fill="#feffff" d="M 163.644531 10.046875 L 184.621094 16.117188 C 184.984375 16.222656 185.316406 16.394531 185.617188 16.632812 C 185.914062 16.871094 186.152344 17.15625 186.339844 17.488281 C 186.523438 17.820312 186.632812 18.175781 186.675781 18.554688 C 186.71875 18.933594 186.6875 19.304688 186.582031 19.671875 L 182.554688 33.53125 C 182.449219 33.898438 182.277344 34.230469 182.039062 34.527344 C 181.800781 34.824219 181.515625 35.0625 181.179688 35.246094 C 180.847656 35.429688 180.492188 35.542969 180.113281 35.585938 C 179.734375 35.628906 179.359375 35.597656 178.992188 35.488281 L 158.019531 29.421875 C 157.652344 29.316406 157.320312 29.144531 157.023438 28.90625 C 156.726562 28.667969 156.484375 28.382812 156.300781 28.050781 C 156.117188 27.714844 156.003906 27.359375 155.960938 26.980469 C 155.917969 26.605469 155.953125 26.230469 156.058594 25.867188 L 160.082031 12.003906 C 160.1875 11.640625 160.359375 11.308594 160.597656 11.011719 C 160.835938 10.714844 161.125 10.472656 161.457031 10.289062 C 161.792969 10.105469 162.148438 9.992188 162.527344 9.953125 C 162.90625 9.910156 163.277344 9.941406 163.644531 10.046875 Z M 163.644531 10.046875 " fill-opacity="1" fill-rule="nonzero"/><g clip-path="url(#5ad6c54625)"><path fill="#090817" d="M 179.792969 36.042969 C 179.480469 36.042969 179.171875 36 178.871094 35.910156 L 157.894531 29.84375 C 157.472656 29.71875 157.089844 29.519531 156.746094 29.246094 C 156.402344 28.972656 156.125 28.644531 155.914062 28.257812 C 155.703125 27.875 155.574219 27.464844 155.523438 27.03125 C 155.476562 26.59375 155.511719 26.164062 155.632812 25.742188 L 159.660156 11.882812 C 159.78125 11.460938 159.980469 11.078125 160.253906 10.738281 C 160.53125 10.394531 160.859375 10.117188 161.246094 9.90625 C 161.628906 9.695312 162.039062 9.566406 162.476562 9.515625 C 162.914062 9.46875 163.34375 9.503906 163.765625 9.625 L 184.742188 15.695312 C 185.164062 15.816406 185.542969 16.015625 185.886719 16.289062 C 186.230469 16.5625 186.507812 16.894531 186.71875 17.277344 C 186.929688 17.660156 187.0625 18.070312 187.109375 18.507812 C 187.160156 18.941406 187.121094 19.371094 187 19.792969 L 182.976562 33.65625 C 182.875 34 182.722656 34.320312 182.519531 34.613281 C 182.3125 34.90625 182.070312 35.164062 181.78125 35.378906 C 181.496094 35.59375 181.179688 35.757812 180.839844 35.871094 C 180.5 35.984375 180.152344 36.042969 179.792969 36.042969 Z M 179.117188 35.070312 C 179.425781 35.160156 179.742188 35.183594 180.0625 35.148438 C 180.382812 35.113281 180.683594 35.019531 180.96875 34.863281 C 181.25 34.707031 181.492188 34.503906 181.695312 34.253906 C 181.898438 34 182.042969 33.722656 182.132812 33.410156 L 186.160156 19.550781 C 186.25 19.238281 186.273438 18.925781 186.238281 18.605469 C 186.203125 18.285156 186.109375 17.984375 185.953125 17.699219 C 185.796875 17.417969 185.59375 17.175781 185.339844 16.976562 C 185.089844 16.773438 184.808594 16.628906 184.496094 16.539062 L 163.519531 10.46875 C 163.210938 10.378906 162.894531 10.351562 162.574219 10.386719 C 162.253906 10.421875 161.953125 10.519531 161.667969 10.675781 C 161.386719 10.832031 161.144531 11.035156 160.941406 11.285156 C 160.742188 11.535156 160.59375 11.816406 160.503906 12.125 L 156.480469 25.988281 C 156.390625 26.296875 156.363281 26.613281 156.398438 26.933594 C 156.433594 27.253906 156.53125 27.554688 156.6875 27.835938 C 156.839844 28.121094 157.046875 28.363281 157.296875 28.5625 C 157.550781 28.765625 157.832031 28.910156 158.140625 29 Z M 179.117188 35.070312 " fill-opacity="1" fill-rule="nonzero"/></g><path fill="#005cbb" d="M 176.707031 24.328125 L 174.773438 30.984375 C 174.671875 31.332031 174.445312 31.550781 174.09375 31.636719 C 173.742188 31.722656 173.441406 31.632812 173.191406 31.375 L 168.382812 26.375 L 163.570312 21.375 C 163.457031 21.253906 163.378906 21.113281 163.335938 20.949219 C 163.296875 20.789062 163.300781 20.625 163.347656 20.464844 C 163.394531 20.304688 163.476562 20.164062 163.597656 20.050781 C 163.71875 19.933594 163.863281 19.855469 164.023438 19.816406 L 170.769531 18.15625 L 177.511719 16.5 C 177.675781 16.460938 177.835938 16.464844 177.996094 16.511719 C 178.160156 16.554688 178.296875 16.640625 178.414062 16.761719 C 178.53125 16.882812 178.609375 17.023438 178.648438 17.1875 C 178.6875 17.347656 178.6875 17.511719 178.640625 17.671875 Z M 176.707031 24.328125 " fill-opacity="1" fill-rule="nonzero"/><path fill="#feffff" d="M 66.722656 5.148438 L 88.136719 11.445312 C 88.40625 11.527344 88.648438 11.652344 88.867188 11.828125 C 89.082031 12.003906 89.257812 12.214844 89.390625 12.457031 C 89.527344 12.703125 89.605469 12.964844 89.636719 13.242188 C 89.667969 13.519531 89.640625 13.789062 89.5625 14.058594 L 84.441406 31.410156 C 84.363281 31.679688 84.234375 31.921875 84.058594 32.136719 C 83.882812 32.355469 83.671875 32.53125 83.429688 32.664062 C 83.183594 32.796875 82.921875 32.878906 82.644531 32.90625 C 82.367188 32.9375 82.09375 32.914062 81.824219 32.832031 L 60.410156 26.535156 C 60.140625 26.457031 59.898438 26.328125 59.679688 26.15625 C 59.464844 25.980469 59.289062 25.769531 59.15625 25.523438 C 59.019531 25.28125 58.9375 25.019531 58.910156 24.742188 C 58.878906 24.464844 58.90625 24.191406 58.984375 23.925781 L 64.105469 6.570312 C 64.183594 6.304688 64.3125 6.0625 64.488281 5.84375 C 64.664062 5.628906 64.875 5.453125 65.117188 5.320312 C 65.363281 5.1875 65.625 5.105469 65.902344 5.074219 C 66.179688 5.046875 66.453125 5.070312 66.722656 5.148438 Z M 66.722656 5.148438 " fill-opacity="1" fill-rule="nonzero"/><g clip-path="url(#7516f16b80)"><path fill="#090817" d="M 82.425781 33.359375 C 82.179688 33.359375 81.9375 33.324219 81.699219 33.253906 L 60.285156 26.957031 C 59.960938 26.859375 59.667969 26.707031 59.40625 26.496094 C 59.140625 26.285156 58.929688 26.03125 58.769531 25.734375 C 58.605469 25.4375 58.507812 25.121094 58.472656 24.785156 C 58.4375 24.449219 58.46875 24.121094 58.5625 23.796875 L 63.683594 6.445312 C 63.78125 6.121094 63.933594 5.828125 64.144531 5.566406 C 64.359375 5.304688 64.613281 5.09375 64.910156 4.933594 C 65.207031 4.769531 65.523438 4.671875 65.859375 4.636719 C 66.195312 4.601562 66.523438 4.632812 66.847656 4.726562 L 88.265625 11.023438 C 88.585938 11.121094 88.882812 11.273438 89.144531 11.484375 C 89.40625 11.695312 89.621094 11.949219 89.78125 12.246094 C 89.941406 12.542969 90.039062 12.859375 90.078125 13.195312 C 90.113281 13.527344 90.082031 13.859375 89.988281 14.183594 L 84.863281 31.535156 C 84.785156 31.800781 84.667969 32.042969 84.511719 32.269531 C 84.355469 32.492188 84.164062 32.6875 83.945312 32.851562 C 83.726562 33.015625 83.488281 33.140625 83.226562 33.230469 C 82.964844 33.316406 82.699219 33.359375 82.425781 33.359375 Z M 66.125 5.5 C 65.757812 5.5 65.425781 5.613281 65.128906 5.832031 C 64.832031 6.054688 64.632812 6.339844 64.527344 6.695312 L 59.40625 24.046875 C 59.34375 24.261719 59.324219 24.476562 59.347656 24.695312 C 59.371094 24.914062 59.433594 25.121094 59.539062 25.316406 C 59.644531 25.507812 59.785156 25.675781 59.957031 25.8125 C 60.128906 25.953125 60.320312 26.050781 60.535156 26.113281 L 81.949219 32.414062 C 82.160156 32.476562 82.378906 32.496094 82.597656 32.472656 C 82.816406 32.449219 83.023438 32.382812 83.21875 32.277344 C 83.414062 32.171875 83.578125 32.035156 83.71875 31.863281 C 83.855469 31.691406 83.957031 31.5 84.019531 31.289062 L 89.140625 13.933594 C 89.203125 13.722656 89.222656 13.507812 89.199219 13.289062 C 89.175781 13.070312 89.113281 12.863281 89.007812 12.667969 C 88.902344 12.476562 88.761719 12.308594 88.589844 12.171875 C 88.417969 12.03125 88.226562 11.929688 88.015625 11.867188 L 66.597656 5.570312 C 66.441406 5.523438 66.285156 5.5 66.125 5.5 Z M 66.125 5.5 " fill-opacity="1" fill-rule="nonzero"/></g><g clip-path="url(#f04cfbafdc)"><g clip-path="url(#7995e80329)"><path fill="#feffff" d="M 67.785156 7.0625 L 86.203125 12.476562 C 86.441406 12.546875 86.65625 12.660156 86.847656 12.816406 C 87.042969 12.972656 87.195312 13.15625 87.316406 13.375 C 87.433594 13.589844 87.507812 13.820312 87.53125 14.066406 C 87.558594 14.3125 87.535156 14.554688 87.464844 14.792969 L 83.078125 29.660156 C 83.007812 29.898438 82.894531 30.109375 82.738281 30.304688 C 82.585938 30.496094 82.398438 30.652344 82.179688 30.769531 C 81.964844 30.886719 81.730469 30.960938 81.484375 30.984375 C 81.238281 31.011719 80.996094 30.988281 80.761719 30.921875 L 62.34375 25.503906 C 62.105469 25.433594 61.890625 25.320312 61.699219 25.164062 C 61.503906 25.011719 61.347656 24.824219 61.230469 24.609375 C 61.113281 24.390625 61.039062 24.160156 61.015625 23.914062 C 60.988281 23.667969 61.007812 23.425781 61.078125 23.191406 L 65.46875 8.320312 C 65.539062 8.085938 65.652344 7.871094 65.804688 7.679688 C 65.960938 7.484375 66.148438 7.332031 66.367188 7.210938 C 66.582031 7.09375 66.816406 7.023438 67.0625 6.996094 C 67.308594 6.96875 67.546875 6.992188 67.785156 7.0625 Z M 67.785156 7.0625 " fill-opacity="1" fill-rule="nonzero"/></g></g><g clip-path="url(#17111716a1)"><g clip-path="url(#5db839aa2a)"><path fill="#090817" d="M 81.289062 31.4375 C 81.066406 31.4375 80.851562 31.402344 80.636719 31.339844 L 62.21875 25.925781 C 61.925781 25.835938 61.660156 25.699219 61.421875 25.507812 C 61.183594 25.316406 60.992188 25.085938 60.847656 24.816406 C 60.699219 24.550781 60.609375 24.261719 60.578125 23.960938 C 60.546875 23.65625 60.570312 23.359375 60.660156 23.066406 L 65.046875 8.199219 C 65.132812 7.90625 65.273438 7.640625 65.464844 7.40625 C 65.65625 7.167969 65.886719 6.976562 66.15625 6.828125 C 66.425781 6.683594 66.710938 6.59375 67.015625 6.5625 C 67.320312 6.53125 67.617188 6.558594 67.910156 6.644531 L 86.328125 12.058594 C 86.621094 12.144531 86.886719 12.285156 87.125 12.476562 C 87.363281 12.667969 87.554688 12.898438 87.699219 13.167969 C 87.847656 13.433594 87.9375 13.71875 87.96875 14.023438 C 88 14.328125 87.976562 14.625 87.886719 14.917969 L 83.5 29.78125 C 83.355469 30.273438 83.078125 30.667969 82.667969 30.972656 C 82.261719 31.28125 81.800781 31.433594 81.289062 31.433594 Z M 67.257812 7.421875 C 66.941406 7.425781 66.660156 7.519531 66.40625 7.707031 C 66.152344 7.898438 65.980469 8.144531 65.890625 8.445312 L 61.503906 23.3125 C 61.449219 23.496094 61.433594 23.679688 61.453125 23.867188 C 61.472656 24.054688 61.527344 24.234375 61.621094 24.398438 C 61.710938 24.5625 61.828125 24.707031 61.976562 24.824219 C 62.125 24.945312 62.289062 25.03125 62.46875 25.082031 L 80.886719 30.5 C 81.070312 30.550781 81.253906 30.570312 81.441406 30.550781 C 81.628906 30.527344 81.808594 30.472656 81.972656 30.382812 C 82.140625 30.292969 82.28125 30.175781 82.402344 30.027344 C 82.519531 29.878906 82.605469 29.714844 82.660156 29.535156 L 87.046875 14.667969 C 87.101562 14.484375 87.117188 14.300781 87.097656 14.113281 C 87.078125 13.925781 87.023438 13.75 86.933594 13.582031 C 86.839844 13.417969 86.722656 13.273438 86.574219 13.15625 C 86.429688 13.039062 86.261719 12.949219 86.082031 12.898438 L 67.664062 7.480469 C 67.53125 7.445312 67.398438 7.421875 67.257812 7.421875 Z M 67.257812 7.421875 " fill-opacity="1" fill-rule="nonzero"/></g></g><g clip-path="url(#146fa4bc01)"><g clip-path="url(#fe1d7dd0ac)"><path fill="#005cbb" d="M 57.53125 18.535156 C 57.53125 18.535156 67.0625 14.25 70.058594 16.332031 C 73.054688 18.414062 72.390625 22.691406 76.195312 21.011719 C 80 19.328125 83.011719 14.980469 87.558594 17.921875 L 83.554688 34.410156 L 56.695312 25.441406 Z M 57.53125 18.535156 " fill-opacity="1" fill-rule="nonzero"/></g></g><path fill="#005cbb" d="M 82.109375 14.414062 C 82.109375 14.710938 82.050781 14.996094 81.9375 15.269531 C 81.824219 15.542969 81.664062 15.785156 81.453125 15.992188 C 81.242188 16.203125 81 16.363281 80.726562 16.476562 C 80.453125 16.589844 80.167969 16.644531 79.871094 16.644531 C 79.574219 16.644531 79.289062 16.589844 79.015625 16.476562 C 78.742188 16.363281 78.5 16.203125 78.292969 15.992188 C 78.082031 15.785156 77.921875 15.542969 77.804688 15.269531 C 77.691406 14.996094 77.636719 14.710938 77.636719 14.414062 C 77.636719 14.117188 77.691406 13.835938 77.804688 13.5625 C 77.921875 13.289062 78.082031 13.046875 78.292969 12.835938 C 78.5 12.628906 78.742188 12.464844 79.015625 12.351562 C 79.289062 12.238281 79.574219 12.183594 79.871094 12.183594 C 80.167969 12.183594 80.453125 12.238281 80.726562 12.351562 C 81 12.464844 81.242188 12.628906 81.453125 12.835938 C 81.664062 13.046875 81.824219 13.289062 81.9375 13.5625 C 82.050781 13.835938 82.109375 14.117188 82.109375 14.414062 Z M 82.109375 14.414062 " fill-opacity="1" fill-rule="nonzero"/><path fill="#feffff" d="M 77.828125 147.582031 C 73.894531 122.644531 75.90625 118.332031 71.378906 112.890625 C 67.183594 107.84375 61.566406 106.871094 54.800781 106.652344 C 54.367188 106.640625 53.949219 106.546875 53.550781 106.375 C 53.148438 106.199219 52.796875 105.960938 52.488281 105.65625 C 52.179688 105.351562 51.9375 104.996094 51.761719 104.601562 C 51.585938 104.203125 51.492188 103.789062 51.472656 103.355469 C 55.824219 103.578125 61.1875 103.042969 65.671875 99.976562 C 70.804688 96.464844 73.28125 90.523438 73.832031 83.863281 C 74.050781 83.949219 74.273438 84.007812 74.503906 84.039062 C 74.734375 84.070312 74.964844 84.074219 75.195312 84.050781 C 75.425781 84.027344 75.652344 83.972656 75.871094 83.894531 C 76.089844 83.816406 76.296875 83.710938 76.488281 83.582031 C 76.683594 83.453125 76.855469 83.300781 77.015625 83.128906 C 77.171875 82.957031 77.304688 82.769531 77.414062 82.566406 C 77.523438 82.363281 77.609375 82.148438 77.667969 81.921875 C 77.726562 81.699219 77.757812 81.46875 77.757812 81.238281 C 77.761719 81.003906 77.734375 80.773438 77.679688 80.550781 C 77.628906 80.324219 77.546875 80.105469 77.441406 79.898438 C 77.335938 79.695312 77.207031 79.503906 77.050781 79.328125 C 76.898438 79.152344 76.726562 79 76.535156 78.867188 C 76.347656 78.734375 76.140625 78.625 75.925781 78.539062 C 75.707031 78.457031 75.484375 78.402344 75.253906 78.371094 C 75.023438 78.34375 74.792969 78.34375 74.558594 78.367188 C 74.328125 78.394531 74.105469 78.449219 73.886719 78.53125 C 73.582031 73.847656 72.617188 69.304688 70.988281 64.898438 C 70.667969 64.023438 70.289062 63.175781 69.847656 62.355469 C 69.410156 61.53125 68.917969 60.746094 68.371094 59.988281 C 67.824219 59.234375 67.230469 58.523438 66.585938 57.847656 C 65.941406 57.175781 65.25 56.550781 64.519531 55.972656 C 63.789062 55.394531 63.023438 54.871094 62.21875 54.398438 C 61.414062 53.925781 60.582031 53.511719 59.71875 53.152344 C 58.859375 52.792969 57.976562 52.496094 57.074219 52.257812 C 56.175781 52.023438 55.261719 51.847656 54.332031 51.738281 C 52.890625 51.316406 51.425781 51.019531 49.933594 50.855469 C 48.441406 50.691406 46.945312 50.65625 45.445312 50.753906 C 43.945312 50.847656 42.46875 51.074219 41.007812 51.429688 C 39.550781 51.785156 38.132812 52.265625 36.757812 52.867188 C 35.382812 53.472656 34.070312 54.191406 32.820312 55.023438 C 31.574219 55.855469 30.40625 56.789062 29.320312 57.828125 C 28.238281 58.863281 27.25 59.988281 26.363281 61.199219 C 25.476562 62.40625 24.703125 63.683594 24.039062 65.03125 C 23.375 66.375 22.835938 67.769531 22.417969 69.207031 C 22 70.648438 21.710938 72.113281 21.546875 73.605469 C 21.386719 75.09375 21.359375 76.589844 21.460938 78.085938 C 21.5625 79.578125 21.792969 81.054688 22.152344 82.511719 C 22.515625 83.964844 23 85.378906 23.609375 86.75 C 24.214844 88.121094 24.941406 89.425781 25.777344 90.671875 C 26.617188 91.914062 27.558594 93.074219 28.601562 94.15625 C 29.644531 95.234375 30.773438 96.214844 31.988281 97.097656 L 31.992188 97.101562 L 32.027344 97.128906 C 33.117188 97.914062 34.261719 98.613281 35.460938 99.222656 L 35.460938 104.289062 C 35.457031 104.769531 35.382812 105.238281 35.234375 105.695312 C 35.085938 106.152344 34.871094 106.574219 34.59375 106.964844 C 34.3125 107.355469 33.980469 107.695312 33.597656 107.984375 C 33.210938 108.273438 32.792969 108.496094 32.339844 108.65625 C 28.246094 110.132812 24.496094 112.640625 21.867188 116.902344 C 18.664062 122.097656 18.992188 126.871094 18.414062 143.855469 C 17.929688 158.164062 17.152344 170.808594 16.339844 181.417969 L 81.824219 181.097656 Z M 77.828125 147.582031 " fill-opacity="1" fill-rule="nonzero"/><path fill="#090817" d="M 16.339844 181.859375 C 16.210938 181.859375 16.105469 181.8125 16.015625 181.71875 C 15.929688 181.625 15.890625 181.511719 15.902344 181.386719 C 16.851562 168.957031 17.550781 156.328125 17.972656 143.84375 C 18.050781 141.585938 18.109375 139.542969 18.164062 137.691406 C 18.527344 125.414062 18.652344 121.28125 21.492188 116.675781 C 23.898438 112.769531 27.496094 109.9375 32.1875 108.246094 C 32.597656 108.101562 32.976562 107.898438 33.324219 107.636719 C 33.671875 107.375 33.972656 107.066406 34.226562 106.714844 C 34.480469 106.359375 34.675781 105.976562 34.808594 105.5625 C 34.945312 105.148438 35.015625 104.726562 35.019531 104.292969 L 35.019531 99.492188 C 33.886719 98.898438 32.800781 98.230469 31.769531 97.480469 C 31.753906 97.472656 31.742188 97.460938 31.726562 97.449219 C 30.492188 96.554688 29.34375 95.558594 28.285156 94.460938 C 27.226562 93.363281 26.269531 92.183594 25.417969 90.917969 C 24.5625 89.652344 23.828125 88.324219 23.207031 86.933594 C 22.589844 85.539062 22.097656 84.101562 21.730469 82.625 C 21.363281 81.144531 21.125 79.644531 21.023438 78.125 C 20.917969 76.605469 20.949219 75.085938 21.109375 73.570312 C 21.273438 72.054688 21.566406 70.566406 21.992188 69.101562 C 22.414062 67.636719 22.960938 66.222656 23.636719 64.851562 C 24.308594 63.484375 25.09375 62.1875 25.996094 60.957031 C 26.898438 59.726562 27.898438 58.582031 29 57.527344 C 30.101562 56.472656 31.285156 55.519531 32.554688 54.671875 C 33.824219 53.824219 35.15625 53.089844 36.554688 52.476562 C 37.949219 51.863281 39.390625 51.371094 40.871094 51.007812 C 42.355469 50.644531 43.859375 50.414062 45.382812 50.3125 C 46.90625 50.214844 48.425781 50.246094 49.945312 50.414062 C 51.460938 50.578125 52.953125 50.875 54.417969 51.300781 C 55.363281 51.414062 56.296875 51.589844 57.21875 51.828125 C 58.140625 52.070312 59.039062 52.371094 59.921875 52.738281 C 60.800781 53.101562 61.648438 53.527344 62.46875 54.007812 C 63.289062 54.492188 64.074219 55.027344 64.820312 55.617188 C 65.566406 56.210938 66.265625 56.847656 66.925781 57.535156 C 67.582031 58.222656 68.1875 58.953125 68.742188 59.722656 C 69.300781 60.496094 69.800781 61.300781 70.246094 62.140625 C 70.6875 62.984375 71.074219 63.851562 71.398438 64.742188 C 72.976562 69.015625 73.941406 73.421875 74.289062 77.960938 C 74.527344 77.917969 74.769531 77.898438 75.015625 77.910156 C 75.257812 77.917969 75.496094 77.953125 75.730469 78.015625 C 75.96875 78.078125 76.195312 78.164062 76.410156 78.277344 C 76.625 78.390625 76.828125 78.523438 77.015625 78.679688 C 77.199219 78.835938 77.367188 79.011719 77.515625 79.207031 C 77.664062 79.398438 77.789062 79.605469 77.890625 79.828125 C 77.992188 80.046875 78.066406 80.277344 78.117188 80.515625 C 78.167969 80.753906 78.191406 80.996094 78.191406 81.238281 C 78.1875 81.480469 78.160156 81.722656 78.101562 81.957031 C 78.046875 82.195312 77.964844 82.421875 77.859375 82.640625 C 77.753906 82.859375 77.625 83.0625 77.472656 83.253906 C 77.320312 83.445312 77.148438 83.617188 76.960938 83.769531 C 76.769531 83.921875 76.566406 84.050781 76.347656 84.160156 C 76.128906 84.265625 75.902344 84.347656 75.664062 84.40625 C 75.429688 84.464844 75.1875 84.496094 74.945312 84.5 C 74.699219 84.503906 74.460938 84.480469 74.222656 84.429688 C 73.515625 91.605469 70.648438 97.097656 65.917969 100.335938 C 62.242188 102.847656 57.550781 104.019531 51.96875 103.8125 C 52.035156 104.140625 52.15625 104.453125 52.328125 104.742188 C 52.503906 105.03125 52.71875 105.285156 52.976562 105.503906 C 53.234375 105.722656 53.519531 105.890625 53.835938 106.015625 C 54.148438 106.136719 54.476562 106.203125 54.8125 106.214844 C 62.164062 106.453125 67.558594 107.605469 71.71875 112.609375 C 74.617188 116.09375 74.90625 119.035156 75.675781 126.898438 C 76.140625 131.617188 76.773438 138.082031 78.261719 147.515625 L 78.265625 147.53125 L 82.257812 181.046875 C 82.273438 181.175781 82.238281 181.289062 82.152344 181.386719 C 82.066406 181.484375 81.957031 181.535156 81.824219 181.535156 L 16.34375 181.859375 Z M 32.269531 96.765625 L 32.285156 96.773438 C 33.355469 97.546875 34.480469 98.234375 35.660156 98.835938 C 35.820312 98.914062 35.898438 99.046875 35.898438 99.226562 L 35.898438 104.292969 C 35.894531 104.816406 35.8125 105.328125 35.648438 105.828125 C 35.484375 106.328125 35.253906 106.789062 34.949219 107.21875 C 34.640625 107.644531 34.28125 108.015625 33.859375 108.332031 C 33.441406 108.648438 32.984375 108.894531 32.488281 109.070312 C 27.925781 110.71875 24.574219 113.355469 22.242188 117.136719 C 19.523438 121.542969 19.402344 125.617188 19.042969 137.71875 C 18.988281 139.574219 18.929688 141.617188 18.851562 143.875 C 18.433594 156.210938 17.75 168.695312 16.8125 180.980469 L 81.328125 180.664062 L 77.394531 147.644531 C 75.902344 138.191406 75.265625 131.714844 74.800781 126.984375 C 74.050781 119.316406 73.765625 116.449219 71.042969 113.171875 C 67.089844 108.421875 61.890625 107.324219 54.785156 107.09375 C 54.296875 107.074219 53.828125 106.96875 53.378906 106.773438 C 52.929688 106.578125 52.53125 106.308594 52.183594 105.964844 C 51.835938 105.621094 51.5625 105.226562 51.363281 104.777344 C 51.167969 104.332031 51.058594 103.863281 51.035156 103.375 C 51.03125 103.246094 51.074219 103.136719 51.167969 103.042969 C 51.257812 102.953125 51.367188 102.910156 51.496094 102.917969 C 57.113281 103.207031 61.800781 102.097656 65.425781 99.617188 C 71.261719 95.621094 72.980469 88.824219 73.394531 83.824219 C 73.402344 83.757812 73.421875 83.691406 73.457031 83.632812 C 73.496094 83.574219 73.542969 83.527344 73.601562 83.488281 C 73.660156 83.453125 73.726562 83.429688 73.792969 83.425781 C 73.863281 83.417969 73.929688 83.429688 73.996094 83.453125 C 74.179688 83.527344 74.367188 83.578125 74.5625 83.605469 C 74.757812 83.628906 74.953125 83.632812 75.148438 83.613281 C 75.34375 83.59375 75.535156 83.546875 75.71875 83.480469 C 75.90625 83.414062 76.078125 83.328125 76.242188 83.21875 C 76.40625 83.109375 76.554688 82.980469 76.6875 82.835938 C 76.820312 82.6875 76.933594 82.53125 77.027344 82.355469 C 77.121094 82.183594 77.191406 82.003906 77.242188 81.8125 C 77.289062 81.621094 77.316406 81.429688 77.316406 81.230469 C 77.320312 81.035156 77.296875 80.839844 77.253906 80.648438 C 77.207031 80.457031 77.140625 80.277344 77.050781 80.101562 C 76.960938 79.925781 76.851562 79.765625 76.71875 79.617188 C 76.589844 79.46875 76.445312 79.339844 76.285156 79.226562 C 76.121094 79.113281 75.949219 79.019531 75.765625 78.949219 C 75.582031 78.878906 75.394531 78.832031 75.199219 78.808594 C 75.003906 78.78125 74.808594 78.78125 74.609375 78.804688 C 74.414062 78.828125 74.226562 78.875 74.042969 78.941406 C 73.976562 78.96875 73.910156 78.976562 73.839844 78.96875 C 73.769531 78.960938 73.707031 78.9375 73.648438 78.898438 C 73.589844 78.863281 73.542969 78.8125 73.507812 78.753906 C 73.472656 78.691406 73.453125 78.628906 73.449219 78.558594 C 73.148438 73.917969 72.1875 69.414062 70.574219 65.050781 C 70.261719 64.195312 69.894531 63.363281 69.46875 62.554688 C 69.042969 61.75 68.5625 60.976562 68.027344 60.238281 C 67.496094 59.496094 66.910156 58.796875 66.28125 58.140625 C 65.648438 57.480469 64.976562 56.867188 64.261719 56.300781 C 63.542969 55.734375 62.792969 55.222656 62.003906 54.761719 C 61.21875 54.296875 60.402344 53.894531 59.558594 53.542969 C 58.714844 53.195312 57.851562 52.90625 56.96875 52.675781 C 56.082031 52.445312 55.1875 52.28125 54.28125 52.175781 C 54.257812 52.171875 54.230469 52.167969 54.207031 52.160156 C 52.792969 51.746094 51.351562 51.457031 49.882812 51.292969 C 48.414062 51.132812 46.945312 51.097656 45.472656 51.191406 C 44 51.289062 42.546875 51.511719 41.113281 51.859375 C 39.675781 52.210938 38.285156 52.679688 36.933594 53.273438 C 35.582031 53.867188 34.292969 54.574219 33.066406 55.390625 C 31.839844 56.210938 30.691406 57.128906 29.625 58.148438 C 28.558594 59.167969 27.589844 60.273438 26.71875 61.460938 C 25.847656 62.648438 25.085938 63.90625 24.433594 65.226562 C 23.785156 66.550781 23.253906 67.917969 22.839844 69.335938 C 22.429688 70.75 22.144531 72.1875 21.988281 73.65625 C 21.828125 75.121094 21.800781 76.585938 21.902344 78.058594 C 22 79.527344 22.226562 80.976562 22.582031 82.40625 C 22.9375 83.835938 23.414062 85.226562 24.011719 86.574219 C 24.609375 87.921875 25.320312 89.203125 26.144531 90.425781 C 26.96875 91.648438 27.894531 92.792969 28.917969 93.851562 C 29.941406 94.914062 31.050781 95.875 32.246094 96.742188 C 32.253906 96.75 32.261719 96.757812 32.269531 96.761719 Z M 32.269531 96.765625 " fill-opacity="1" fill-rule="nonzero"/><path fill="#feffff" d="M 150.882812 85.25 C 149.78125 83.75 148.675781 85.652344 143.464844 88.050781 C 138.253906 90.453125 134.242188 90.855469 130.933594 92.253906 C 127.625 93.65625 124.769531 101.347656 124.769531 101.347656 L 108.433594 129.6875 C 96.722656 123.710938 88.550781 118.378906 83.109375 114.472656 C 81.253906 113.066406 79.285156 111.835938 77.207031 110.789062 C 69.019531 106.753906 60.746094 106.765625 54.863281 107.476562 L 62.945312 137.539062 C 66.652344 139.132812 72.066406 141.394531 78.683594 143.921875 C 100.15625 152.121094 111.015625 156.175781 117.039062 153.738281 C 126.03125 150.105469 129.609375 138.761719 135.480469 120.359375 C 137.207031 114.953125 138.597656 109.457031 139.648438 103.878906 C 139.648438 103.878906 141.460938 97.558594 144.367188 94.453125 C 147.273438 91.351562 151.984375 86.75 150.882812 85.25 Z M 150.882812 85.25 " fill-opacity="1" fill-rule="nonzero"/><path fill="#090817" d="M 112.921875 154.890625 C 106.496094 154.890625 96.398438 151.164062 78.523438 144.332031 C 73.226562 142.308594 67.925781 140.160156 62.769531 137.945312 C 62.640625 137.886719 62.558594 137.792969 62.519531 137.65625 L 54.4375 107.589844 C 54.402344 107.460938 54.421875 107.339844 54.496094 107.230469 C 54.570312 107.121094 54.675781 107.058594 54.808594 107.039062 C 63.226562 106.027344 70.828125 107.15625 77.398438 110.394531 C 79.398438 111.398438 81.292969 112.570312 83.082031 113.914062 L 83.363281 114.113281 C 91.292969 119.726562 99.589844 124.722656 108.261719 129.105469 L 124.371094 101.160156 C 124.613281 100.515625 127.402344 93.273438 130.765625 91.851562 C 132.261719 91.261719 133.789062 90.773438 135.351562 90.386719 C 138.074219 89.707031 140.71875 88.796875 143.28125 87.652344 C 144.734375 86.980469 146.140625 86.222656 147.507812 85.386719 C 149.25 84.34375 150.300781 83.714844 151.242188 84.992188 C 152.347656 86.496094 149.667969 89.519531 145.765625 93.621094 C 145.390625 94.015625 145.027344 94.398438 144.691406 94.757812 C 141.890625 97.746094 140.09375 103.9375 140.074219 104 C 139.019531 109.585938 137.628906 115.082031 135.902344 120.496094 L 135.816406 120.761719 C 129.910156 139.277344 126.34375 150.453125 117.207031 154.148438 C 115.828125 154.675781 114.398438 154.921875 112.921875 154.890625 Z M 63.3125 137.222656 C 68.394531 139.402344 73.617188 141.519531 78.839844 143.515625 C 99.503906 151.40625 110.886719 155.753906 116.875 153.335938 C 125.628906 149.792969 129.148438 138.765625 134.976562 120.496094 L 135.0625 120.230469 C 136.78125 114.835938 138.167969 109.359375 139.21875 103.796875 C 139.21875 103.785156 139.222656 103.765625 139.226562 103.753906 C 139.421875 103.09375 141.191406 97.203125 144.046875 94.15625 C 144.386719 93.796875 144.75 93.414062 145.125 93.015625 C 147.277344 90.753906 151.285156 86.539062 150.527344 85.507812 C 150.109375 84.9375 149.867188 84.996094 147.957031 86.136719 C 146.566406 86.992188 145.128906 87.761719 143.648438 88.449219 C 141.039062 89.613281 138.351562 90.539062 135.582031 91.230469 C 134.058594 91.609375 132.566406 92.082031 131.105469 92.65625 C 128.007812 93.96875 125.207031 101.421875 125.179688 101.496094 C 125.171875 101.519531 125.160156 101.542969 125.148438 101.5625 L 108.8125 129.90625 C 108.753906 130.007812 108.671875 130.074219 108.558594 130.109375 C 108.445312 130.140625 108.335938 130.132812 108.234375 130.078125 C 99.390625 125.625 90.929688 120.542969 82.851562 114.828125 L 82.570312 114.625 C 80.820312 113.308594 78.96875 112.164062 77.011719 111.183594 C 70.726562 108.085938 63.464844 106.964844 55.417969 107.855469 Z M 63.3125 137.222656 " fill-opacity="1" fill-rule="nonzero"/><g clip-path="url(#236439c95e)"><path fill="#feffff" d="M 42.0625 106.757812 C 22.296875 106.183594 14.335938 113.554688 11.496094 116.832031 C 7.886719 121.007812 5.984375 126.167969 2.585938 159.359375 C 1.628906 168.675781 0.933594 176.53125 0.453125 182.285156 L 21.519531 182.417969 Z M 42.0625 106.757812 " fill-opacity="1" fill-rule="nonzero"/></g><path fill="#005cbb" d="M 121.1875 61.335938 L 92.292969 61.335938 C 91.589844 61.335938 90.9375 61.15625 90.335938 60.800781 C 89.730469 60.441406 89.257812 59.957031 88.921875 59.34375 C 88.582031 58.726562 88.425781 58.070312 88.449219 57.371094 C 88.472656 56.667969 88.675781 56.023438 89.050781 55.433594 L 103.234375 33.238281 L 117.941406 10.21875 C 118.117188 9.945312 118.320312 9.699219 118.558594 9.480469 C 118.792969 9.257812 119.054688 9.070312 119.335938 8.917969 C 119.621094 8.761719 119.917969 8.644531 120.230469 8.5625 C 120.542969 8.484375 120.863281 8.441406 121.183594 8.441406 C 121.507812 8.441406 121.828125 8.484375 122.140625 8.5625 C 122.453125 8.644531 122.75 8.761719 123.035156 8.917969 C 123.316406 9.070312 123.578125 9.257812 123.8125 9.480469 C 124.050781 9.699219 124.253906 9.945312 124.429688 10.21875 L 139.140625 33.238281 L 153.320312 55.433594 C 153.699219 56.023438 153.898438 56.667969 153.921875 57.371094 C 153.945312 58.070312 153.789062 58.726562 153.449219 59.34375 C 153.113281 59.957031 152.644531 60.441406 152.039062 60.800781 C 151.433594 61.15625 150.78125 61.335938 150.078125 61.335938 Z M 121.1875 61.335938 " fill-opacity="1" fill-rule="nonzero"/><path fill="#feffff" d="M 122.832031 52.859375 C 122.832031 53.277344 122.75 53.675781 122.589844 54.0625 C 122.429688 54.449219 122.203125 54.789062 121.90625 55.085938 C 121.609375 55.378906 121.269531 55.609375 120.882812 55.769531 C 120.496094 55.925781 120.09375 56.007812 119.675781 56.007812 C 119.257812 56.007812 118.855469 55.925781 118.46875 55.769531 C 118.082031 55.609375 117.742188 55.378906 117.445312 55.085938 C 117.148438 54.789062 116.921875 54.449219 116.761719 54.0625 C 116.601562 53.675781 116.523438 53.277344 116.523438 52.859375 C 116.523438 52.441406 116.601562 52.039062 116.761719 51.652344 C 116.921875 51.269531 117.148438 50.925781 117.445312 50.632812 C 117.742188 50.335938 118.082031 50.109375 118.46875 49.949219 C 118.855469 49.789062 119.257812 49.710938 119.675781 49.710938 C 120.09375 49.710938 120.496094 49.789062 120.882812 49.949219 C 121.269531 50.109375 121.609375 50.335938 121.90625 50.632812 C 122.203125 50.925781 122.429688 51.269531 122.589844 51.652344 C 122.75 52.039062 122.832031 52.441406 122.832031 52.859375 Z M 122.832031 52.859375 " fill-opacity="1" fill-rule="nonzero"/><path fill="#feffff" d="M 117.972656 47.472656 C 117.972656 47.472656 117.761719 19.710938 118.15625 19.675781 C 118.546875 19.640625 123.402344 21.492188 123.648438 22.019531 C 123.894531 22.550781 121.96875 47.835938 121.96875 47.835938 Z M 117.972656 47.472656 " fill-opacity="1" fill-rule="nonzero"/><g clip-path="url(#f494009801)"><path fill="#abc7ff" d="M 34.296875 106.464844 C 34.296875 106.464844 42.515625 109.714844 53.042969 105.5625 C 53.042969 105.5625 73.292969 104.363281 76.234375 117.570312 C 79.171875 130.777344 84.722656 182.8125 84.722656 182.8125 L 12.34375 182.8125 C 12.34375 182.8125 13.246094 129.84375 17.554688 119.773438 C 21.863281 109.703125 34.296875 106.464844 34.296875 106.464844 Z M 34.296875 106.464844 " fill-opacity="1" fill-rule="nonzero"/></g><path fill="#abc7ff" d="M 34.296875 106.464844 C 31.972656 106.386719 18.121094 106.105469 11.742188 114.769531 C 8.542969 119.109375 6.671875 126.445312 6.226562 128.175781 C 5.667969 130.488281 5.230469 132.824219 4.925781 135.179688 C 4.277344 139.492188 3.46875 145.488281 2.785156 152.859375 L 16.339844 156.660156 Z M 34.296875 106.464844 " fill-opacity="1" fill-rule="nonzero"/><path fill="#abc7ff" d="M 59.164062 105.824219 C 63.152344 106.039062 67.0625 106.71875 70.890625 107.859375 C 74.722656 109 78.367188 110.566406 81.824219 112.566406 C 93.039062 119.171875 104.46875 127.175781 104.46875 127.175781 L 97.550781 151.425781 L 74.292969 143.519531 C 74.292969 143.519531 45.632812 118.363281 59.164062 105.824219 Z M 59.164062 105.824219 " fill-opacity="1" fill-rule="nonzero"/><g clip-path="url(#aa16bf5df6)"><path fill="#005cbb" d="M 0.453125 182.726562 C 0.441406 182.726562 0.425781 182.726562 0.414062 182.726562 C 0.292969 182.714844 0.191406 182.660156 0.117188 182.566406 C 0.0390625 182.476562 0.00390625 182.367188 0.015625 182.246094 L 2.785156 152.957031 C 2.792969 152.832031 2.847656 152.734375 2.941406 152.65625 C 3.035156 152.578125 3.140625 152.546875 3.261719 152.5625 C 3.382812 152.570312 3.484375 152.625 3.558594 152.71875 C 3.636719 152.8125 3.671875 152.917969 3.660156 153.039062 L 0.890625 182.332031 C 0.878906 182.441406 0.832031 182.535156 0.75 182.613281 C 0.664062 182.6875 0.566406 182.726562 0.453125 182.726562 Z M 0.453125 182.726562 " fill-opacity="1" fill-rule="nonzero"/></g><path fill="#005cbb" d="M 30.65625 99.558594 C 39.253906 103.546875 47.339844 103.066406 50.46875 99.027344 C 51.574219 97.59375 52.789062 94.707031 51.945312 92.117188 C 50.957031 89.082031 47.320312 87.867188 45.824219 86.050781 C 43.519531 83.25 44.320312 76.054688 48.53125 76.351562 C 52.742188 76.644531 51.570312 79.546875 54.863281 78.746094 C 58.15625 77.945312 54.847656 73.542969 57.953125 65.9375 C 61.0625 58.332031 65.449219 56.75 65.449219 56.75 C 66.132812 58.25 66.984375 58.835938 67.582031 59.09375 C 70.789062 60.46875 76.519531 56.617188 77.035156 52.0625 C 77.367188 49.125 75.425781 46.78125 75.03125 46.328125 C 71.613281 42.386719 64.539062 41.761719 57.121094 44.460938 C 54.371094 43.851562 43.195312 41.710938 31.992188 48.195312 C 29.703125 49.519531 19.71875 55.285156 16.886719 66.738281 C 13.941406 78.640625 19.367188 91.800781 30.65625 99.558594 Z M 30.65625 99.558594 " fill-opacity="1" fill-rule="nonzero"/><path fill="#feffff" d="M 13.296875 156.246094 L 13.28125 156.246094 C 13.160156 156.242188 13.058594 156.195312 12.976562 156.109375 C 12.890625 156.019531 12.851562 155.914062 12.855469 155.792969 L 13.707031 125.792969 C 13.714844 125.671875 13.761719 125.574219 13.847656 125.488281 C 13.9375 125.40625 14.039062 125.367188 14.160156 125.367188 C 14.28125 125.371094 14.382812 125.417969 14.464844 125.503906 C 14.550781 125.59375 14.589844 125.699219 14.585938 125.820312 L 13.734375 155.820312 C 13.730469 155.9375 13.6875 156.039062 13.601562 156.121094 C 13.515625 156.203125 13.414062 156.246094 13.296875 156.246094 Z M 13.296875 156.246094 " fill-opacity="1" fill-rule="nonzero"/><path fill="#feffff" d="M 80 145.898438 C 79.921875 145.902344 79.847656 145.882812 79.78125 145.84375 C 70.40625 140.484375 66.886719 128.867188 66.851562 128.75 C 66.820312 128.636719 66.832031 128.527344 66.890625 128.421875 C 66.949219 128.316406 67.035156 128.246094 67.152344 128.210938 C 67.265625 128.179688 67.378906 128.191406 67.484375 128.246094 C 67.589844 128.304688 67.660156 128.386719 67.695312 128.503906 C 67.730469 128.617188 71.152344 139.902344 80.214844 145.082031 C 80.410156 145.191406 80.480469 145.359375 80.421875 145.574219 C 80.363281 145.792969 80.222656 145.902344 79.996094 145.898438 Z M 80 145.898438 " fill-opacity="1" fill-rule="nonzero"/><path fill="#005cbb" d="M 52.652344 103.84375 C 50.628906 103.761719 48.660156 103.390625 46.746094 102.726562 C 46.632812 102.6875 46.550781 102.613281 46.5 102.503906 C 46.445312 102.394531 46.441406 102.28125 46.480469 102.167969 C 46.523438 102.054688 46.597656 101.972656 46.707031 101.921875 C 46.816406 101.867188 46.929688 101.863281 47.042969 101.902344 C 47.074219 101.914062 50.347656 103.074219 53.027344 102.957031 C 53.148438 102.953125 53.253906 102.988281 53.34375 103.070312 C 53.433594 103.15625 53.480469 103.257812 53.484375 103.378906 C 53.488281 103.5 53.449219 103.605469 53.367188 103.691406 C 53.285156 103.78125 53.183594 103.828125 53.0625 103.835938 C 52.925781 103.839844 52.789062 103.84375 52.652344 103.84375 Z M 52.652344 103.84375 " fill-opacity="1" fill-rule="nonzero"/><path fill="#005cbb" d="M 49.207031 85.386719 C 49.078125 85.386719 48.96875 85.339844 48.878906 85.242188 C 47.996094 84.246094 47.679688 83.273438 47.933594 82.347656 C 48.207031 81.351562 49.097656 80.648438 49.875 80.203125 L 47.039062 79.625 C 46.917969 79.601562 46.824219 79.542969 46.753906 79.4375 C 46.683594 79.335938 46.664062 79.226562 46.6875 79.105469 C 46.710938 78.984375 46.777344 78.890625 46.878906 78.824219 C 46.984375 78.757812 47.09375 78.738281 47.214844 78.765625 L 51.375 79.617188 C 51.597656 79.664062 51.714844 79.796875 51.726562 80.023438 C 51.738281 80.246094 51.636719 80.394531 51.421875 80.464844 C 51.398438 80.46875 49.152344 81.207031 48.777344 82.582031 C 48.605469 83.199219 48.863281 83.898438 49.535156 84.65625 C 49.660156 84.800781 49.683594 84.957031 49.605469 85.128906 C 49.527344 85.300781 49.394531 85.386719 49.207031 85.386719 Z M 49.207031 85.386719 " fill-opacity="1" fill-rule="nonzero"/><path fill="#abc7ff" d="M 67.273438 86.488281 C 67.292969 86.835938 67.203125 87.179688 67.011719 87.511719 C 66.820312 87.84375 66.539062 88.144531 66.167969 88.414062 C 65.796875 88.679688 65.363281 88.894531 64.867188 89.054688 C 64.371094 89.210938 63.851562 89.308594 63.304688 89.335938 C 62.761719 89.363281 62.234375 89.324219 61.722656 89.214844 C 61.214844 89.109375 60.761719 88.941406 60.363281 88.714844 C 59.964844 88.484375 59.652344 88.214844 59.429688 87.90625 C 59.203125 87.59375 59.082031 87.261719 59.0625 86.914062 C 59.046875 86.5625 59.132812 86.222656 59.324219 85.886719 C 59.515625 85.554688 59.796875 85.253906 60.167969 84.988281 C 60.542969 84.71875 60.976562 84.507812 61.472656 84.347656 C 61.96875 84.1875 62.488281 84.09375 63.03125 84.0625 C 63.574219 84.035156 64.101562 84.074219 64.613281 84.183594 C 65.121094 84.289062 65.578125 84.457031 65.972656 84.683594 C 66.371094 84.914062 66.683594 85.183594 66.910156 85.496094 C 67.132812 85.804688 67.253906 86.136719 67.273438 86.488281 Z M 67.273438 86.488281 " fill-opacity="1" fill-rule="nonzero"/><path fill="#feffff" d="M 54.863281 64.507812 C 54.789062 64.507812 54.722656 64.492188 54.65625 64.457031 C 54.59375 64.425781 54.539062 64.378906 54.5 64.316406 C 54.457031 64.257812 54.433594 64.191406 54.425781 64.121094 C 54.417969 64.046875 54.425781 63.976562 54.453125 63.910156 C 54.570312 63.613281 57.351562 56.667969 61.84375 54.085938 C 61.976562 54.007812 62.109375 54.003906 62.246094 54.066406 C 62.285156 54.082031 66.253906 55.839844 69.195312 54.441406 C 70.601562 53.773438 71.566406 52.476562 72.066406 50.585938 C 72.097656 50.46875 72.164062 50.378906 72.269531 50.316406 C 72.375 50.257812 72.484375 50.242188 72.601562 50.273438 C 72.71875 50.304688 72.808594 50.371094 72.871094 50.476562 C 72.929688 50.582031 72.945312 50.691406 72.914062 50.808594 C 72.34375 52.960938 71.21875 54.453125 69.570312 55.234375 C 66.640625 56.625 63.019531 55.328125 62.097656 54.953125 C 57.980469 57.472656 55.296875 64.164062 55.269531 64.230469 C 55.199219 64.417969 55.0625 64.507812 54.863281 64.507812 Z M 54.863281 64.507812 " fill-opacity="1" fill-rule="nonzero"/><path fill="#feffff" d="M 48.53125 69.179688 C 48.421875 69.179688 48.324219 69.140625 48.242188 69.070312 C 48.160156 68.996094 48.109375 68.90625 48.097656 68.796875 C 48.085938 68.703125 46.996094 59.378906 56.089844 53.824219 C 56.191406 53.761719 56.300781 53.742188 56.421875 53.769531 C 56.539062 53.800781 56.628906 53.867188 56.691406 53.96875 C 56.753906 54.070312 56.773438 54.183594 56.746094 54.300781 C 56.714844 54.417969 56.652344 54.507812 56.546875 54.570312 C 47.933594 59.832031 48.957031 68.597656 48.96875 68.683594 C 48.984375 68.804688 48.953125 68.914062 48.878906 69.007812 C 48.804688 69.105469 48.707031 69.160156 48.585938 69.175781 C 48.570312 69.175781 48.550781 69.179688 48.53125 69.179688 Z M 48.53125 69.179688 " fill-opacity="1" fill-rule="nonzero"/><path fill="#feffff" d="M 36.535156 97.863281 C 36.484375 97.863281 36.4375 97.855469 36.390625 97.839844 C 27.171875 94.589844 25.03125 84.25 25.011719 84.144531 C 24.988281 84.027344 25.011719 83.917969 25.082031 83.820312 C 25.148438 83.722656 25.242188 83.660156 25.359375 83.636719 C 25.476562 83.613281 25.585938 83.636719 25.683594 83.699219 C 25.785156 83.765625 25.847656 83.859375 25.875 83.976562 C 25.894531 84.074219 27.941406 93.933594 36.683594 97.011719 C 36.785156 97.046875 36.859375 97.109375 36.914062 97.203125 C 36.96875 97.292969 36.988281 97.394531 36.96875 97.5 C 36.949219 97.605469 36.902344 97.691406 36.820312 97.761719 C 36.738281 97.828125 36.644531 97.863281 36.535156 97.863281 Z M 36.535156 97.863281 " fill-opacity="1" fill-rule="nonzero"/><path fill="#feffff" d="M 44.824219 96.261719 L 44.816406 96.261719 C 34.414062 96.125 32.910156 88.238281 32.894531 88.160156 C 32.875 88.039062 32.898438 87.929688 32.96875 87.832031 C 33.039062 87.734375 33.132812 87.671875 33.25 87.652344 C 33.371094 87.628906 33.480469 87.65625 33.578125 87.722656 C 33.679688 87.792969 33.738281 87.886719 33.761719 88.007812 C 33.816406 88.3125 35.179688 95.257812 44.828125 95.382812 C 44.949219 95.386719 45.050781 95.429688 45.136719 95.515625 C 45.222656 95.601562 45.265625 95.703125 45.261719 95.824219 C 45.261719 95.945312 45.21875 96.046875 45.132812 96.132812 C 45.046875 96.21875 44.945312 96.261719 44.824219 96.261719 Z M 44.824219 96.261719 " fill-opacity="1" fill-rule="nonzero"/><path fill="#005cbb" d="M 108.179688 144.613281 C 107.988281 144.613281 107.851562 144.523438 107.777344 144.347656 C 107.65625 144.078125 104.910156 137.589844 108.023438 129.53125 C 108.066406 129.417969 108.144531 129.335938 108.253906 129.289062 C 108.367188 129.238281 108.480469 129.238281 108.59375 129.28125 C 108.707031 129.324219 108.785156 129.402344 108.835938 129.511719 C 108.882812 129.621094 108.886719 129.734375 108.84375 129.847656 C 107.945312 132.113281 107.476562 134.464844 107.429688 136.898438 C 107.382812 139.335938 107.769531 141.703125 108.578125 144 C 108.609375 144.066406 108.621094 144.136719 108.613281 144.210938 C 108.609375 144.285156 108.585938 144.351562 108.542969 144.414062 C 108.503906 144.476562 108.453125 144.527344 108.386719 144.5625 C 108.320312 144.597656 108.25 144.613281 108.175781 144.613281 Z M 108.179688 144.613281 " fill-opacity="1" fill-rule="nonzero"/></svg>