<svg width="48" height="48" viewBox="0 0 48 48" fill="none" xmlns="http://www.w3.org/2000/svg">
<g clip-path="url(#clip0_0_7711)">
<g clip-path="url(#clip1_0_7711)">
<path d="M18.525 13.8985C11.9437 15.1407 12.2766 15.061 12.0938 15.4219C12 15.6047 12 15.7313 12 24C12 32.2688 12 32.3954 12.0938 32.5782C12.2766 32.9391 11.9297 32.8594 18.6281 34.1157L24.7828 35.2688L25.0031 35.1844C25.1344 35.1329 25.2703 35.0344 25.35 34.9313L25.4766 34.7672L25.4906 33.5063L25.5047 32.25L30.5109 32.2407L35.5172 32.2266L35.6906 32.0907C36.0234 31.8375 36 32.4563 35.9906 23.9344C35.9766 16.2329 35.9766 16.2235 35.8781 16.0969C35.8266 16.0266 35.7234 15.9235 35.6531 15.8719C35.5266 15.7735 35.4938 15.7735 30.5109 15.7594L25.5 15.75V14.5501C25.5 13.5329 25.4859 13.3266 25.425 13.186C25.3078 12.9469 25.0688 12.7875 24.8063 12.7688C24.6656 12.7594 22.4484 13.1579 18.525 13.8985ZM23.9906 28.7954L23.9766 33.5907L19.3125 32.7141C16.7484 32.236 14.3906 31.7954 14.0766 31.7344L13.5 31.6266V24V16.3688L14.0766 16.2657C14.3906 16.2047 16.7484 15.7641 19.3125 15.2813L23.9766 14.4047L23.9906 19.2047C23.9953 21.8391 23.9953 26.1563 23.9906 28.7954ZM34.5 24V30.75H30H25.5V30V29.2547L26.7563 29.2407L28.0172 29.2266L28.1906 29.0907C28.6125 28.7719 28.5938 28.2 28.1531 27.8719C28.0312 27.7782 27.9516 27.7735 26.7609 27.7594L25.5 27.7454V27V26.2547L26.7563 26.2407L28.0172 26.2266L28.1906 26.0907C28.6125 25.7719 28.5938 25.2 28.1531 24.8719C28.0312 24.7782 27.9516 24.7735 26.7609 24.7594L25.5 24.7454V24V23.2547L26.7563 23.2407L28.0172 23.2266L28.1906 23.0907C28.6125 22.7719 28.5938 22.2 28.1531 21.8719C28.0312 21.7782 27.9516 21.7735 26.7609 21.7594L25.5 21.7454V21V20.2547L26.7563 20.2407L28.0172 20.2266L28.1906 20.0907C28.6125 19.7719 28.5938 19.2001 28.1531 18.8719C28.0312 18.7782 27.9516 18.7735 26.7609 18.7594L25.5 18.7454V18V17.25H30H34.5V24Z" fill="#3F484A"/>
<path d="M21.4219 19.5844C21.3141 19.6407 20.9719 20.0344 20.4 20.7703C19.9266 21.375 19.4062 22.0407 19.2375 22.2563L18.9328 22.6453L17.9531 21.525C16.9547 20.386 16.8047 20.25 16.5047 20.25C15.9844 20.25 15.6 20.836 15.8156 21.286C15.8578 21.375 16.1719 21.7641 16.5141 22.1532C16.8516 22.5422 17.3297 23.086 17.5641 23.3578L18 23.85L16.9453 25.2047C16.3687 25.9453 15.8578 26.625 15.8156 26.7141C15.5156 27.3375 16.3125 28.0125 16.8984 27.6282C16.9687 27.5813 17.4562 26.9907 17.9859 26.311C18.5109 25.636 18.9609 25.0688 18.9844 25.0547C19.0078 25.0407 19.5328 25.6078 20.1516 26.311C20.9297 27.1969 21.3328 27.6235 21.45 27.6797C22.0359 27.9563 22.7062 27.3047 22.4391 26.7094C22.4062 26.6391 21.8437 25.9688 21.1875 25.2188C20.5312 24.4688 19.9875 23.8313 19.9781 23.8125C19.9687 23.7891 20.475 23.1094 21.1031 22.3032C22.5094 20.4938 22.4625 20.5641 22.4859 20.325C22.5516 19.7625 21.9141 19.3172 21.4219 19.5844Z" fill="#3F484A"/>
<path d="M30.4453 18.8157C30.1266 18.9563 29.9531 19.3125 30.0235 19.6735C30.061 19.8938 30.3563 20.1844 30.5719 20.2266C30.6563 20.2454 31.1297 20.25 31.6219 20.2407L32.5172 20.2266L32.6906 20.0907C33.1125 19.7719 33.0938 19.2 32.6531 18.8719C32.536 18.7829 32.4516 18.7735 31.5563 18.7641C30.8203 18.7547 30.5531 18.7641 30.4453 18.8157Z" fill="#3F484A"/>
<path d="M30.4453 21.8157C30.1266 21.9563 29.9531 22.3125 30.0235 22.6735C30.061 22.8938 30.3563 23.1844 30.5719 23.2266C30.6563 23.2454 31.1297 23.25 31.6219 23.2407L32.5172 23.2266L32.6906 23.0907C33.1125 22.7719 33.0938 22.2 32.6531 21.8719C32.536 21.7829 32.4516 21.7735 31.5563 21.7641C30.8203 21.7547 30.5531 21.7641 30.4453 21.8157Z" fill="#3F484A"/>
<path d="M30.4453 24.8157C30.1266 24.9563 29.9531 25.3125 30.0235 25.6735C30.061 25.8938 30.3563 26.1844 30.5719 26.2266C30.6563 26.2454 31.1297 26.25 31.6219 26.2407L32.5172 26.2266L32.6906 26.0907C33.1125 25.7719 33.0938 25.2 32.6531 24.8719C32.536 24.7829 32.4516 24.7735 31.5563 24.7641C30.8203 24.7547 30.5531 24.7641 30.4453 24.8157Z" fill="#3F484A"/>
<path d="M30.4453 27.8157C30.1266 27.9563 29.9531 28.3125 30.0235 28.6735C30.061 28.8938 30.3563 29.1844 30.5719 29.2266C30.6563 29.2454 31.1297 29.25 31.6219 29.2407L32.5172 29.2266L32.6906 29.0907C33.1125 28.7719 33.0938 28.2 32.6531 27.8719C32.536 27.7829 32.4516 27.7735 31.5563 27.7641C30.8203 27.7547 30.5531 27.7641 30.4453 27.8157Z" fill="#3F484A"/>
</g>
</g>
<defs>
<clipPath id="clip0_0_7711">
<rect x="4" y="4" width="40" height="40" rx="20" fill="white"/>
</clipPath>
<clipPath id="clip1_0_7711">
<rect width="24" height="24" fill="white" transform="translate(12 12)"/>
</clipPath>
</defs>
</svg>
