<svg width="18" height="18" viewBox="0 0 18 18" fill="none" xmlns="http://www.w3.org/2000/svg">
<g clip-path="url(#clip0_28_4546)">
<path d="M7.35469 0.601104C7.19648 0.646807 6.975 0.878839 6.9293 1.04407C6.90469 1.12845 6.89062 1.75071 6.89062 2.74564C6.89062 4.19056 6.89766 4.3347 6.96094 4.58431C7.06289 4.98157 7.21758 5.25228 7.52344 5.55462C7.82578 5.86048 8.09648 6.01517 8.49375 6.11712C8.98945 6.24368 9.52734 6.1804 9.99492 5.93431C10.3113 5.76907 10.7121 5.35774 10.8738 5.03782C11.1023 4.57024 11.1129 4.47181 11.1023 2.65071L11.0918 1.03353L10.9969 0.889386C10.9441 0.812042 10.8422 0.710089 10.7684 0.664386L10.6348 0.580011L9.05273 0.572979C8.11406 0.569464 7.425 0.580011 7.35469 0.601104ZM9.69609 3.13939L9.68555 4.3136L9.59063 4.45423C9.44648 4.6722 9.27422 4.7636 9 4.7636C8.72578 4.7636 8.55352 4.6722 8.40938 4.45423L8.31445 4.3136L8.30391 3.13939L8.29336 1.96868H9H9.70664L9.69609 3.13939Z" fill="white"/>
<path d="M2.9072 3.43125C1.52908 3.68437 0.470873 4.67578 0.0947016 6.06445C0.0208735 6.34219 0.0208735 6.37734 0.0103266 10.2621C-0.0037359 14.4773 -0.0037359 14.4809 0.179077 15.0223C0.414623 15.7254 0.924389 16.4074 1.50798 16.8012C1.83142 17.0227 2.32712 17.2477 2.69275 17.3391L3.00564 17.4199H8.9822C14.6775 17.4199 14.9728 17.4164 15.24 17.3531C16.0908 17.1562 16.8994 16.6148 17.367 15.9293C17.5779 15.6164 17.8064 15.1172 17.9013 14.7656L17.9787 14.4668L17.9892 10.5504C18.0033 6.33516 18.0033 6.33164 17.8205 5.79023C17.4302 4.62305 16.4459 3.73711 15.24 3.45937C15.0009 3.40312 14.8076 3.39258 13.9744 3.39258C13.0006 3.39258 12.99 3.39258 12.8564 3.47695C12.7826 3.52265 12.6806 3.62461 12.6279 3.70195C12.547 3.82148 12.533 3.88476 12.533 4.07812C12.533 4.27148 12.547 4.33476 12.6279 4.4543C12.6806 4.53164 12.7826 4.63359 12.8564 4.6793C12.9865 4.76015 13.0181 4.76367 13.9392 4.78476C14.783 4.80234 14.9131 4.81289 15.117 4.87969C15.4509 4.98867 15.7638 5.18906 16.0099 5.44922C16.2701 5.72695 16.4318 6.01875 16.5232 6.38437C16.59 6.64805 16.5935 6.78516 16.5935 10.4062C16.5935 14.0273 16.59 14.1645 16.5232 14.4281C16.4248 14.8184 16.2666 15.0926 15.9607 15.3984C15.6584 15.7043 15.3912 15.859 14.9904 15.9609C14.7267 16.0312 14.5791 16.0312 8.99978 16.0312C3.42048 16.0312 3.27283 16.0312 3.00915 15.9609C2.61189 15.859 2.34119 15.7043 2.03884 15.3984C1.73298 15.0961 1.5783 14.8254 1.47634 14.4281C1.40955 14.1645 1.40603 14.0273 1.40603 10.4062C1.40603 6.78516 1.40955 6.64805 1.47634 6.38437C1.65564 5.67773 2.1865 5.11172 2.88259 4.87969C3.09001 4.81289 3.21306 4.80234 4.13415 4.78476L5.1572 4.76367L5.29783 4.66875C5.51579 4.52461 5.6072 4.35234 5.6072 4.07812C5.6072 3.8039 5.51579 3.63164 5.29783 3.4875L5.1572 3.39258L4.16931 3.38555C3.43806 3.38203 3.11111 3.39258 2.9072 3.43125Z" fill="white"/>
<path d="M4.40156 7.66406C4.01836 7.76602 3.74414 7.92422 3.44531 8.22656C3.13945 8.52891 2.98477 8.79961 2.88281 9.19688C2.81602 9.44648 2.8125 9.59063 2.8125 11.1094C2.8125 12.941 2.82305 13.05 3.06562 13.5105C3.21328 13.7953 3.64219 14.2242 3.92695 14.3719C4.33828 14.5863 4.58086 14.625 5.55469 14.625C6.52852 14.625 6.77109 14.5863 7.18242 14.3719C7.46719 14.2242 7.89609 13.7953 8.04375 13.5105C8.28633 13.05 8.29687 12.941 8.29687 11.1094C8.29687 9.27773 8.28633 9.16875 8.04375 8.7082C7.89609 8.42344 7.46719 7.99453 7.18242 7.84688C6.76758 7.62891 6.53203 7.59375 5.54062 7.59727C4.78828 7.59727 4.61953 7.60781 4.40156 7.66406ZM6.56367 9.1125C6.64102 9.16523 6.74297 9.26719 6.78867 9.34102L6.87305 9.47461V11.1094V12.7441L6.78867 12.8777C6.74297 12.9516 6.64102 13.0535 6.56367 13.1063L6.41953 13.2012H5.55469H4.68984L4.5457 13.1063C4.46836 13.0535 4.36641 12.9516 4.3207 12.8777L4.23633 12.7441L4.22578 11.1902C4.21875 10.1426 4.2293 9.58711 4.25391 9.48867C4.29961 9.31992 4.52109 9.08789 4.68281 9.03867C4.74609 9.01758 5.15742 9.00703 5.61094 9.01055L6.42305 9.01758L6.56367 9.1125Z" fill="white"/>
<path d="M10.1669 7.63242C10.0017 7.68164 9.78372 7.91367 9.7345 8.09297C9.65364 8.40586 9.77668 8.73281 10.0439 8.89805L10.1775 8.98242H12.4486H14.7161L14.8603 8.8875C15.0782 8.74336 15.1697 8.57109 15.1697 8.29688C15.1697 8.02266 15.0782 7.85039 14.8603 7.70625L14.7161 7.61133L12.5013 7.6043C11.1618 7.60078 10.2372 7.61133 10.1669 7.63242Z" fill="white"/>
<path d="M10.1669 10.4449C10.0017 10.4941 9.78372 10.7262 9.7345 10.9055C9.65364 11.2184 9.77668 11.5453 10.0439 11.7105L10.1775 11.7949H12.4486H14.7161L14.8603 11.7C15.0782 11.5559 15.1697 11.3836 15.1697 11.1094C15.1697 10.8352 15.0782 10.6629 14.8603 10.5188L14.7161 10.4238L12.5013 10.4168C11.1618 10.4133 10.2372 10.4238 10.1669 10.4449Z" fill="white"/>
<path d="M10.1669 13.2574C10.0017 13.3066 9.78372 13.5387 9.7345 13.718C9.65364 14.0309 9.77668 14.3578 10.0439 14.523L10.1775 14.6074H12.4486H14.7161L14.8603 14.5125C15.0782 14.3684 15.1697 14.1961 15.1697 13.9219C15.1697 13.6477 15.0782 13.4754 14.8603 13.3312L14.7161 13.2363L12.5013 13.2293C11.1618 13.2258 10.2372 13.2363 10.1669 13.2574Z" fill="white"/>
</g>
<defs>
<clipPath id="clip0_28_4546">
<rect width="18" height="18" fill="white"/>
</clipPath>
</defs>
</svg>
