<svg width="48" height="48" viewBox="0 0 48 48" fill="none" xmlns="http://www.w3.org/2000/svg">
<g clip-path="url(#clip0_0_7714)">
<g clip-path="url(#clip1_0_7714)">
<path d="M16.6641 12.0656C16.2656 12.164 15.975 12.3328 15.675 12.6328C15.3703 12.9375 15.1828 13.2703 15.0985 13.6781C15.0656 13.8421 15.0469 14.7515 15.0469 16.3593V18.7968H14.6953C13.9875 18.7968 13.4953 18.9843 13.05 19.4296C12.7453 19.7343 12.5578 20.0671 12.4735 20.475C12.3985 20.8265 12.4031 29.4281 12.4735 29.775C12.5625 30.1781 12.75 30.5156 13.0547 30.8203C13.4953 31.2609 13.9875 31.4531 14.6953 31.4531H15.0469V32.7656C15.0469 33.5625 15.0656 34.1718 15.0985 34.3218C15.2719 35.1281 15.9188 35.775 16.725 35.9484C17.0766 36.0234 30.9188 36.0234 31.275 35.9484C31.875 35.8218 32.4047 35.4187 32.686 34.889C32.9297 34.4203 32.9531 34.2234 32.9531 32.7656V31.4531H33.3047C33.9703 31.4531 34.4672 31.275 34.9031 30.8812C35.1797 30.6281 35.4469 30.15 35.5266 29.775C35.6016 29.4234 35.5969 20.8218 35.5266 20.475C35.4375 20.0718 35.25 19.7343 34.9453 19.425C34.5094 18.9843 34.0172 18.7968 33.3094 18.7968H32.9672L32.9391 18.3843C32.8922 17.6812 32.6578 17.039 32.2688 16.5187C32.0063 16.1718 28.9453 12.9609 28.6688 12.7406C28.3828 12.5156 27.9375 12.2859 27.4922 12.1359L27.1641 12.0234L22.0313 12.014C18.0235 12.0093 16.8469 12.0187 16.6641 12.0656ZM27.2344 13.5328C27.375 13.5937 27.5906 13.7062 27.7172 13.7906C28.0266 14.0062 31.1297 17.2968 31.2797 17.5734C31.4344 17.85 31.5469 18.2812 31.5469 18.5718V18.7968H24H16.4531V16.3828C16.4531 14.0531 16.4578 13.9593 16.5469 13.7812C16.6031 13.6687 16.711 13.5609 16.8188 13.5046C16.9875 13.4109 17.086 13.4109 21.9844 13.4203L26.9766 13.4296L27.2344 13.5328ZM33.7969 20.2968C33.9188 20.3578 34.0172 20.4562 34.0781 20.5781C34.1719 20.7562 34.1719 20.8453 34.1719 25.125C34.1719 29.4046 34.1719 29.4937 34.0781 29.6718C34.0172 29.7937 33.9188 29.8921 33.7969 29.9531C33.6141 30.0468 33.5438 30.0468 23.9953 30.0468H14.3813L14.1938 29.9437C14.0813 29.8781 13.9688 29.7656 13.9172 29.6625C13.8328 29.4937 13.8281 29.3203 13.8281 25.1156C13.8328 20.1984 13.8094 20.5406 14.1844 20.3156L14.3672 20.2031H23.9906C33.5438 20.2031 33.6141 20.2031 33.7969 20.2968ZM31.5469 32.7421C31.5469 33.9468 31.5422 34.05 31.4531 34.2187C31.3922 34.3406 31.2938 34.439 31.1719 34.5C30.9891 34.5937 30.9094 34.5937 23.9953 34.5937H17.0063L16.8188 34.4906C16.4672 34.2937 16.4531 34.214 16.4531 32.7421V31.4531H24H31.5469V32.7421Z" fill="#3F484A"/>
<path d="M28.9312 21.8297C28.8468 21.8719 28.7296 21.9703 28.6734 22.05L28.5703 22.1953L28.5562 25.0406C28.5468 27.8297 28.5468 27.8953 28.6406 28.0781C28.7484 28.2891 29.0156 28.4531 29.25 28.4531C29.4843 28.4531 29.7515 28.2891 29.8593 28.0781C29.9437 27.9094 29.9531 27.8062 29.9531 26.8125V25.7344H30.6937C31.3453 25.7344 31.4484 25.725 31.5843 25.6406C31.9078 25.4437 32.0109 25.0406 31.8234 24.7031C31.65 24.3937 31.5281 24.3516 30.6937 24.3375L29.9531 24.3187V23.7422V23.1609L30.7921 23.1469C31.5562 23.1328 31.6453 23.1234 31.7625 23.0344C32.0953 22.7859 32.1843 22.4672 32.0062 22.1297C31.814 21.7641 31.7578 21.75 30.3281 21.75C29.2781 21.75 29.0625 21.7641 28.9312 21.8297Z" fill="#3F484A"/>
<path d="M16.1625 21.8952C16.0546 21.9515 15.9468 22.0593 15.8906 22.1718C15.7968 22.3546 15.7968 22.4249 15.8062 25.214C15.8203 28.0171 15.8203 28.0734 15.9187 28.1999C16.2375 28.6312 16.7812 28.6499 17.0859 28.2468C17.1703 28.1296 17.1796 28.0312 17.2031 27.1734L17.2265 26.2265L17.8828 26.1984C18.7734 26.1609 19.1109 26.0249 19.6031 25.5093C20.039 25.0499 20.2125 24.6187 20.2078 23.9812C20.2078 23.3484 19.9593 22.8046 19.4859 22.3781C18.9515 21.8999 18.5625 21.7968 17.2734 21.8015C16.4343 21.8015 16.3171 21.8109 16.1625 21.8952ZM18.4546 23.3531C18.675 23.4984 18.8062 23.7421 18.8062 24.0234C18.8062 24.2765 18.7031 24.4734 18.4828 24.6421C18.3234 24.764 18.2812 24.7734 17.7562 24.7874L17.2031 24.8062V23.9999V23.1937L17.7328 23.2124C18.2156 23.2265 18.2812 23.2359 18.4546 23.3531Z" fill="#3F484A"/>
<path d="M22.1625 21.8953C22.0547 21.9516 21.9469 22.0594 21.8906 22.1719C21.7969 22.3594 21.7922 22.4203 21.8062 25.1391L21.8203 27.9141L21.9281 28.0688C22.1437 28.3688 22.2187 28.3828 23.3437 28.3688C24.4359 28.3547 24.7219 28.3125 25.1719 28.0875C25.4953 27.9328 26.0859 27.3516 26.2922 26.9906C27.1219 25.5188 26.8125 23.2875 25.6406 22.3641C25.0594 21.9047 24.614 21.7969 23.2969 21.8016C22.4344 21.8016 22.3172 21.8109 22.1625 21.8953ZM24.539 23.3297C24.9797 23.5641 25.2375 24.0188 25.3265 24.7031C25.425 25.5094 25.214 26.2734 24.7734 26.6625C24.5156 26.8922 24.3328 26.9438 23.7187 26.9625L23.2265 26.9766L23.2125 25.0828L23.2031 23.1938L23.775 23.2125C24.2484 23.2266 24.3844 23.25 24.539 23.3297Z" fill="#3F484A"/>
</g>
</g>
<defs>
<clipPath id="clip0_0_7714">
<rect x="4" y="4" width="40" height="40" rx="20" fill="white"/>
</clipPath>
<clipPath id="clip1_0_7714">
<rect width="24" height="24" fill="white" transform="translate(12 12)"/>
</clipPath>
</defs>
</svg>
