<svg width="18" height="18" viewBox="0 0 18 18" fill="none" xmlns="http://www.w3.org/2000/svg">
<g clip-path="url(#clip0_2_9686)">
<path d="M0.274219 0.0738286C0.193359 0.116016 0.1125 0.196875 0.0703125 0.28125C0 0.41836 0 0.471094 0 9C0 17.5324 0 17.5816 0.0703125 17.7188C0.116016 17.8102 0.189844 17.884 0.28125 17.9297C0.418359 18 0.474609 18 7.09102 18C11.4891 18 13.8656 17.9859 14.0625 17.9648C15.3457 17.8066 16.5094 17.0859 17.2582 15.9855C17.5887 15.5004 17.8875 14.6883 17.9648 14.0625C18.1652 12.4031 17.4094 10.7332 16.0312 9.81211C15.5777 9.50977 15.1629 9.32344 14.5652 9.15469C14.5301 9.14414 14.5195 8.65547 14.5195 6.85547C14.5195 4.93594 14.5125 4.55273 14.4703 4.47188C14.3895 4.32422 10.1215 0.0773442 10.009 0.0351567C9.94219 0.0105474 8.38125 4.76837e-07 5.15742 4.76837e-07C0.495703 0.0035161 0.400781 0.0035161 0.274219 0.0738286ZM9.31641 2.93906C9.31641 5.04141 9.30937 4.98867 9.55898 5.13984L9.68555 5.2207L11.577 5.23125L13.4648 5.2418V7.12969V9.02109L13.0711 9.06328C12.0129 9.17578 11.0812 9.62227 10.3359 10.3711C9.44297 11.2746 8.98242 12.477 9.04922 13.7285C9.10898 14.8641 9.54844 15.8625 10.343 16.6711L10.6172 16.9453H5.83594H1.05469V9V1.05469H5.18555H9.31641V2.93906ZM12.6914 4.15547C12.6914 4.17305 12.1711 4.18359 11.5312 4.18359H10.3711V2.99883V1.81055L11.5312 2.9707C12.1711 3.60703 12.6914 4.14141 12.6914 4.15547ZM14.3824 10.2059C14.9941 10.3641 15.5566 10.7016 16.0031 11.1762C16.2984 11.4855 16.425 11.6719 16.6148 12.0727C16.8469 12.5648 16.9242 12.9234 16.9242 13.5176C16.9242 14.1117 16.8469 14.4703 16.6148 14.9625C16.425 15.3633 16.2984 15.5496 16.0031 15.859C15.6902 16.193 15.409 16.3969 14.9941 16.5973C14.4773 16.8469 14.1223 16.9242 13.5176 16.9242C12.9234 16.9242 12.5648 16.8469 12.0656 16.6113C11.5277 16.3582 11.0109 15.9188 10.6875 15.4512C10.5047 15.1875 10.2727 14.6637 10.1883 14.3227C10.0758 13.8797 10.0758 13.1555 10.1883 12.7125C10.2727 12.3715 10.5047 11.8477 10.6875 11.584C11.0883 11.0039 11.7633 10.4941 12.4418 10.2691C13.0289 10.0688 13.7602 10.0441 14.3824 10.2059Z" fill="white"/>
<path d="M2.38359 6.12063C2.23242 6.19798 2.10938 6.4054 2.10938 6.57415C2.10938 6.74993 2.23242 6.95032 2.39062 7.03118C2.52422 7.10149 2.59102 7.10149 5.36484 7.10149C8.49727 7.10149 8.34961 7.11204 8.51836 6.87649C8.62734 6.72532 8.62734 6.42298 8.51836 6.2718C8.34961 6.03626 8.50078 6.0468 5.3543 6.0468C2.59453 6.05032 2.51016 6.05032 2.38359 6.12063Z" fill="white"/>
<path d="M2.38359 8.58157C2.23242 8.65891 2.10938 8.86633 2.10938 9.03508C2.10938 9.21087 2.23242 9.41126 2.39062 9.49212C2.52422 9.56243 2.59102 9.56243 5.36484 9.56243C8.49727 9.56243 8.34961 9.57298 8.51836 9.33743C8.62734 9.18626 8.62734 8.88391 8.51836 8.73274C8.34961 8.49719 8.50078 8.50774 5.3543 8.50774C2.59453 8.51126 2.51016 8.51126 2.38359 8.58157Z" fill="white"/>
<path d="M2.38359 11.0392C2.23242 11.1201 2.10938 11.3275 2.10938 11.4962C2.10938 11.672 2.23242 11.8724 2.39063 11.9533C2.52773 12.0236 2.58047 12.0236 4.1625 12.0166C5.74805 12.006 5.79727 12.0025 5.89219 11.9322C6.06797 11.8021 6.13125 11.6861 6.13125 11.4962C6.13125 11.3064 6.06797 11.1904 5.89219 11.0603C5.79727 10.99 5.75156 10.9865 4.15547 10.9794C2.57695 10.9724 2.51016 10.9724 2.38359 11.0392Z" fill="white"/>
<path d="M14.8535 12.0971C14.8148 12.1182 14.3683 12.5506 13.8621 13.0569L12.9375 13.9745L12.5086 13.5491C12.2695 13.3135 12.0375 13.0956 11.9883 13.0639C11.8687 12.9866 11.6121 12.9901 11.4679 13.078C11.2359 13.2186 11.1515 13.5139 11.2676 13.76C11.2992 13.8233 11.6191 14.1678 11.9812 14.5264C12.5191 15.0608 12.6633 15.1874 12.7793 15.219C13.0781 15.2963 13.0992 15.2823 14.3191 14.0694C14.9344 13.4542 15.4722 12.9092 15.5144 12.8495C15.6761 12.6245 15.5812 12.2413 15.3281 12.1112C15.2086 12.0514 14.9554 12.0444 14.8535 12.0971Z" fill="white"/>
</g>
<defs>
<clipPath id="clip0_2_9686">
<rect width="18" height="18" fill="white"/>
</clipPath>
</defs>
</svg>
